<svg width="500" height="107" viewBox="0 0 500 107" fill="none" xmlns="http://www.w3.org/2000/svg">
<rect width="500" height="91" fill="#F6416C"/>
<path d="M71.1562 33.8125C71.2812 33.5 71.25 33.2188 71.0625 32.9688C70.875 32.7188 70.7188 32.5312 70.5938 32.4062C70.6562 31.7812 70.8438 31.25 71.1562 30.8125C71.5312 30.3125 71.9688 29.9062 72.4688 29.5938C73.0312 29.9062 73.5312 30.2812 73.9688 30.7188C74.4688 31.0938 74.7812 31.625 74.9062 32.3125C74.7812 33.6875 74.1875 34.4062 73.125 34.4688C72.75 34.4688 72.4062 34.375 72.0938 34.1875C71.7812 34 71.4688 33.875 71.1562 33.8125ZM71.625 39.25C71.625 38.9375 71.5312 38.6875 71.3438 38.5C71.1562 38.3125 71 38.0938 70.875 37.8438C71 37.1562 71.3438 36.6875 71.9062 36.4375C72.5312 36.1875 73 36.3125 73.3125 36.8125C73.5625 37.1875 73.625 37.5938 73.5 38.0312C73.375 38.4062 73.25 38.75 73.125 39.0625C72.5 39.1875 72 39.25 71.625 39.25ZM108.562 46.5625C108.5 47.0625 108.406 47.5 108.281 47.875C108.156 48.25 107.938 48.5625 107.625 48.8125C106.812 48.875 106.125 48.5312 105.562 47.7812C105.625 47.2812 105.75 46.9062 105.938 46.6562C106.188 46.3438 106.406 46.0312 106.594 45.7188C107.156 45.5312 107.562 45.5625 107.812 45.8125C108.062 46.0625 108.312 46.3125 108.562 46.5625ZM104.719 51.3438C105.094 51.2188 105.438 51.3125 105.75 51.625C106.062 51.875 106.406 51.9375 106.781 51.8125C107.156 52.125 107.5 52.4375 107.812 52.75C108.188 53.0625 108.438 53.5 108.562 54.0625C108.562 54.5 108.594 54.9688 108.656 55.4688C108.719 55.9062 108.656 56.375 108.469 56.875C108.531 57.1875 108.531 57.4062 108.469 57.5312C108.469 57.6562 108.469 57.8125 108.469 58C108.219 58.1875 107.969 58.4062 107.719 58.6562C107.531 58.8438 107.219 58.9062 106.781 58.8438C106.469 58.6562 106.25 58.4062 106.125 58.0938C106 57.7188 105.781 57.4375 105.469 57.25C105.469 56.75 105.281 56.3438 104.906 56.0312C104.969 55.7188 104.906 55.5312 104.719 55.4688C104.531 55.4062 104.469 55.2188 104.531 54.9062C104.094 54.4688 103.875 53.8438 103.875 53.0312C103.938 52.2188 104.219 51.6562 104.719 51.3438ZM123.188 72.625C123.312 71.875 123.438 71.4375 123.562 71.3125C123.688 71.1875 123.812 71.0625 123.938 70.9375C124.25 70.75 124.5 70.75 124.688 70.9375C124.938 71.0625 125.094 71.2812 125.156 71.5938C125.281 71.8438 125.312 72.1562 125.25 72.5312C125.188 72.8438 125.062 73.0938 124.875 73.2812C124.562 73.4062 124.219 73.4062 123.844 73.2812C123.531 73.1562 123.312 72.9375 123.188 72.625ZM123.562 75.8125C124.812 75.375 125.656 75.4375 126.094 76C126.531 76.5625 126.719 77.2812 126.656 78.1562C126.344 78.5938 125.969 78.9688 125.531 79.2812C125.156 79.5938 124.719 79.8125 124.219 79.9375C123.719 80 123.344 79.875 123.094 79.5625C122.906 79.25 122.719 78.9375 122.531 78.625C122.469 78.25 122.531 77.875 122.719 77.5C122.906 77.125 123.094 76.7188 123.281 76.2812L123.562 75.8125ZM93.0938 78.3438C92.9688 78.8438 92.7812 79.2812 92.5312 79.6562C92.2812 80.0312 92 80.375 91.6875 80.6875C91.125 80.875 90.5938 80.75 90.0938 80.3125C89.6562 79.875 89.4375 79.4375 89.4375 79C89.6875 78.375 89.7812 78.0312 89.7188 77.9688C89.7188 77.8438 89.75 77.7188 89.8125 77.5938C89.9375 77.2812 90.125 77.0312 90.375 76.8438C90.6875 76.5938 91 76.4688 91.3125 76.4688C91.8125 76.4688 92.1562 76.6875 92.3438 77.125C92.5938 77.5 92.8438 77.9062 93.0938 78.3438ZM86.5312 47.3125C86.4688 46.9375 86.3125 46.6875 86.0625 46.5625C85.8125 46.375 85.5312 46.2188 85.2188 46.0938C84.7812 46.2188 84.5 46.4062 84.375 46.6562C84.25 46.9062 84.125 47.25 84 47.6875C83.875 48 83.7812 48.3125 83.7188 48.625C83.6562 48.875 83.625 49.2188 83.625 49.6562C83.5625 50.4688 83.4375 51.2812 83.25 52.0938C83.125 52.9062 83.25 53.6562 83.625 54.3438C83.5 55.2188 83.4375 56.1562 83.4375 57.1562C83.5 58.1562 83.5312 59.0938 83.5312 59.9688C83.4688 60.3438 83.5 60.7812 83.625 61.2812C83.75 61.7188 83.8125 62.1875 83.8125 62.6875C83.8125 63.5 83.8438 64.375 83.9062 65.3125C83.9688 66.25 83.9375 67.1875 83.8125 68.125C83.625 68.8125 83.6875 69.3125 84 69.625C84.3125 69.9375 84.5312 70.2812 84.6562 70.6562C84.9688 70.8438 85.2812 71.0625 85.5938 71.3125C85.9062 71.5 86.1875 71.75 86.4375 72.0625C86.5 72.5 86.625 72.9688 86.8125 73.4688C87.0625 73.9062 87.0938 74.3438 86.9062 74.7812C87.2188 75.3438 87.3125 75.7812 87.1875 76.0938C87.0625 76.4062 86.875 76.6875 86.625 76.9375C86.4375 77.1875 86.25 77.4688 86.0625 77.7812C85.875 78.0312 85.7812 78.3438 85.7812 78.7188C85.4062 79.4062 84.8125 79.8438 84 80.0312C83.25 80.2812 82.5312 80.625 81.8438 81.0625C81.5938 80.9375 81.375 80.9375 81.1875 81.0625C81 81.1875 80.75 81.2188 80.4375 81.1562C79.625 80.9688 79 80.9688 78.5625 81.1562C78.125 81.3438 77.6875 81.4375 77.25 81.4375C77.0625 81.3125 76.8438 81.2188 76.5938 81.1562C76.4062 81.0938 76.25 80.9688 76.125 80.7812C75.75 80.9688 75.4062 80.9688 75.0938 80.7812C74.7812 80.6562 74.4688 80.5938 74.1562 80.5938C73.7188 80.5938 73.375 80.4688 73.125 80.2188C72.875 79.9688 72.6875 79.6875 72.5625 79.375C72.1875 78.875 72 78.5312 72 78.3438C72.0625 78.1562 72.0625 78 72 77.875C71.875 77.625 71.75 77.4375 71.625 77.3125C71.5625 77.125 71.5312 76.9375 71.5312 76.75C71.4688 76.375 71.375 76.0938 71.25 75.9062C71.1875 75.6562 71.2188 75.4688 71.3438 75.3438C71.3438 75.0312 71.25 74.75 71.0625 74.5C70.875 74.1875 70.875 73.9375 71.0625 73.75C70.9375 73.625 70.8125 73.4375 70.6875 73.1875C70.5625 72.875 70.4688 72.625 70.4062 72.4375C70.3438 72.1875 70.375 71.9688 70.5 71.7812C70.625 71.5312 70.6562 71.3125 70.5938 71.125C71.0938 68 71.9688 65.4062 73.2188 63.3438C73.2812 63.1562 73.3438 62.9688 73.4062 62.7812C73.4688 62.5312 73.5625 62.3438 73.6875 62.2188C73.8125 61.3438 73.8438 60.8125 73.7812 60.625C73.7188 60.4375 73.6562 60.1875 73.5938 59.875C73.5312 59.25 73.5312 58.8438 73.5938 58.6562C73.7188 58.4062 73.7812 58.125 73.7812 57.8125C73.7812 57.6875 73.75 57.5312 73.6875 57.3438C73.6875 57.1562 73.7188 56.9688 73.7812 56.7812C73.8438 56.4688 73.9375 56.1875 74.0625 55.9375C74.25 55.625 74.375 55.3125 74.4375 55C74.5 54.8125 74.5312 54.5938 74.5312 54.3438C74.5312 54.0938 74.625 53.875 74.8125 53.6875C74.875 52.8125 74.9688 52 75.0938 51.25C75.2188 50.4375 75.3438 49.5938 75.4688 48.7188C75.5938 48.0938 75.5938 47.5 75.4688 46.9375C75.4062 46.375 75.5312 45.9062 75.8438 45.5312C75.8438 44.8438 75.8438 44.375 75.8438 44.125C75.8438 43.875 75.9062 43.6875 76.0312 43.5625C75.8438 43.3125 75.75 43.0312 75.75 42.7188C75.8125 42.3438 75.7812 42 75.6562 41.6875C75.8438 41.125 75.9688 40.5938 76.0312 40.0938C76.0938 39.5312 76.1875 39.0625 76.3125 38.6875C76.375 37.9375 76.4062 37.3125 76.4062 36.8125C76.4688 36.3125 76.5938 35.875 76.7812 35.5C76.7812 34.8125 76.9062 34.4062 77.1562 34.2812C76.9688 33.7812 76.8125 33.2812 76.6875 32.7812C76.625 32.2188 76.4375 31.6875 76.125 31.1875C76.25 30.4375 76.1562 29.8438 75.8438 29.4062C75.5312 28.9688 75.4375 28.3438 75.5625 27.5312C75.4375 26.5312 75.375 25.625 75.375 24.8125C75.4375 23.9375 75.25 23.25 74.8125 22.75C74.625 22.3125 74.4688 21.9375 74.3438 21.625C74.2812 21.3125 74.125 21.0312 73.875 20.7812C73.8125 20.5312 73.7188 20.2188 73.5938 19.8438C73.4688 19.4688 73.375 19.0938 73.3125 18.7188C73.25 18.3438 73.2188 18 73.2188 17.6875C73.2188 17.3125 73.3438 17.0312 73.5938 16.8438C73.5312 16.4688 73.4688 16.0312 73.4062 15.5312C73.4062 15.0312 73.5625 14.7188 73.875 14.5938C73.75 14.2812 73.75 13.9688 73.875 13.6562C74.0625 13.2812 74.25 13 74.4375 12.8125C74.4375 12.5 74.5938 12.25 74.9062 12.0625C75.2188 11.8125 75.4688 11.5625 75.6562 11.3125C75.9688 11 76.25 10.6875 76.5 10.375C76.75 10 77.0938 9.78125 77.5312 9.71875C78.0312 9.65625 78.4688 9.625 78.8438 9.625C79.2188 9.625 79.5625 9.6875 79.875 9.8125C80.5 9.75 81.0938 9.71875 81.6562 9.71875C82.2812 9.65625 82.75 9.8125 83.0625 10.1875C83.5625 10.1875 83.9688 10.3125 84.2812 10.5625C84.6562 10.75 85.0938 10.9375 85.5938 11.125C85.7812 11.6875 86.125 12.1875 86.625 12.625C87.1875 13 87.5938 13.5312 87.8438 14.2188C87.9688 14.6562 88.0625 15.0625 88.125 15.4375C88.25 15.75 88.3438 16.125 88.4062 16.5625C88.5312 17.5 88.6875 18.375 88.875 19.1875C89.0625 19.9375 89.2188 20.8125 89.3438 21.8125C89.1562 22.8125 89.1562 23.5938 89.3438 24.1562C89.5938 24.7188 89.875 25.2812 90.1875 25.8438C90.25 27.9688 90.8438 29.9375 91.9688 31.75C92.0312 32 92.0938 32.3125 92.1562 32.6875C92.2188 33.0625 92.2812 33.4375 92.3438 33.8125C92.4688 34.3125 92.625 34.7812 92.8125 35.2188C93.0625 35.6562 93.1875 36.0938 93.1875 36.5312C93.5625 37.5312 93.875 38.2812 94.125 38.7812C94.375 39.2812 94.5625 39.7812 94.6875 40.2812C95.1875 40.7812 95.5938 41.375 95.9062 42.0625C96.2812 42.6875 96.5312 43.375 96.6562 44.125C96.9062 44.5 97.0312 44.9375 97.0312 45.4375C97.0938 45.9375 97.2188 46.4375 97.4062 46.9375C97.8438 47.6875 98.0312 48.3125 97.9688 48.8125C97.9688 49.3125 98.125 49.75 98.4375 50.125C98.6875 50.3125 98.875 50.5625 99 50.875C99.125 51.125 99.2812 51.375 99.4688 51.625C99.6562 51.9375 99.875 52.2188 100.125 52.4688C100.438 52.6562 100.656 52.9688 100.781 53.4062C101.344 53.9062 101.75 54.4375 102 55C102.25 55.5625 102.625 56.0312 103.125 56.4062C103.438 57.2812 103.812 58.0625 104.25 58.75C104.688 59.375 105.094 60.0938 105.469 60.9062C105.781 61.2812 106.062 61.6562 106.312 62.0312C106.625 62.4062 106.938 62.75 107.25 63.0625C107.875 63.3125 108.344 63.6875 108.656 64.1875C109.031 64.6875 109.438 65.1875 109.875 65.6875C110.188 65.3125 110.5 64.9688 110.812 64.6562C111.188 64.2812 111.5 63.8438 111.75 63.3438C111.625 62.8438 111.625 62.375 111.75 61.9375C111.875 61.5 111.875 60.9375 111.75 60.25C111.438 59.625 111.312 59.0938 111.375 58.6562C111.5 58.2188 111.438 57.8438 111.188 57.5312C111.25 57.2188 111.25 56.9375 111.188 56.6875C111.188 56.375 111.188 56.0312 111.188 55.6562C110.875 55.2188 110.75 54.75 110.812 54.25C110.875 53.75 110.906 53.25 110.906 52.75C111.031 52.4375 111.062 52.125 111 51.8125C110.938 51.4375 111.031 51.0938 111.281 50.7812C111.219 50.3438 111.188 49.8438 111.188 49.2812C111.188 48.7188 111.281 48.1875 111.469 47.6875C111.344 47.0625 111.312 46.4062 111.375 45.7188C111.5 44.9688 111.625 44.2812 111.75 43.6562C111.438 43.1562 111.25 42.5938 111.188 41.9688C111.188 41.2812 111.156 40.5938 111.094 39.9062C111.094 39.2188 111.031 38.5625 110.906 37.9375C110.844 37.3125 110.625 36.75 110.25 36.25C110.562 35.75 110.625 35.2188 110.438 34.6562C110.312 34.0938 110.406 33.5625 110.719 33.0625C110.906 32.0625 111.062 31.2188 111.188 30.5312C111.312 29.8438 111.469 29.1562 111.656 28.4688C111.531 28.1562 111.5 27.8438 111.562 27.5312C111.688 27.2188 111.75 26.875 111.75 26.5C111.812 25.9375 111.75 25.3438 111.562 24.7188C111.438 24.0938 111.469 23.5 111.656 22.9375C111.531 22.375 111.5 21.6875 111.562 20.875C111.625 20.0625 111.625 19.375 111.562 18.8125C111.5 17.875 111.5 17.2188 111.562 16.8438C111.625 16.4062 111.656 16 111.656 15.625L111.469 14.5938C111.469 14.1563 111.469 13.6875 111.469 13.1875C111.531 12.625 111.469 12.1875 111.281 11.875C111.531 11.1875 111.594 10.4063 111.469 9.53125C111.406 8.59375 111.625 7.78125 112.125 7.09375C112.625 6.65625 113.031 6.34375 113.344 6.15625C113.656 5.90625 113.969 5.75 114.281 5.6875C115.031 5.625 115.469 5.5625 115.594 5.5C115.781 5.375 116 5.34375 116.25 5.40625C116.625 5.46875 116.969 5.59375 117.281 5.78125C117.594 5.90625 117.938 6 118.312 6.0625C118.5 6.25 118.75 6.375 119.062 6.4375C119.375 6.5 119.625 6.59375 119.812 6.71875C120.312 7.15625 120.719 7.65625 121.031 8.21875C121.344 8.78125 121.812 9.21875 122.438 9.53125C122.938 10.7813 123.188 11.75 123.188 12.4375C123.25 13.125 123.344 13.7813 123.469 14.4062C123.344 14.5938 123.281 14.8437 123.281 15.1562C123.281 15.4688 123.125 15.6875 122.812 15.8125C122.938 16.125 122.906 16.4688 122.719 16.8438C122.531 17.2188 122.531 17.5312 122.719 17.7812C122.344 19.0312 122 20.4375 121.688 22C121.375 23.5625 121.062 25.0938 120.75 26.5938C120.5 26.9062 120.312 27.25 120.188 27.625C120.062 28 119.938 28.3438 119.812 28.6562C119.75 29.7188 119.781 30.7188 119.906 31.6562C120.031 32.5312 120 33.4062 119.812 34.2812C119.625 34.7188 119.531 35.125 119.531 35.5C119.594 35.8125 119.656 36.2188 119.719 36.7188C119.781 37.0938 119.812 37.4688 119.812 37.8438C119.812 38.1562 119.844 38.4688 119.906 38.7812C120.031 39.2812 120.156 39.7188 120.281 40.0938C120.406 40.4688 120.469 40.9375 120.469 41.5C120.906 42.1875 120.969 42.9062 120.656 43.6562C120.406 44.3438 120.219 45.0625 120.094 45.8125C119.969 46.75 120.031 47.7188 120.281 48.7188C120.531 49.6562 120.656 50.5938 120.656 51.5312C120.594 52.2188 120.469 52.8125 120.281 53.3125C120.156 53.75 120.031 54.2188 119.906 54.7188C119.844 55.0938 119.844 55.5 119.906 55.9375C119.969 56.3125 120.031 56.75 120.094 57.25C120.156 57.75 120.25 58.2188 120.375 58.6562C120.5 59.0312 120.5 59.4062 120.375 59.7812C120.75 61.3438 120.781 62.9375 120.469 64.5625C120.156 66.125 119.938 67.5312 119.812 68.7812C119.812 69.4062 119.781 69.8125 119.719 70C119.656 70.1875 119.594 70.375 119.531 70.5625C119.406 71.5 119.438 72.4375 119.625 73.375C119.875 74.25 119.875 75.125 119.625 76C119.562 76.1875 119.5 76.3438 119.438 76.4688C119.375 76.5938 119.375 76.8125 119.438 77.125C119.125 77.4375 118.906 77.7812 118.781 78.1562C118.719 78.5312 118.531 78.8125 118.219 79C117.906 79.5625 117.594 80 117.281 80.3125C116.969 80.6875 116.719 81.125 116.531 81.625C115.719 81.8125 115.094 82.1875 114.656 82.75C114.094 83.0625 113.312 83.4062 112.312 83.7812C111.312 84.1562 110.5 84.0938 109.875 83.5938C109.562 83.4062 109.281 83.25 109.031 83.125C108.844 83 108.719 82.8438 108.656 82.6562C108.344 82.3438 108.094 82.0938 107.906 81.9062C107.719 81.7188 107.531 81.5312 107.344 81.3438C106.906 80.9688 106.531 80.5312 106.219 80.0312C105.969 79.5938 105.688 79.1562 105.375 78.7188C105.188 78.0938 104.969 77.75 104.719 77.6875C104.531 77.5625 104.438 77.2812 104.438 76.8438C104.062 76.0938 103.75 75.5625 103.5 75.25C103.312 74.875 103.094 74.5312 102.844 74.2188C102.594 73.9062 102.344 73.5625 102.094 73.1875C101.906 72.8125 101.875 72.375 102 71.875C101.875 71.6875 101.75 71.4375 101.625 71.125C101.562 70.8125 101.375 70.5938 101.062 70.4688C100.625 69.9688 100.344 69.3438 100.219 68.5938C99.9062 67.9688 99.6562 67.5 99.4688 67.1875C99.3438 66.875 99.1562 66.5938 98.9062 66.3438C98.8438 65.5938 98.5938 65.0312 98.1562 64.6562C97.7188 64.2188 97.3438 63.75 97.0312 63.25C96.7812 63.3125 96.5938 63.25 96.4688 63.0625C96.3438 62.8125 96.2188 62.5938 96.0938 62.4062C95.8438 62.2812 95.6562 62.125 95.5312 61.9375C95.4688 61.75 95.375 61.625 95.25 61.5625C95.3125 61.25 95.2188 61.0312 94.9688 60.9062C94.7812 60.7188 94.7188 60.5 94.7812 60.25C94.2812 59.5625 93.8125 59 93.375 58.5625C93 58.0625 92.6875 57.4062 92.4375 56.5938C92.125 56.2812 91.8125 55.8125 91.5 55.1875C91.1875 55.0625 90.9375 54.875 90.75 54.625C90.625 54.3125 90.5312 54.0312 90.4688 53.7812C90.0938 53.4688 89.7812 53.125 89.5312 52.75C89.5938 52.1875 89.4688 51.8125 89.1562 51.625C88.9062 51.4375 88.8438 51.0938 88.9688 50.5938C88.5312 50.2812 88.2812 49.8125 88.2188 49.1875C88.1562 48.5625 87.9062 48.0938 87.4688 47.7812C86.9688 47.3438 86.7188 47.1562 86.7188 47.2188C86.7188 47.2812 86.6562 47.3125 86.5312 47.3125ZM130.688 22.0938C130.562 21.5938 130.562 21.0625 130.688 20.5C130.812 19.9375 131.062 19.5312 131.438 19.2812C132 18.4688 132.406 18.0625 132.656 18.0625C132.969 18 133.281 17.8438 133.594 17.5938C134.156 17.7188 134.625 18.0312 135 18.5312C135.375 18.9688 135.531 19.5312 135.469 20.2188C135.344 20.6562 135.188 21 135 21.25C134.812 21.5 134.594 21.6875 134.344 21.8125C133.906 22.125 133.5 22.4375 133.125 22.75C132.812 23.0625 132.281 23.1562 131.531 23.0312C131.406 22.9062 131.281 22.75 131.156 22.5625C131.031 22.375 130.875 22.2188 130.688 22.0938ZM155.906 17.7812C156.406 17.8438 156.781 17.9375 157.031 18.0625C157.281 18.1875 157.5 18.3125 157.688 18.4375C157.875 18.4375 158.125 18.5 158.438 18.625C158.75 18.6875 159 18.7812 159.188 18.9062C159.438 19.0312 159.625 19.2188 159.75 19.4688C159.938 19.7188 160.188 19.9688 160.5 20.2188C160.75 20.4688 161 20.6562 161.25 20.7812C161.562 20.9062 161.812 21.125 162 21.4375C162.125 21.5625 162.219 21.75 162.281 22C162.406 22.1875 162.531 22.3438 162.656 22.4688C163.031 22.7188 163.406 22.9688 163.781 23.2188C164.219 23.4062 164.594 23.6562 164.906 23.9688C165.469 24.0938 165.812 24.25 165.938 24.4375C166.438 24.75 166.688 24.9375 166.688 25C166.75 25 166.781 25.0625 166.781 25.1875C167.281 25.3125 167.688 25.5312 168 25.8438C168.375 26.1562 168.781 26.4375 169.219 26.6875C169.531 27.125 170.031 27.5 170.719 27.8125C171.156 28.5625 171.688 29.2188 172.312 29.7812C172.938 30.3438 173.406 31.0312 173.719 31.8438C173.969 32.2188 174.125 32.4688 174.188 32.5938C174.312 32.7188 174.375 32.9062 174.375 33.1562C174.75 33.5938 175.031 34.0938 175.219 34.6562C175.469 35.2188 175.812 35.7188 176.25 36.1562C176.562 36.8438 176.719 37.375 176.719 37.75C176.906 38.125 177.062 38.5312 177.188 38.9688C177.375 39.3438 177.406 39.7188 177.281 40.0938C177.531 40.5938 177.625 41.1562 177.562 41.7812C177.562 42.4062 177.688 42.9062 177.938 43.2812C177.812 43.9062 177.719 44.3438 177.656 44.5938C177.656 44.7812 177.594 44.9375 177.469 45.0625C177.469 45.5625 177.469 45.9375 177.469 46.1875C177.469 46.4375 177.469 46.6875 177.469 46.9375C177.281 47.25 177.094 47.625 176.906 48.0625C176.781 48.4375 176.656 48.875 176.531 49.375C176.531 49.75 176.469 50.1875 176.344 50.6875C176.281 51.125 176.094 51.5 175.781 51.8125C175.781 52.0625 175.75 52.25 175.688 52.375C175.688 52.5 175.688 52.6562 175.688 52.8438C175.312 53.5312 175.031 54.1875 174.844 54.8125C174.656 55.375 174.406 56 174.094 56.6875L173.625 57.8125C173.5 58.0625 173.312 58.3125 173.062 58.5625C172.875 58.75 172.719 58.9688 172.594 59.2188C172.156 59.7812 171.906 60.1562 171.844 60.3438C171.844 60.5312 171.781 60.6875 171.656 60.8125C171.469 61.125 171.281 61.375 171.094 61.5625C170.906 61.6875 170.75 61.875 170.625 62.125C169.75 63.125 168.844 63.875 167.906 64.375C166.969 64.875 166.125 65.4688 165.375 66.1562C165.062 66.2812 164.844 66.4375 164.719 66.625C164.656 66.75 164.562 66.875 164.438 67C163.688 67.5 162.938 67.9062 162.188 68.2188C161.5 68.5312 160.812 68.875 160.125 69.25C159.75 69.25 159.344 69.375 158.906 69.625C158.469 69.8125 158 69.875 157.5 69.8125C157.188 70 156.688 70.0938 156 70.0938C155.312 70.0312 154.719 70.0312 154.219 70.0938C153.469 69.9688 152.906 69.9062 152.531 69.9062C152.156 69.8438 151.906 69.7188 151.781 69.5312C151.531 69.5938 151.281 69.5938 151.031 69.5312C150.844 69.4062 150.688 69.2812 150.562 69.1562C149.938 68.9062 149.438 68.8438 149.062 68.9688C148.688 69.0312 148.375 68.9688 148.125 68.7812C147.812 69.0312 147.5 69.0938 147.188 68.9688C146.875 68.8438 146.531 68.7812 146.156 68.7812C145.969 68.5938 145.719 68.4688 145.406 68.4062C145.094 68.3438 144.875 68.1875 144.75 67.9375C143.75 67.8125 143.094 67.5312 142.781 67.0938C142.406 66.9688 142.094 66.9062 141.844 66.9062C141.594 66.8438 141.438 66.6875 141.375 66.4375C140.812 66.3125 140.344 66.0625 139.969 65.6875C139.594 65.3125 139.125 65.0312 138.562 64.8438C138.438 64.6562 138.281 64.5312 138.094 64.4688C137.969 64.3438 137.875 64.1562 137.812 63.9062C137.5 63.7812 137.25 63.5938 137.062 63.3438C136.938 63.0312 136.781 62.7188 136.594 62.4062C136.281 62.2188 136 62 135.75 61.75C135.5 61.5 135.219 61.2812 134.906 61.0938C134.594 60.6562 134.312 60.3125 134.062 60.0625C133.875 59.8125 133.781 59.5312 133.781 59.2188C133.656 59.2188 133.469 59.125 133.219 58.9375C133.031 58.6875 133 58.5 133.125 58.375C132.75 58.125 132.438 57.75 132.188 57.25C131.938 56.6875 131.781 56.1562 131.719 55.6562C131.594 55.4688 131.5 55.25 131.438 55C131.438 54.75 131.344 54.5625 131.156 54.4375C130.906 53.5625 130.656 52.8125 130.406 52.1875C130.156 51.5 129.906 50.7812 129.656 50.0312C129.344 49.5938 129.031 49 128.719 48.25C128.406 47.5 128.469 46.7812 128.906 46.0938C128.781 45.8438 128.75 45.5625 128.812 45.25C128.875 44.9375 128.844 44.6875 128.719 44.5C128.844 44.125 128.875 43.7188 128.812 43.2812C128.75 42.7812 128.719 42.2812 128.719 41.7812C128.719 40.7188 128.969 39.7812 129.469 38.9688C129.594 38.2812 129.75 37.5625 129.938 36.8125C130.188 36.0625 130.531 35.4375 130.969 34.9375C131.031 34.8125 131.125 34.6562 131.25 34.4688C131.438 34.2812 131.594 34.1562 131.719 34.0938C131.656 33.7812 131.719 33.5312 131.906 33.3438C132.094 33.1562 132.25 32.9375 132.375 32.6875C132.438 32 132.656 31.4062 133.031 30.9062C133.406 30.4062 133.781 29.9062 134.156 29.4062C134.219 28.7188 134.406 28.1875 134.719 27.8125C135.031 27.375 135.219 26.8125 135.281 26.125C135.531 26 135.781 25.8125 136.031 25.5625C136.281 25.3125 136.375 25.0312 136.312 24.7188C136.938 24.3438 137.406 23.7812 137.719 23.0312C138.219 22.7812 138.688 22.5 139.125 22.1875C139.562 21.875 140.031 21.5625 140.531 21.25C141.094 20.75 141.438 20.4062 141.562 20.2188C141.75 19.9688 142 19.8438 142.312 19.8438C142.438 19.5938 142.625 19.4688 142.875 19.4688C143.188 19.4688 143.375 19.3125 143.438 19C144.125 19 144.531 18.9688 144.656 18.9062C144.781 18.7812 144.906 18.6875 145.031 18.625C145.281 18.6875 145.438 18.7188 145.5 18.7188C145.625 18.6562 145.812 18.5938 146.062 18.5312C147.062 18.4062 147.969 18.2812 148.781 18.1562C149.594 17.9688 150.375 18.0312 151.125 18.3438C151.438 18.3438 151.688 18.2812 151.875 18.1562C152.125 18.0312 152.469 18.0312 152.906 18.1562C153.094 18.0312 153.25 17.9062 153.375 17.7812C153.5 17.6562 153.688 17.5938 153.938 17.5938C154.5 17.9062 154.938 18.0625 155.25 18.0625C155.562 18 155.781 17.9062 155.906 17.7812ZM168.375 44.6875C168.438 44.0625 168.281 43.4375 167.906 42.8125C167.531 42.1875 167.375 41.5312 167.438 40.8438C167.188 40.5312 166.938 40.1562 166.688 39.7188C166.5 39.2812 166.406 38.8125 166.406 38.3125C166.156 37.875 165.906 37.5312 165.656 37.2812C165.469 37.0312 165.438 36.6562 165.562 36.1562C165.312 35.7188 165.188 35.1875 165.188 34.5625C165.25 34.0625 165.25 33.8125 165.188 33.8125C165.188 33.75 165.156 33.6562 165.094 33.5312C164.969 33.2188 164.844 32.9375 164.719 32.6875C164.594 32.4375 164.375 32.25 164.062 32.125C163.312 32.1875 162.875 32.2188 162.75 32.2188C162.688 32.1562 162.562 32.0938 162.375 32.0312C161.938 31.9062 161.562 31.8125 161.25 31.75C161 31.6875 160.812 31.5 160.688 31.1875C160.125 30.5625 159.625 30.1562 159.188 29.9688C158.75 29.7812 158.438 29.4375 158.25 28.9375C157.875 28.6875 157.5 28.4688 157.125 28.2812C156.75 28.0938 156.469 27.7812 156.281 27.3438C155.781 27.1562 155.438 26.9062 155.25 26.5938C154.625 26.3438 154.062 26.2812 153.562 26.4062C152.375 26.9062 151.406 27.2188 150.656 27.3438C149.969 27.4688 149.469 27.8438 149.156 28.4688C148.406 28.8438 147.656 29.1562 146.906 29.4062C146.156 29.5938 145.531 29.9688 145.031 30.5312C144.406 30.9062 143.875 31.1875 143.438 31.375C143 31.5625 142.531 31.75 142.031 31.9375C141.094 32.625 140.156 33.1562 139.219 33.5312C138.656 34.0312 138.156 34.5938 137.719 35.2188C137.281 35.8438 136.812 36.4688 136.312 37.0938C136.188 37.4688 136.094 37.875 136.031 38.3125C135.969 38.6875 135.875 39.0312 135.75 39.3438C135.875 39.5312 135.906 39.75 135.844 40C135.844 40.25 135.844 40.4688 135.844 40.6562C135.906 40.9062 136 41.125 136.125 41.3125C136.25 41.4375 136.25 41.5625 136.125 41.6875C136.625 43.4375 137.188 45.0312 137.812 46.4688C138.188 46.7188 138.406 47 138.469 47.3125C139.031 47.5625 139.406 48.1562 139.594 49.0938C140.094 49.4062 140.562 49.75 141 50.125C141.438 50.5 141.75 51 141.938 51.625C142.438 51.9375 142.844 52.5938 143.156 53.5938C143.344 53.7188 143.469 53.9062 143.531 54.1562C143.656 54.3438 143.781 54.5312 143.906 54.7188C144.656 55.1562 145.281 55.625 145.781 56.125C146.281 56.625 146.781 57.2188 147.281 57.9062C148.406 58.5938 149.594 58.9688 150.844 59.0312C152.156 59.0938 153.438 59.1875 154.688 59.3125C155.25 59.375 155.812 59.3438 156.375 59.2188C157 59.0938 157.562 59.0312 158.062 59.0312C158.562 58.8438 158.938 58.625 159.188 58.375C159.438 58.0625 159.812 57.8438 160.312 57.7188C160.625 57.2188 160.969 56.8438 161.344 56.5938C161.781 56.2812 162.188 56.0312 162.562 55.8438C162.875 55.7188 163.125 55.5938 163.312 55.4688C163.5 55.2812 163.75 55.125 164.062 55C164.5 54.3125 165.062 53.7812 165.75 53.4062C166.438 53.0312 166.938 52.5312 167.25 51.9062C167.812 50.9062 168.156 49.9688 168.281 49.0938C168.469 48.1562 168.625 47.25 168.75 46.375C168.562 46.25 168.469 46.0625 168.469 45.8125C168.469 45.5 168.5 45.1875 168.562 44.875L168.375 44.6875ZM142.219 37.75C142.469 38.375 142.312 39.0625 141.75 39.8125C141.688 39.9375 141.5 40.1562 141.188 40.4688C140.875 40.7812 140.625 40.9375 140.438 40.9375C140.125 41.0625 139.781 41.0625 139.406 40.9375C139.094 40.8125 138.844 40.6875 138.656 40.5625C138.531 40.25 138.438 39.9375 138.375 39.625C138.312 39.3125 138.375 39 138.562 38.6875C138.75 38.25 139.25 37.8438 140.062 37.4688C140.875 37.0938 141.5 37.0938 141.938 37.4688L142.219 37.75ZM162.844 47.4062C163.156 47.8438 163.188 48.1875 162.938 48.4375C162.75 48.6875 162.594 49 162.469 49.375C162.031 50.0625 161.688 50.4375 161.438 50.5C161.188 50.5625 160.938 50.625 160.688 50.6875C160.375 50.5 160.062 50.3438 159.75 50.2188C159.5 50.0312 159.312 49.75 159.188 49.375C159.062 48.875 159.125 48.4688 159.375 48.1562C159.688 47.8438 160 47.5625 160.312 47.3125C160.75 47.25 161.188 47.1875 161.625 47.125C162.125 47 162.531 47.0938 162.844 47.4062ZM153.75 51.3438C154.562 51.4062 155.281 51.5625 155.906 51.8125C156.594 52.0625 157.031 52.5 157.219 53.125C157.406 54.1875 157.094 54.9375 156.281 55.375C155.469 55.75 154.625 55.9688 153.75 56.0312C152.312 56.0312 151.344 55.6875 150.844 55C150.719 54.5625 150.75 54.25 150.938 54.0625C151.188 53.8125 151.375 53.5312 151.5 53.2188C152 52.8438 152.438 52.5625 152.812 52.375C153.188 52.125 153.562 51.875 153.938 51.625L153.75 51.3438ZM174 65.5C173.812 65.8125 173.594 66.125 173.344 66.4375C173.094 66.6875 172.75 66.8125 172.312 66.8125C172 66.8125 171.75 66.75 171.562 66.625C171.375 66.4375 171.188 66.25 171 66.0625C170.812 65.9375 170.625 65.8438 170.438 65.7812C170.25 65.7188 170.219 65.5312 170.344 65.2188C170.406 64.9688 170.531 64.8125 170.719 64.75C170.906 64.625 171.156 64.4688 171.469 64.2812C171.719 64.2188 172.156 64.0938 172.781 63.9062C173.406 63.7188 173.812 63.8438 174 64.2812C174.125 64.4688 174.125 64.6562 174 64.8438C173.875 64.9688 173.875 65.1875 174 65.5ZM203.25 20.125C203.812 20 204.312 20.1875 204.75 20.6875C205.25 21.125 205.469 21.6562 205.406 22.2812C205.406 22.4062 205.344 22.5625 205.219 22.75C205.094 22.9375 205 23.0938 204.938 23.2188C204.812 23.9688 204.562 24.625 204.188 25.1875C203.875 25.6875 203.531 26.0938 203.156 26.4062C202.469 26.5312 201.938 26.4375 201.562 26.125C201.25 25.75 201.031 25.3125 200.906 24.8125C201.031 24.625 201.094 24.4062 201.094 24.1562C201.094 23.9062 201.125 23.6875 201.188 23.5C201.25 23.25 201.344 23.0312 201.469 22.8438C201.594 22.6562 201.688 22.4375 201.75 22.1875C201.812 21.875 201.844 21.625 201.844 21.4375C201.844 21.1875 201.938 20.9375 202.125 20.6875C202.312 20.625 202.469 20.5625 202.594 20.5C202.781 20.375 203 20.25 203.25 20.125ZM180.469 26.3125C180.344 26.1875 180.188 26.0625 180 25.9375C179.875 25.8125 179.75 25.6875 179.625 25.5625C179.375 25 179.281 24.375 179.344 23.6875C179.406 23 179.688 22.5938 180.188 22.4688C180.688 22.0938 181.031 21.9375 181.219 22C181.594 22.125 181.906 22.4062 182.156 22.8438C182.469 23.2188 182.688 23.6875 182.812 24.25C182.938 24.75 182.969 25.25 182.906 25.75C182.844 26.25 182.656 26.625 182.344 26.875C182.031 27.125 181.625 27.1875 181.125 27.0625C180.688 26.875 180.406 26.625 180.281 26.3125H180.469ZM220.5 58C220.312 58.3125 220.062 58.5312 219.75 58.6562C219.5 58.7812 219.25 58.9688 219 59.2188C218.812 59.3438 218.656 59.5 218.531 59.6875C218.406 59.875 218.219 60 217.969 60.0625C217.531 60.1875 217.062 60.1875 216.562 60.0625C216.062 59.9375 215.656 59.7812 215.344 59.5938C215.094 58.5938 215.156 57.8125 215.531 57.25C215.906 56.625 216.438 56.2812 217.125 56.2188C217.562 56.4688 218.031 56.4688 218.531 56.2188C219.094 55.9688 219.562 56.0312 219.938 56.4062C220 56.7812 220.094 57.0625 220.219 57.25C220.406 57.4375 220.5 57.6875 220.5 58ZM210.938 61.75C210.875 62.125 210.844 62.5 210.844 62.875C210.844 63.25 210.656 63.5 210.281 63.625C209.469 64 208.875 63.9375 208.5 63.4375C208.125 62.9375 207.969 62.375 208.031 61.75C208.281 61.5625 208.5 61.3438 208.688 61.0938C208.938 60.8438 209.219 60.6562 209.531 60.5312C210.156 60.9688 210.625 61.375 210.938 61.75ZM200.156 79.375C200.156 78.5 200.344 77.7812 200.719 77.2188C201.094 76.6562 201.469 76.1875 201.844 75.8125C202.531 75.5625 203.062 75.3438 203.438 75.1562C204.062 75.4062 204.406 75.75 204.469 76.1875C204.594 76.625 204.562 77.0938 204.375 77.5938C204.188 78.0312 203.875 78.4375 203.438 78.8125C203.062 79.1875 202.688 79.4688 202.312 79.6562C201.5 80.2188 201 80.3438 200.812 80.0312C200.625 79.7188 200.406 79.5 200.156 79.375ZM196.781 13.2812C196.969 13.1562 197.156 13 197.344 12.8125C197.531 12.5625 197.719 12.4375 197.906 12.4375C198.031 12.25 198.188 12.125 198.375 12.0625C198.625 11.9375 198.938 11.8125 199.312 11.6875C199.625 11.5625 199.938 11.4375 200.25 11.3125C200.625 11.1875 200.969 11.25 201.281 11.5C201.594 11.4375 201.906 11.3438 202.219 11.2188C202.594 11.0937 202.938 11.0937 203.25 11.2188C203.688 11.1563 204.125 11.0937 204.562 11.0312C205 10.9062 205.469 10.9062 205.969 11.0312C206.906 10.7187 207.906 10.5312 208.969 10.4688C210.031 10.4063 211.062 10.3437 212.062 10.2812C212.875 10.3437 213.438 10.3125 213.75 10.1875C214.062 10.0625 214.375 10 214.688 10C215.375 10.125 216 10.375 216.562 10.75C217.188 11.125 217.875 11.375 218.625 11.5C219.062 11.8125 219.406 12.1875 219.656 12.625C219.906 13 220.219 13.3437 220.594 13.6562C220.969 14.0312 221.344 14.25 221.719 14.3125C222.156 14.3125 222.5 14.4375 222.75 14.6875C223.125 14.6875 223.406 14.75 223.594 14.875C223.781 15 224 15.125 224.25 15.25C224.562 16 225 16.5938 225.562 17.0312C226.125 17.4688 226.5 18.125 226.688 19C227.25 19.9375 227.656 20.5625 227.906 20.875C228.219 21.1875 228.438 21.5625 228.562 22C228.938 22.4375 229.188 22.75 229.312 22.9375C229.5 23.0625 229.594 23.2812 229.594 23.5938C230.031 24.0938 230.281 24.75 230.344 25.5625C230.469 26.3125 230.719 26.9688 231.094 27.5312C231.031 27.7812 231.031 28.0625 231.094 28.375C231.219 28.625 231.219 28.8125 231.094 28.9375C231.406 29.25 231.531 29.6562 231.469 30.1562C231.406 30.5938 231.5 31 231.75 31.375C231.625 32.625 231.594 33.8438 231.656 35.0312C231.719 36.1562 231.656 37.4062 231.469 38.7812C231.531 39.0312 231.469 39.3125 231.281 39.625C231.156 39.9375 231.156 40.25 231.281 40.5625C231.156 40.6875 231.062 40.875 231 41.125C231 41.3125 230.906 41.4375 230.719 41.5C230.406 42.1875 230.031 42.8438 229.594 43.4688C229.156 44.0312 228.75 44.6562 228.375 45.3438C228 45.6562 227.719 45.9375 227.531 46.1875C227.406 46.375 227.25 46.5 227.062 46.5625C226.938 47.0625 226.594 47.4062 226.031 47.5938C225.469 47.7812 225.062 48.0938 224.812 48.5312C224.312 48.7812 224.031 49.0312 223.969 49.2812C223.906 49.4688 223.812 49.625 223.688 49.75C223.125 50 222.688 50.3438 222.375 50.7812C221.812 51.2188 221.188 51.5938 220.5 51.9062C219.875 52.1562 219.281 52.4375 218.719 52.75C218.281 52.9375 217.938 53.1562 217.688 53.4062C217.5 53.5938 217.219 53.6875 216.844 53.6875C216.094 54.1875 215.469 54.5625 214.969 54.8125C214.469 55 214.031 55.0625 213.656 55C213.594 55.125 213.406 55.2188 213.094 55.2812C212.844 55.3438 212.656 55.3125 212.531 55.1875C212.344 55.375 212.094 55.5 211.781 55.5625C211.469 55.5625 211.188 55.5938 210.938 55.6562C210.562 55.8438 210.156 56.0312 209.719 56.2188C209.281 56.3438 208.812 56.4688 208.312 56.5938C208.125 56.6562 207.906 56.6875 207.656 56.6875C207.469 56.625 207.281 56.625 207.094 56.6875C206.469 57.0625 206.031 57.25 205.781 57.25C205.594 57.1875 205.344 57.1562 205.031 57.1562C204.656 56.9688 204.25 56.9062 203.812 56.9688C203.375 56.9688 202.906 57 202.406 57.0625C201.969 57.0625 201.531 57.0625 201.094 57.0625C200.656 57.0625 200.219 56.9688 199.781 56.7812C199.156 57.0938 198.5 57.1875 197.812 57.0625C197.188 56.875 196.531 56.8125 195.844 56.875C195.469 57.75 195.344 58.375 195.469 58.75C195.594 59.0625 195.656 59.4062 195.656 59.7812C195.594 60.8438 195.594 61.5625 195.656 61.9375C195.781 62.3125 195.781 62.6562 195.656 62.9688C195.719 63.7812 195.781 64.5 195.844 65.125C195.906 65.75 195.906 66.4062 195.844 67.0938C196.031 68.7188 196.281 69.9375 196.594 70.75C196.906 71.5625 197.406 72.2188 198.094 72.7188C198.156 73.2812 198.25 73.7812 198.375 74.2188C198.562 74.5938 198.594 75.0312 198.469 75.5312C198.469 75.7812 198.406 76 198.281 76.1875C198.156 76.375 198.062 76.5625 198 76.75C197.875 77.0625 197.781 77.4062 197.719 77.7812C197.656 78.0938 197.469 78.3125 197.156 78.4375C197.031 78.5625 196.875 78.625 196.688 78.625C196.5 78.5625 196.312 78.5625 196.125 78.625C195.438 78.8125 195 78.9375 194.812 79C194.625 79.125 194.438 79.25 194.25 79.375C194 79.375 193.781 79.3438 193.594 79.2812C193.469 79.2812 193.281 79.3438 193.031 79.4688C192.219 79.8438 191.625 79.9688 191.25 79.8438C190.875 79.7812 190.5 79.6875 190.125 79.5625C189.812 79.75 189.531 79.75 189.281 79.5625C189.031 79.375 188.781 79.2188 188.531 79.0938C187.844 79.0938 187.375 79.0938 187.125 79.0938C186.938 79.0938 186.781 79.0312 186.656 78.9062C186.094 79.0312 185.688 78.875 185.438 78.4375C185.188 78 184.875 77.6875 184.5 77.5C184.312 76.125 184.125 75.0938 183.938 74.4062C183.75 73.7188 183.562 72.9062 183.375 71.9688C183.375 71.4688 183.375 70.9688 183.375 70.4688C183.375 69.9062 183.469 69.4375 183.656 69.0625C183.719 68.4375 183.812 68.0625 183.938 67.9375C183.75 67.625 183.75 67.3125 183.938 67C184.188 66.6875 184.25 66.4062 184.125 66.1562C184.312 65.2188 184.469 64.5 184.594 64C184.719 63.4375 184.781 62.875 184.781 62.3125C185.094 62 185.25 61.5938 185.25 61.0938C185.312 60.5938 185.531 60.2188 185.906 59.9688C185.781 59.6562 185.812 59.3438 186 59.0312C186.25 58.7188 186.406 58.375 186.469 58C186.719 56.8125 186.75 55.875 186.562 55.1875C186.438 54.5 186.312 53.6562 186.188 52.6562C186.312 51.8438 186.312 51.25 186.188 50.875C186.062 50.4375 186.062 50 186.188 49.5625C186.062 49.3125 186.031 49.0312 186.094 48.7188C186.156 48.3438 186.125 48.0625 186 47.875C186.188 47.3125 186.281 46.8438 186.281 46.4688C186.344 46.0938 186.5 45.75 186.75 45.4375C186.812 44.625 186.938 43.9375 187.125 43.375C187.312 42.8125 187.469 42.25 187.594 41.6875C187.594 41.1875 187.562 40.8438 187.5 40.6562C187.5 40.4062 187.531 40.125 187.594 39.8125C187.719 39.5625 187.719 39.375 187.594 39.25C187.531 39.0625 187.531 38.9062 187.594 38.7812C187.594 38.2812 187.625 37.7812 187.688 37.2812C187.75 36.7812 187.844 36.2812 187.969 35.7812C187.844 35.0938 187.781 34.6875 187.781 34.5625C187.844 34.4375 187.812 34.3438 187.688 34.2812C187.875 33.1562 187.906 32.0938 187.781 31.0938C187.719 30.0312 187.812 28.9062 188.062 27.7188C187.812 27.2812 187.781 26.7812 187.969 26.2188C188.156 25.6562 188.156 25.2188 187.969 24.9062C188.031 24.0938 188.031 23.4688 187.969 23.0312C187.906 22.5938 187.781 22.25 187.594 22C187.281 21.5625 187.094 21.25 187.031 21.0625C186.719 20.875 186.438 20.6562 186.188 20.4062C186 20.1562 185.812 19.9062 185.625 19.6562C185.188 19.5312 184.812 19.3438 184.5 19.0938C184.188 18.8438 183.875 18.625 183.562 18.4375C183.25 17.875 183 17.3125 182.812 16.75C182.688 16.1875 182.562 15.5312 182.438 14.7812C182.625 14.5938 182.656 14.375 182.531 14.125C182.406 13.8125 182.406 13.5625 182.531 13.375C182.531 12.8125 182.531 12.2813 182.531 11.7812C182.531 11.2188 182.625 10.7187 182.812 10.2812C183.375 8.90625 184.344 8 185.719 7.5625C186.281 7.0625 186.969 6.75 187.781 6.625C188.594 6.4375 189.438 6.3125 190.312 6.25C191 6.25 191.531 6.28125 191.906 6.34375C192.281 6.40625 192.719 6.5 193.219 6.625C194.219 7.3125 195.094 7.90625 195.844 8.40625C196.594 8.84375 197.062 9.53125 197.25 10.4688C197.375 10.9062 197.25 11.375 196.875 11.875C196.562 12.3125 196.531 12.7812 196.781 13.2812ZM208.969 17.6875L205.688 17.5C205.125 17.5 204.656 17.5625 204.281 17.6875C203.906 17.75 203.5 17.8125 203.062 17.875C202 17.875 201.281 18.0312 200.906 18.3438C200.594 18.5938 200.281 18.875 199.969 19.1875C199.844 19.75 199.688 20.3438 199.5 20.9688C199.375 21.5312 199.219 22.0625 199.031 22.5625C199.094 22.875 199.031 23.125 198.844 23.3125C198.719 23.5 198.656 23.75 198.656 24.0625C198.844 24.25 198.906 24.4688 198.844 24.7188C198.781 24.9688 198.719 25.25 198.656 25.5625C198.656 25.8125 198.656 26.0625 198.656 26.3125C198.719 26.5 198.75 26.6875 198.75 26.875C198.75 27.25 198.688 27.625 198.562 28C198.438 28.3125 198.344 28.6875 198.281 29.125C198.219 29.5625 198.188 29.9688 198.188 30.3438C198.188 30.7188 198.125 31.0938 198 31.4688C198.125 31.9688 198.156 32.5 198.094 33.0625C198.094 33.625 198.094 34.1562 198.094 34.6562C198.031 34.8438 198.031 35.0312 198.094 35.2188C198.156 35.4062 198.156 35.5625 198.094 35.6875C197.844 36.6875 197.625 37.2812 197.438 37.4688C197.312 37.6562 197.219 37.9062 197.156 38.2188C197.094 38.5312 197.062 38.7812 197.062 38.9688C197.125 39.1562 197.156 39.3125 197.156 39.4375C196.719 39.8125 196.562 40.3438 196.688 41.0312C196.812 41.6562 196.812 42.25 196.688 42.8125C196.875 43.125 196.938 43.4375 196.875 43.75C196.875 44.0625 196.969 44.375 197.156 44.6875C197.406 45.1875 197.625 45.5 197.812 45.625C198.062 45.6875 198.375 45.7188 198.75 45.7188C199.562 45.9688 200.062 46.3125 200.25 46.75C200.5 47.1875 200.906 47.4688 201.469 47.5938C201.844 47.3438 202.219 47.0938 202.594 46.8438C202.844 46.7188 203.094 46.5938 203.344 46.4688C203.594 46.2812 203.812 46.125 204 46C204.688 45.8125 205.125 45.6875 205.312 45.625C205.562 45.5 205.781 45.5 205.969 45.625C206.719 45.3125 207.188 45.0938 207.375 44.9688C207.625 44.7812 207.906 44.75 208.219 44.875C209.219 44.5 210.062 44.4375 210.75 44.6875C211.438 44.9375 212.031 45.125 212.531 45.25C212.656 45.125 212.844 45.0312 213.094 44.9688C213.406 44.8438 213.656 44.8125 213.844 44.875C214.344 44.5 214.938 44.25 215.625 44.125C216.312 43.9375 216.938 43.6875 217.5 43.375C218.25 43.25 218.719 43.0938 218.906 42.9062C219.156 42.7188 219.438 42.5938 219.75 42.5312C220.125 42.2812 220.375 41.9375 220.5 41.5C220.688 41.0625 220.938 40.6875 221.25 40.375C221.688 39.5625 221.875 39.0312 221.812 38.7812C221.75 38.4688 221.75 38.125 221.812 37.75C222.062 36.9375 222.094 36.3125 221.906 35.875C221.781 35.4375 221.75 34.9688 221.812 34.4688C221.75 33.6562 221.688 33.1562 221.625 32.9688C221.562 32.7188 221.469 32.5 221.344 32.3125C221.219 32.125 221.094 31.9375 220.969 31.75C220.906 31.5625 220.906 31.3438 220.969 31.0938C220.469 30.0938 220.125 29.3438 219.938 28.8438C219.75 28.3438 219.5 27.875 219.188 27.4375C219.062 27.125 218.938 26.9062 218.812 26.7812C218.75 26.5938 218.781 26.4375 218.906 26.3125C218.469 26.125 218.312 25.7812 218.438 25.2812C217.75 24.4062 217.281 23.625 217.031 22.9375C216.281 21.5625 215.594 20.5312 214.969 19.8438C214.406 19.1562 213.625 18.8125 212.625 18.8125C212.25 18.6875 211.938 18.5312 211.688 18.3438C211.5 18.0938 211.25 18 210.938 18.0625C210.438 17.875 210.031 17.75 209.719 17.6875C209.469 17.5625 209.219 17.5625 208.969 17.6875ZM237.188 22.0938C237.062 21.5938 237.062 21.0625 237.188 20.5C237.312 19.9375 237.562 19.5312 237.938 19.2812C238.5 18.4688 238.906 18.0625 239.156 18.0625C239.469 18 239.781 17.8438 240.094 17.5938C240.656 17.7188 241.125 18.0312 241.5 18.5312C241.875 18.9688 242.031 19.5312 241.969 20.2188C241.844 20.6562 241.688 21 241.5 21.25C241.312 21.5 241.094 21.6875 240.844 21.8125C240.406 22.125 240 22.4375 239.625 22.75C239.312 23.0625 238.781 23.1562 238.031 23.0312C237.906 22.9062 237.781 22.75 237.656 22.5625C237.531 22.375 237.375 22.2188 237.188 22.0938ZM262.406 17.7812C262.906 17.8438 263.281 17.9375 263.531 18.0625C263.781 18.1875 264 18.3125 264.188 18.4375C264.375 18.4375 264.625 18.5 264.938 18.625C265.25 18.6875 265.5 18.7812 265.688 18.9062C265.938 19.0312 266.125 19.2188 266.25 19.4688C266.438 19.7188 266.688 19.9688 267 20.2188C267.25 20.4688 267.5 20.6562 267.75 20.7812C268.062 20.9062 268.312 21.125 268.5 21.4375C268.625 21.5625 268.719 21.75 268.781 22C268.906 22.1875 269.031 22.3438 269.156 22.4688C269.531 22.7188 269.906 22.9688 270.281 23.2188C270.719 23.4062 271.094 23.6562 271.406 23.9688C271.969 24.0938 272.312 24.25 272.438 24.4375C272.938 24.75 273.188 24.9375 273.188 25C273.25 25 273.281 25.0625 273.281 25.1875C273.781 25.3125 274.188 25.5312 274.5 25.8438C274.875 26.1562 275.281 26.4375 275.719 26.6875C276.031 27.125 276.531 27.5 277.219 27.8125C277.656 28.5625 278.188 29.2188 278.812 29.7812C279.438 30.3438 279.906 31.0312 280.219 31.8438C280.469 32.2188 280.625 32.4688 280.688 32.5938C280.812 32.7188 280.875 32.9062 280.875 33.1562C281.25 33.5938 281.531 34.0938 281.719 34.6562C281.969 35.2188 282.312 35.7188 282.75 36.1562C283.062 36.8438 283.219 37.375 283.219 37.75C283.406 38.125 283.562 38.5312 283.688 38.9688C283.875 39.3438 283.906 39.7188 283.781 40.0938C284.031 40.5938 284.125 41.1562 284.062 41.7812C284.062 42.4062 284.188 42.9062 284.438 43.2812C284.312 43.9062 284.219 44.3438 284.156 44.5938C284.156 44.7812 284.094 44.9375 283.969 45.0625C283.969 45.5625 283.969 45.9375 283.969 46.1875C283.969 46.4375 283.969 46.6875 283.969 46.9375C283.781 47.25 283.594 47.625 283.406 48.0625C283.281 48.4375 283.156 48.875 283.031 49.375C283.031 49.75 282.969 50.1875 282.844 50.6875C282.781 51.125 282.594 51.5 282.281 51.8125C282.281 52.0625 282.25 52.25 282.188 52.375C282.188 52.5 282.188 52.6562 282.188 52.8438C281.812 53.5312 281.531 54.1875 281.344 54.8125C281.156 55.375 280.906 56 280.594 56.6875L280.125 57.8125C280 58.0625 279.812 58.3125 279.562 58.5625C279.375 58.75 279.219 58.9688 279.094 59.2188C278.656 59.7812 278.406 60.1562 278.344 60.3438C278.344 60.5312 278.281 60.6875 278.156 60.8125C277.969 61.125 277.781 61.375 277.594 61.5625C277.406 61.6875 277.25 61.875 277.125 62.125C276.25 63.125 275.344 63.875 274.406 64.375C273.469 64.875 272.625 65.4688 271.875 66.1562C271.562 66.2812 271.344 66.4375 271.219 66.625C271.156 66.75 271.062 66.875 270.938 67C270.188 67.5 269.438 67.9062 268.688 68.2188C268 68.5312 267.312 68.875 266.625 69.25C266.25 69.25 265.844 69.375 265.406 69.625C264.969 69.8125 264.5 69.875 264 69.8125C263.688 70 263.188 70.0938 262.5 70.0938C261.812 70.0312 261.219 70.0312 260.719 70.0938C259.969 69.9688 259.406 69.9062 259.031 69.9062C258.656 69.8438 258.406 69.7188 258.281 69.5312C258.031 69.5938 257.781 69.5938 257.531 69.5312C257.344 69.4062 257.188 69.2812 257.062 69.1562C256.438 68.9062 255.938 68.8438 255.562 68.9688C255.188 69.0312 254.875 68.9688 254.625 68.7812C254.312 69.0312 254 69.0938 253.688 68.9688C253.375 68.8438 253.031 68.7812 252.656 68.7812C252.469 68.5938 252.219 68.4688 251.906 68.4062C251.594 68.3438 251.375 68.1875 251.25 67.9375C250.25 67.8125 249.594 67.5312 249.281 67.0938C248.906 66.9688 248.594 66.9062 248.344 66.9062C248.094 66.8438 247.938 66.6875 247.875 66.4375C247.312 66.3125 246.844 66.0625 246.469 65.6875C246.094 65.3125 245.625 65.0312 245.062 64.8438C244.938 64.6562 244.781 64.5312 244.594 64.4688C244.469 64.3438 244.375 64.1562 244.312 63.9062C244 63.7812 243.75 63.5938 243.562 63.3438C243.438 63.0312 243.281 62.7188 243.094 62.4062C242.781 62.2188 242.5 62 242.25 61.75C242 61.5 241.719 61.2812 241.406 61.0938C241.094 60.6562 240.812 60.3125 240.562 60.0625C240.375 59.8125 240.281 59.5312 240.281 59.2188C240.156 59.2188 239.969 59.125 239.719 58.9375C239.531 58.6875 239.5 58.5 239.625 58.375C239.25 58.125 238.938 57.75 238.688 57.25C238.438 56.6875 238.281 56.1562 238.219 55.6562C238.094 55.4688 238 55.25 237.938 55C237.938 54.75 237.844 54.5625 237.656 54.4375C237.406 53.5625 237.156 52.8125 236.906 52.1875C236.656 51.5 236.406 50.7812 236.156 50.0312C235.844 49.5938 235.531 49 235.219 48.25C234.906 47.5 234.969 46.7812 235.406 46.0938C235.281 45.8438 235.25 45.5625 235.312 45.25C235.375 44.9375 235.344 44.6875 235.219 44.5C235.344 44.125 235.375 43.7188 235.312 43.2812C235.25 42.7812 235.219 42.2812 235.219 41.7812C235.219 40.7188 235.469 39.7812 235.969 38.9688C236.094 38.2812 236.25 37.5625 236.438 36.8125C236.688 36.0625 237.031 35.4375 237.469 34.9375C237.531 34.8125 237.625 34.6562 237.75 34.4688C237.938 34.2812 238.094 34.1562 238.219 34.0938C238.156 33.7812 238.219 33.5312 238.406 33.3438C238.594 33.1562 238.75 32.9375 238.875 32.6875C238.938 32 239.156 31.4062 239.531 30.9062C239.906 30.4062 240.281 29.9062 240.656 29.4062C240.719 28.7188 240.906 28.1875 241.219 27.8125C241.531 27.375 241.719 26.8125 241.781 26.125C242.031 26 242.281 25.8125 242.531 25.5625C242.781 25.3125 242.875 25.0312 242.812 24.7188C243.438 24.3438 243.906 23.7812 244.219 23.0312C244.719 22.7812 245.188 22.5 245.625 22.1875C246.062 21.875 246.531 21.5625 247.031 21.25C247.594 20.75 247.938 20.4062 248.062 20.2188C248.25 19.9688 248.5 19.8438 248.812 19.8438C248.938 19.5938 249.125 19.4688 249.375 19.4688C249.688 19.4688 249.875 19.3125 249.938 19C250.625 19 251.031 18.9688 251.156 18.9062C251.281 18.7812 251.406 18.6875 251.531 18.625C251.781 18.6875 251.938 18.7188 252 18.7188C252.125 18.6562 252.312 18.5938 252.562 18.5312C253.562 18.4062 254.469 18.2812 255.281 18.1562C256.094 17.9688 256.875 18.0312 257.625 18.3438C257.938 18.3438 258.188 18.2812 258.375 18.1562C258.625 18.0312 258.969 18.0312 259.406 18.1562C259.594 18.0312 259.75 17.9062 259.875 17.7812C260 17.6562 260.188 17.5938 260.438 17.5938C261 17.9062 261.438 18.0625 261.75 18.0625C262.062 18 262.281 17.9062 262.406 17.7812ZM274.875 44.6875C274.938 44.0625 274.781 43.4375 274.406 42.8125C274.031 42.1875 273.875 41.5312 273.938 40.8438C273.688 40.5312 273.438 40.1562 273.188 39.7188C273 39.2812 272.906 38.8125 272.906 38.3125C272.656 37.875 272.406 37.5312 272.156 37.2812C271.969 37.0312 271.938 36.6562 272.062 36.1562C271.812 35.7188 271.688 35.1875 271.688 34.5625C271.75 34.0625 271.75 33.8125 271.688 33.8125C271.688 33.75 271.656 33.6562 271.594 33.5312C271.469 33.2188 271.344 32.9375 271.219 32.6875C271.094 32.4375 270.875 32.25 270.562 32.125C269.812 32.1875 269.375 32.2188 269.25 32.2188C269.188 32.1562 269.062 32.0938 268.875 32.0312C268.438 31.9062 268.062 31.8125 267.75 31.75C267.5 31.6875 267.312 31.5 267.188 31.1875C266.625 30.5625 266.125 30.1562 265.688 29.9688C265.25 29.7812 264.938 29.4375 264.75 28.9375C264.375 28.6875 264 28.4688 263.625 28.2812C263.25 28.0938 262.969 27.7812 262.781 27.3438C262.281 27.1562 261.938 26.9062 261.75 26.5938C261.125 26.3438 260.562 26.2812 260.062 26.4062C258.875 26.9062 257.906 27.2188 257.156 27.3438C256.469 27.4688 255.969 27.8438 255.656 28.4688C254.906 28.8438 254.156 29.1562 253.406 29.4062C252.656 29.5938 252.031 29.9688 251.531 30.5312C250.906 30.9062 250.375 31.1875 249.938 31.375C249.5 31.5625 249.031 31.75 248.531 31.9375C247.594 32.625 246.656 33.1562 245.719 33.5312C245.156 34.0312 244.656 34.5938 244.219 35.2188C243.781 35.8438 243.312 36.4688 242.812 37.0938C242.688 37.4688 242.594 37.875 242.531 38.3125C242.469 38.6875 242.375 39.0312 242.25 39.3438C242.375 39.5312 242.406 39.75 242.344 40C242.344 40.25 242.344 40.4688 242.344 40.6562C242.406 40.9062 242.5 41.125 242.625 41.3125C242.75 41.4375 242.75 41.5625 242.625 41.6875C243.125 43.4375 243.688 45.0312 244.312 46.4688C244.688 46.7188 244.906 47 244.969 47.3125C245.531 47.5625 245.906 48.1562 246.094 49.0938C246.594 49.4062 247.062 49.75 247.5 50.125C247.938 50.5 248.25 51 248.438 51.625C248.938 51.9375 249.344 52.5938 249.656 53.5938C249.844 53.7188 249.969 53.9062 250.031 54.1562C250.156 54.3438 250.281 54.5312 250.406 54.7188C251.156 55.1562 251.781 55.625 252.281 56.125C252.781 56.625 253.281 57.2188 253.781 57.9062C254.906 58.5938 256.094 58.9688 257.344 59.0312C258.656 59.0938 259.938 59.1875 261.188 59.3125C261.75 59.375 262.312 59.3438 262.875 59.2188C263.5 59.0938 264.062 59.0312 264.562 59.0312C265.062 58.8438 265.438 58.625 265.688 58.375C265.938 58.0625 266.312 57.8438 266.812 57.7188C267.125 57.2188 267.469 56.8438 267.844 56.5938C268.281 56.2812 268.688 56.0312 269.062 55.8438C269.375 55.7188 269.625 55.5938 269.812 55.4688C270 55.2812 270.25 55.125 270.562 55C271 54.3125 271.562 53.7812 272.25 53.4062C272.938 53.0312 273.438 52.5312 273.75 51.9062C274.312 50.9062 274.656 49.9688 274.781 49.0938C274.969 48.1562 275.125 47.25 275.25 46.375C275.062 46.25 274.969 46.0625 274.969 45.8125C274.969 45.5 275 45.1875 275.062 44.875L274.875 44.6875ZM248.719 37.75C248.969 38.375 248.812 39.0625 248.25 39.8125C248.188 39.9375 248 40.1562 247.688 40.4688C247.375 40.7812 247.125 40.9375 246.938 40.9375C246.625 41.0625 246.281 41.0625 245.906 40.9375C245.594 40.8125 245.344 40.6875 245.156 40.5625C245.031 40.25 244.938 39.9375 244.875 39.625C244.812 39.3125 244.875 39 245.062 38.6875C245.25 38.25 245.75 37.8438 246.562 37.4688C247.375 37.0938 248 37.0938 248.438 37.4688L248.719 37.75ZM269.344 47.4062C269.656 47.8438 269.688 48.1875 269.438 48.4375C269.25 48.6875 269.094 49 268.969 49.375C268.531 50.0625 268.188 50.4375 267.938 50.5C267.688 50.5625 267.438 50.625 267.188 50.6875C266.875 50.5 266.562 50.3438 266.25 50.2188C266 50.0312 265.812 49.75 265.688 49.375C265.562 48.875 265.625 48.4688 265.875 48.1562C266.188 47.8438 266.5 47.5625 266.812 47.3125C267.25 47.25 267.688 47.1875 268.125 47.125C268.625 47 269.031 47.0938 269.344 47.4062ZM260.25 51.3438C261.062 51.4062 261.781 51.5625 262.406 51.8125C263.094 52.0625 263.531 52.5 263.719 53.125C263.906 54.1875 263.594 54.9375 262.781 55.375C261.969 55.75 261.125 55.9688 260.25 56.0312C258.812 56.0312 257.844 55.6875 257.344 55C257.219 54.5625 257.25 54.25 257.438 54.0625C257.688 53.8125 257.875 53.5312 258 53.2188C258.5 52.8438 258.938 52.5625 259.312 52.375C259.688 52.125 260.062 51.875 260.438 51.625L260.25 51.3438ZM280.5 65.5C280.312 65.8125 280.094 66.125 279.844 66.4375C279.594 66.6875 279.25 66.8125 278.812 66.8125C278.5 66.8125 278.25 66.75 278.062 66.625C277.875 66.4375 277.688 66.25 277.5 66.0625C277.312 65.9375 277.125 65.8438 276.938 65.7812C276.75 65.7188 276.719 65.5312 276.844 65.2188C276.906 64.9688 277.031 64.8125 277.219 64.75C277.406 64.625 277.656 64.4688 277.969 64.2812C278.219 64.2188 278.656 64.0938 279.281 63.9062C279.906 63.7188 280.312 63.8438 280.5 64.2812C280.625 64.4688 280.625 64.6562 280.5 64.8438C280.375 64.9688 280.375 65.1875 280.5 65.5ZM310.406 19.2812C310.719 19.1562 310.938 19.1562 311.062 19.2812C311.188 19.4062 311.375 19.5 311.625 19.5625C312.062 20.25 312.219 20.7812 312.094 21.1562C311.969 21.5312 311.781 21.875 311.531 22.1875C311.219 22.3125 310.969 22.4688 310.781 22.6562C310.656 22.8438 310.5 23.0312 310.312 23.2188C309.625 23.6562 308.875 23.7188 308.062 23.4062C307.312 22.7812 307.188 22.0625 307.688 21.25C308.625 20.125 309.531 19.4688 310.406 19.2812ZM322.5 23.0312C322.375 22.8438 322.281 22.5312 322.219 22.0938C322.219 21.5938 322.312 21.1875 322.5 20.875C323.375 20.625 323.906 20.625 324.094 20.875C324.344 21.0625 324.625 21.25 324.938 21.4375C324.938 22.125 324.656 22.5938 324.094 22.8438C323.594 23.0938 323.062 23.1562 322.5 23.0312ZM327.094 22.5625C327.844 23 328.281 23.3438 328.406 23.5938C328.531 23.7812 328.625 24.0312 328.688 24.3438C328.875 25.2188 328.844 25.875 328.594 26.3125C328.281 26.4375 327.938 26.625 327.562 26.875C327.188 27.125 326.781 27.2188 326.344 27.1562C325.781 27.2812 325.406 27.1875 325.219 26.875C325.031 26.5625 324.906 26.25 324.844 25.9375C324.781 25.125 324.875 24.6562 325.125 24.5312C325.438 24.4062 325.531 24.1875 325.406 23.875C325.656 23.625 325.875 23.375 326.062 23.125C326.25 22.8125 326.594 22.625 327.094 22.5625ZM302.625 56.0312C302.562 55.3438 302.594 54.9062 302.719 54.7188C302.844 54.4688 302.875 54.1875 302.812 53.875C303.688 53.4375 304.312 53.2812 304.688 53.4062C305.062 53.5312 305.375 53.75 305.625 54.0625C305.875 54.375 306 54.75 306 55.1875C306.062 55.5625 305.969 55.9375 305.719 56.3125C305.594 56.5 305.438 56.6562 305.25 56.7812C305.125 56.8438 305 57 304.875 57.25C303.938 57.4375 303.375 57.375 303.188 57.0625C303.062 56.75 302.969 56.4375 302.906 56.125L302.625 56.0312ZM312.562 58.75C312.625 59.6875 312.094 60.1562 310.969 60.1562C310.531 59.6562 310.312 59.375 310.312 59.3125C310.375 59.1875 310.406 59.0312 310.406 58.8438C310.969 58.4688 311.406 58.3438 311.719 58.4688C312.031 58.5312 312.312 58.625 312.562 58.75ZM303.188 30.1562C304.188 29.8438 304.812 29.5312 305.062 29.2188C305.375 28.8438 305.75 28.6562 306.188 28.6562C306.75 28.2812 307.031 28.125 307.031 28.1875C307.094 28.25 307.156 28.25 307.219 28.1875C307.781 27.8125 308.188 27.625 308.438 27.625C308.75 27.5625 309.031 27.4688 309.281 27.3438C309.969 27.0938 310.344 27 310.406 27.0625C310.531 27.0625 310.656 27.0312 310.781 26.9688C311.656 26.5312 312.406 26.375 313.031 26.5C313.719 26.5625 314.375 26.5 315 26.3125C315.438 26.4375 315.906 26.5 316.406 26.5C316.969 26.5 317.5 26.5312 318 26.5938C318.562 26.5938 319.094 26.6562 319.594 26.7812C320.156 26.8438 320.625 27.0312 321 27.3438C321.562 27.3438 322 27.5625 322.312 28C322.938 28.375 323.25 28.5938 323.25 28.6562C323.938 29.1562 324.469 29.7812 324.844 30.5312C325.281 31.2812 325.75 31.9688 326.25 32.5938C326.688 33.2812 326.969 33.9062 327.094 34.4688C327.219 35.0312 327.438 35.5 327.75 35.875C327.625 37.0625 327.438 38.1875 327.188 39.25C327 40.3125 326.906 41.4375 326.906 42.625C326.906 43.125 326.938 43.6875 327 44.3125C327.062 44.875 327.062 45.4375 327 46C326.938 46.1875 326.875 46.375 326.812 46.5625C326.75 46.6875 326.688 46.8438 326.625 47.0312C326.375 47.7188 326.125 48.4375 325.875 49.1875C325.625 49.875 325.344 50.5625 325.031 51.25C324.406 51.75 323.969 52.1562 323.719 52.4688C323.531 52.7188 323.281 52.9375 322.969 53.125C322.594 53.8125 322.031 54.375 321.281 54.8125C320.594 55.1875 319.812 55.4375 318.938 55.5625C318.625 55.8125 318.312 55.9062 318 55.8438C317.75 55.7812 317.5 55.9062 317.25 56.2188C316.812 56.1562 316.406 56.2188 316.031 56.4062C315.719 56.5938 315.375 56.5312 315 56.2188C314.5 56.1562 314.031 56.0312 313.594 55.8438C313.219 55.5938 312.875 55.5 312.562 55.5625C312.375 55.4375 312.188 55.3438 312 55.2812C311.875 55.1562 311.656 55.0938 311.344 55.0938C310.781 54.7188 310.312 54.375 309.938 54.0625C309.625 53.6875 309.312 53.2812 309 52.8438C308.562 51.7812 308.188 51.0312 307.875 50.5938C307.562 50.1562 307.375 49.6875 307.312 49.1875C307.312 48.8125 307.281 48.4688 307.219 48.1562C307.219 47.8438 307.25 47.5312 307.312 47.2188C307.188 46.7812 307.156 46.3438 307.219 45.9062C307.281 45.4062 307.406 44.9375 307.594 44.5C307.781 44 308 43.5312 308.25 43.0938C308.5 42.6562 308.688 42.25 308.812 41.875C308.75 41.3125 308.938 40.9062 309.375 40.6562C309.812 40.3438 310.25 40.0625 310.688 39.8125C311 39.6875 311.406 39.5312 311.906 39.3438C312.469 39.1562 312.969 39.2188 313.406 39.5312C313.781 39.7188 314.125 39.875 314.438 40C314.812 40.5625 314.938 41.2188 314.812 41.9688C314.75 42.7188 314.656 43.3438 314.531 43.8438C314.656 44.5312 314.719 45.25 314.719 46C314.719 46.75 315.031 47.25 315.656 47.5C315.844 47.5625 316.031 47.5938 316.219 47.5938C316.406 47.5312 316.562 47.5938 316.688 47.7812C317 47.5938 317.281 47.4688 317.531 47.4062C317.781 47.3438 318 47.25 318.188 47.125C318.562 46.8125 318.781 46.4375 318.844 46C318.906 45.5625 319.094 45.125 319.406 44.6875C319.594 43.9375 319.812 43.3125 320.062 42.8125C320.375 42.3125 320.531 41.75 320.531 41.125C320.531 40.8125 320.469 40.5312 320.344 40.2812C320.281 39.9688 320.25 39.6562 320.25 39.3438C319.938 38.9062 319.719 38.4688 319.594 38.0312C319.469 37.5938 319.344 37.1562 319.219 36.7188C318.656 36.2812 317.938 35.9062 317.062 35.5938C316.188 35.2812 315.406 34.875 314.719 34.375C314.031 34.4375 313.25 34.5625 312.375 34.75C311.562 34.875 310.812 35.0938 310.125 35.4062C309.812 35.7188 309.438 35.9688 309 36.1562C308.562 36.3438 308.094 36.5312 307.594 36.7188C307.281 37.0312 307 37.3438 306.75 37.6562C306.562 37.9062 306.281 38.0938 305.906 38.2188C305.219 38.9688 304.688 39.5312 304.312 39.9062C303.938 40.2812 303.594 40.7188 303.281 41.2188C303.156 41.5938 303.031 41.9688 302.906 42.3438C302.844 42.6562 302.75 42.9688 302.625 43.2812C302.562 43.7188 302.531 44.125 302.531 44.5C302.531 44.875 302.469 45.3125 302.344 45.8125C302.656 46.375 302.656 46.9375 302.344 47.5C302.094 48.6875 301.844 49.5938 301.594 50.2188C301.406 50.8438 301.25 51.4688 301.125 52.0938C301 52.8438 300.906 53.2812 300.844 53.4062C300.781 53.5312 300.75 53.6562 300.75 53.7812C300.688 54.2812 300.719 54.7812 300.844 55.2812C300.969 55.7812 301.062 56.2812 301.125 56.7812V58.2812C301.5 58.9062 301.75 59.6562 301.875 60.5312C302 61.3438 302.219 62.125 302.531 62.875C302.531 63.6875 302.625 64.2812 302.812 64.6562C303 64.9688 303.062 65.4688 303 66.1562C303.125 66.5938 303.188 67.0938 303.188 67.6562C303.25 68.1562 303.344 68.6875 303.469 69.25C303.906 70.375 303.844 71.25 303.281 71.875C302.781 72.5 302.312 73.1562 301.875 73.8438C301.562 73.9688 301.25 74.0938 300.938 74.2188C300.688 74.2812 300.438 74.4375 300.188 74.6875C299.688 74.625 299.312 74.7188 299.062 74.9688C298.625 74.9062 298.281 74.9062 298.031 74.9688C297.844 75.0312 297.594 75.0938 297.281 75.1562C297.094 75.0938 296.906 75.0312 296.719 74.9688C296.531 74.8438 296.312 74.7812 296.062 74.7812C295.438 74.7812 294.969 74.6875 294.656 74.5C294.406 74.3125 294.188 74.1562 294 74.0312C293.5 74.0312 293.094 73.875 292.781 73.5625C292.344 73.1875 291.906 72.875 291.469 72.625C291.094 72.3125 290.812 71.9375 290.625 71.5C290.562 71.0625 290.469 70.6875 290.344 70.375C290.281 70.0625 290.219 69.75 290.156 69.4375C290.219 68.6875 290.281 67.9688 290.344 67.2812C290.469 66.5938 290.625 66.0938 290.812 65.7812C291.125 65.4062 291.281 65.1562 291.281 65.0312C291.344 64.8438 291.438 64.7188 291.562 64.6562C291.812 63.9688 292.062 63.25 292.312 62.5C292.562 61.6875 292.781 60.9375 292.969 60.25C293.031 60 293.094 59.7812 293.156 59.5938C293.281 59.4062 293.344 59.2188 293.344 59.0312C293.344 58.8438 293.312 58.6562 293.25 58.4688C293.188 58.2812 293.188 58.125 293.25 58C293.312 57.6875 293.375 57.4062 293.438 57.1562C293.562 56.8438 293.625 56.5312 293.625 56.2188C293.625 55.6562 293.656 55.25 293.719 55C293.719 54.75 293.688 54.5312 293.625 54.3438C293.562 54.0938 293.5 53.8125 293.438 53.5C293.312 53.0625 293.219 52.6875 293.156 52.375C293.156 52.0625 293.094 51.7188 292.969 51.3438C292.969 50.5312 292.875 49.8438 292.688 49.2812C292.562 48.6562 292.562 48.1562 292.688 47.7812C292.312 46.7812 292.125 45.9375 292.125 45.25C292.188 44.5 292.062 43.9375 291.75 43.5625C291.625 42.875 291.531 42.25 291.469 41.6875C291.469 41.125 291.531 40.5625 291.656 40C291.531 39.625 291.469 39.2188 291.469 38.7812C291.531 38.3438 291.5 37.9062 291.375 37.4688C291.25 36.4062 291.188 35.4375 291.188 34.5625C291.188 33.6875 290.969 32.9688 290.531 32.4062C290.219 31.5312 289.875 30.875 289.5 30.4375C289.125 30 288.781 29.6875 288.469 29.5C288.406 29.1875 288.188 28.875 287.812 28.5625C287.5 28.1875 287.312 27.8438 287.25 27.5312C287.188 26.9062 287.438 26.3125 288 25.75C288.312 24.75 288.594 23.9375 288.844 23.3125C289.156 22.625 289.469 21.9375 289.781 21.25C290.469 21.0625 291.25 20.9062 292.125 20.7812C293 20.6562 293.875 20.6562 294.75 20.7812C295.625 20.5938 296.469 20.4062 297.281 20.2188C298.156 19.9688 298.938 19.875 299.625 19.9375C300.125 19.9375 300.531 20.1562 300.844 20.5938C301.219 20.9688 301.656 21.25 302.156 21.4375C302.469 21.9375 302.688 22.4062 302.812 22.8438C303 23.2812 303.031 23.7188 302.906 24.1562C303.219 25.0312 303.344 26 303.281 27.0625C303.219 28.125 303.188 29.1562 303.188 30.1562ZM348.656 15.7188C349.219 15.8438 349.781 16.0625 350.344 16.375C350.469 16.5 350.531 16.7188 350.531 17.0312C350.594 17.2812 350.688 17.4688 350.812 17.5938C350.75 18.4062 350.531 18.9688 350.156 19.2812C349.844 19.5312 349.469 19.7188 349.031 19.8438C348.594 19.9062 348.125 19.875 347.625 19.75C347.188 19.625 346.844 19.375 346.594 19C346.531 18.75 346.469 18.5312 346.406 18.3438C346.344 18.0938 346.312 17.8125 346.312 17.5C346.438 17.1875 346.594 16.9375 346.781 16.75C347.031 16.5 347.281 16.25 347.531 16C347.719 15.9375 347.906 15.9062 348.094 15.9062C348.344 15.8438 348.531 15.7812 348.656 15.7188ZM345.469 23.9688C345.406 23.6562 345.344 23.4375 345.281 23.3125C345.219 23.1875 345.219 23.0312 345.281 22.8438C345.406 22.4062 345.719 22.2812 346.219 22.4688C346.719 22.5938 347 22.7812 347.062 23.0312C347.125 23.4062 346.938 23.75 346.5 24.0625C346.125 24.3125 345.781 24.2812 345.469 23.9688ZM348.188 39.625C348.312 38.875 348.656 38.1875 349.219 37.5625C349.781 36.9375 350.5 36.7188 351.375 36.9062C351.562 37.0312 351.719 37.1875 351.844 37.375C351.969 37.5 352.094 37.625 352.219 37.75C352.406 38.25 352.375 38.7188 352.125 39.1562C351.938 39.5312 351.781 39.9062 351.656 40.2812C351.219 40.6562 350.844 40.9062 350.531 41.0312C350.281 41.0938 350 41.125 349.688 41.125C349.438 41.0625 349.188 40.9688 348.938 40.8438C348.75 40.7188 348.656 40.5 348.656 40.1875L348.188 39.625ZM357.75 38.875C358.062 39.0625 358.219 39.3125 358.219 39.625C358.281 39.9375 358.25 40.25 358.125 40.5625C358 40.875 357.812 41.1562 357.562 41.4062C357.312 41.5938 357.062 41.6562 356.812 41.5938C356.625 41.4688 356.5 41.3125 356.438 41.125C356.375 40.875 356.281 40.6875 356.156 40.5625C356.219 39.4375 356.75 38.875 357.75 38.875ZM373.781 60.0625C373.406 60.125 373.125 60.125 372.938 60.0625C372.75 59.9375 372.562 59.8125 372.375 59.6875C372.125 59.5625 371.906 59.5 371.719 59.5C371.594 59.5 371.469 59.4375 371.344 59.3125C371.219 59.1875 371.125 59.0312 371.062 58.8438C371.062 58.5938 371.062 58.4062 371.062 58.2812C371.125 57.9062 371.281 57.4688 371.531 56.9688C371.844 56.4688 372.188 56.1562 372.562 56.0312C373.312 55.7188 373.938 55.9062 374.438 56.5938C374.938 57.2812 375.156 58.0625 375.094 58.9375C374.844 59.125 374.594 59.3125 374.344 59.5C374.156 59.6875 373.969 59.875 373.781 60.0625ZM342.094 28.2812C341.781 28.7812 341.688 29.4062 341.812 30.1562C341.938 30.8438 342.125 31.4375 342.375 31.9375C342.75 31.5625 343.062 31.2812 343.312 31.0938C343.625 30.8438 343.906 30.5625 344.156 30.25C344.344 29.75 344.531 29.375 344.719 29.125C344.906 28.875 345.156 28.6875 345.469 28.5625C345.594 28.375 345.75 28.1875 345.938 28C346.125 27.8125 346.344 27.6562 346.594 27.5312C346.719 27.0312 347.062 26.7188 347.625 26.5938C348.25 26.4688 348.812 26.375 349.312 26.3125C349.438 26.125 349.594 26 349.781 25.9375C350.031 25.8125 350.219 25.6562 350.344 25.4688C350.906 25.4688 351.375 25.375 351.75 25.1875C352.125 24.9375 352.562 24.9062 353.062 25.0938C353.5 24.7812 354.031 24.625 354.656 24.625C355.344 24.5625 355.938 24.4688 356.438 24.3438C357.312 24.2812 357.969 24.2812 358.406 24.3438C358.906 24.3438 359.406 24.2812 359.906 24.1562C360.906 24.2188 361.5 24.3438 361.688 24.5312C362.938 24.4688 363.844 24.7188 364.406 25.2812C365.031 25.2188 365.5 25.3438 365.812 25.6562C366.188 25.9062 366.719 26.0938 367.406 26.2188C367.906 26.8438 368.344 27.2188 368.719 27.3438C369.094 27.4688 369.344 27.7188 369.469 28.0938C369.594 28.4062 369.625 28.7812 369.562 29.2188C369.5 29.5938 369.594 29.9375 369.844 30.25C369.781 30.5625 369.812 30.9062 369.938 31.2812C370.062 31.6562 370.156 32.0625 370.219 32.5C370.156 32.875 370.156 33.125 370.219 33.25C370.344 33.3125 370.438 33.4062 370.5 33.5312C370.562 33.7812 370.562 34 370.5 34.1875C370.5 34.3125 370.594 34.4375 370.781 34.5625C370.719 35.125 370.844 35.5938 371.156 35.9688C371.531 36.3438 371.75 36.7812 371.812 37.2812C371.625 38.2188 371.531 38.875 371.531 39.25C371.531 39.5625 371.469 39.875 371.344 40.1875C371.094 41 370.938 41.8125 370.875 42.625C370.812 43.375 370.625 44.0312 370.312 44.5938C370.312 45.1562 370.219 45.625 370.031 46C369.906 46.375 369.875 46.7812 369.938 47.2188C369.938 47.5312 369.938 47.8438 369.938 48.1562C370 48.4062 369.938 48.625 369.75 48.8125C369.688 49.3125 369.625 49.6875 369.562 49.9375C369.5 50.1875 369.406 50.4375 369.281 50.6875C369.531 51.1875 369.625 51.7188 369.562 52.2812C369.562 52.7812 369.469 53.2812 369.281 53.7812C369.094 54.2812 368.875 54.7812 368.625 55.2812C368.375 55.7188 368.156 56.1562 367.969 56.5938C367.781 57.4688 367.625 58.25 367.5 58.9375C367.375 59.625 367.469 60.4062 367.781 61.2812C368.156 61.6562 368.562 61.7812 369 61.6562C369.562 62.1562 370.125 62.4375 370.688 62.5C370.875 62.5625 371.094 62.5625 371.344 62.5C371.594 62.4375 371.781 62.4375 371.906 62.5C372.531 62.5 373.031 62.6875 373.406 63.0625C373.719 63.375 373.844 63.75 373.781 64.1875C373.781 64.5625 373.812 65 373.875 65.5C373.875 65.875 373.938 66.2812 374.062 66.7188C374.188 67.0938 374.281 67.5312 374.344 68.0312C374.406 68.7188 374.312 69.2812 374.062 69.7188C373.875 70.1562 373.625 70.625 373.312 71.125C373.125 71.25 372.969 71.4375 372.844 71.6875C372.719 71.9375 372.562 72.125 372.375 72.25C371.938 72.875 371.625 73.3125 371.438 73.5625C371.312 73.8125 371.094 74 370.781 74.125C370.281 74.25 369.719 74.3438 369.094 74.4062C368.531 74.4062 368.031 74.2812 367.594 74.0312C366.969 73.9688 366.438 73.9375 366 73.9375C365.562 73.875 365.25 73.6875 365.062 73.375C364.062 73.1875 363.406 72.8125 363.094 72.25C362.406 71.9375 361.75 71.625 361.125 71.3125C360.562 71 360.156 70.5 359.906 69.8125C359.781 69.6875 359.625 69.5312 359.438 69.3438C359.25 69.1562 359.156 68.9062 359.156 68.5938C359.031 68.4688 358.969 68.3125 358.969 68.125C358.969 67.875 358.938 67.5938 358.875 67.2812C358.875 67.0312 358.844 66.8125 358.781 66.625C358.719 66.4375 358.75 66.3125 358.875 66.25C358.625 65.9375 358.5 65.5 358.5 64.9375C358.562 64.375 358.656 63.9375 358.781 63.625C358.781 63.25 358.75 62.9062 358.688 62.5938C358.688 62.2812 358.844 62.0625 359.156 61.9375C359.281 61.1875 359.312 60.4062 359.25 59.5938C359.25 58.7812 359.031 58.0312 358.594 57.3438C358.719 57.0938 358.719 56.8438 358.594 56.5938C358.531 56.3438 358.562 56.125 358.688 55.9375C358.438 55.4375 358.406 54.9062 358.594 54.3438C358.844 53.7812 359.031 53.25 359.156 52.75C359.281 52.4375 359.312 52.125 359.25 51.8125C359.25 51.5 359.375 51.1875 359.625 50.875C359.625 50.0625 359.75 49.4062 360 48.9062C360.5 48.2188 360.781 47.8125 360.844 47.6875C360.906 47.5 360.969 47.2812 361.031 47.0312C361.344 46.7188 361.5 46.2812 361.5 45.7188C361.562 45.0938 361.656 44.5 361.781 43.9375C361.844 43.6875 361.875 43.3438 361.875 42.9062C362 41.7188 361.875 40.875 361.5 40.375C361.125 39.8125 360.906 39.25 360.844 38.6875C360.656 38.5625 360.5 38.4375 360.375 38.3125C360.312 38.1875 360.156 38.0938 359.906 38.0312C359.781 37.9062 359.656 37.75 359.531 37.5625C359.406 37.375 359.25 37.2812 359.062 37.2812C358.5 36.6562 358.156 36.2812 358.031 36.1562C357.906 35.9688 357.781 35.8125 357.656 35.6875C356.906 35.125 356.219 34.6562 355.594 34.2812C354.969 33.9062 354.312 33.5 353.625 33.0625C353.312 33.0625 353 33.0625 352.688 33.0625C352.438 33.0625 352.156 33.0938 351.844 33.1562C351.719 33.4062 351.5 33.5312 351.188 33.5312C350.938 33.5312 350.719 33.5625 350.531 33.625C350.156 33.75 349.844 33.9375 349.594 34.1875C349.344 34.4375 349.062 34.625 348.75 34.75C348.188 35.1875 347.938 35.4375 348 35.5C348.062 35.5 348.094 35.5625 348.094 35.6875C347.844 35.8125 347.656 36.0312 347.531 36.3438C347.406 36.5938 347.188 36.8438 346.875 37.0938C346.75 37.4062 346.656 37.7188 346.594 38.0312C346.531 38.2812 346.438 38.5625 346.312 38.875C345.938 39.5 345.75 39.9375 345.75 40.1875C345.75 40.375 345.688 40.5625 345.562 40.75C345.125 41.4375 344.906 42.0938 344.906 42.7188C344.906 43.2812 344.75 43.8125 344.438 44.3125C344.438 45.0625 344.594 45.625 344.906 46C345.219 46.375 345.344 46.9375 345.281 47.6875C345.281 48.1875 345.156 48.7812 344.906 49.4688C344.656 50.0938 344.688 50.6562 345 51.1562C344.875 51.5312 344.812 51.9062 344.812 52.2812C344.875 52.5938 344.812 52.9375 344.625 53.3125C344.875 54 344.844 54.5938 344.531 55.0938C344.469 55.5938 344.5 55.9375 344.625 56.125C344.75 56.3125 344.875 56.5625 345 56.875C345.125 57.375 345.188 57.8438 345.188 58.2812C345.188 58.7188 345.375 59.0312 345.75 59.2188C345.875 59.5312 345.969 59.8438 346.031 60.1562C346.156 60.4688 346.281 60.8438 346.406 61.2812C346.594 61.9062 346.625 62.4688 346.5 62.9688C346.438 63.4062 346.25 63.7812 345.938 64.0938C345.562 64.9688 345.125 65.6875 344.625 66.25C344.125 66.8125 343.562 67.375 342.938 67.9375C342.625 67.9375 342.375 68.0312 342.188 68.2188C342.062 68.3438 341.906 68.4688 341.719 68.5938C341.281 68.5938 340.906 68.6875 340.594 68.875C340.281 69.0625 339.906 69.2188 339.469 69.3438C337.906 69.0312 336.656 68.5 335.719 67.75C334.781 66.9375 334.031 65.9062 333.469 64.6562C333.156 64.0312 332.969 63.4062 332.906 62.7812C332.906 62.1562 332.844 61.5938 332.719 61.0938C332.906 60.7812 333 60.4688 333 60.1562C333.062 59.7812 333.156 59.4375 333.281 59.125C333.656 58.25 333.812 57.5625 333.75 57.0625C333.75 56.5625 333.844 56.1562 334.031 55.8438C333.969 55.6562 333.969 55.4688 334.031 55.2812C334.156 55.0312 334.219 54.7812 334.219 54.5312C334.156 54.4062 334.094 54.25 334.031 54.0625C333.969 53.8125 334.031 53.625 334.219 53.5C334.406 52.5625 334.406 51.5625 334.219 50.5C334.094 49.4375 333.938 48.4688 333.75 47.5938C333.938 47.1562 333.969 46.7812 333.844 46.4688C333.719 46.1562 333.688 45.8438 333.75 45.5312C333.5 44.8438 333.438 44.1875 333.562 43.5625C333.688 42.875 333.625 42.2188 333.375 41.5938C333.5 41.4062 333.531 41.1875 333.469 40.9375C333.406 40.6875 333.375 40.4375 333.375 40.1875C333.438 39.8125 333.531 39.4688 333.656 39.1562C333.781 38.8438 333.906 38.5 334.031 38.125C334.156 37.625 334.219 37.125 334.219 36.625C334.281 36.125 334.344 35.625 334.406 35.125C334.531 34.3125 334.625 33.875 334.688 33.8125C334.75 33.625 334.75 33.4375 334.688 33.25C334.688 33.0625 334.719 32.8438 334.781 32.5938C334.781 32.4062 334.781 32.2188 334.781 32.0312C334.844 31.7812 334.875 31.5625 334.875 31.375C334.5 30.5625 334.281 29.9688 334.219 29.5938C334.219 29.1562 334.125 28.75 333.938 28.375C333.438 27.9375 333 27.4062 332.625 26.7812C332.25 26.0938 332 25.3125 331.875 24.4375C331.812 23.875 331.812 23.4062 331.875 23.0312C331.938 22.5938 332.125 22.2188 332.438 21.9062C333.125 21.5938 333.531 21.375 333.656 21.25C333.781 21.125 333.938 21.0938 334.125 21.1562C334.625 20.4688 335.031 20.0938 335.344 20.0312C335.656 19.9062 335.906 19.75 336.094 19.5625C336.406 19.625 336.625 19.625 336.75 19.5625C336.938 19.5 337.125 19.5312 337.312 19.6562C337.625 19.6562 337.906 19.6562 338.156 19.6562C338.406 19.5938 338.656 19.625 338.906 19.75C339.531 20.25 339.938 20.5 340.125 20.5C340.375 20.5 340.562 20.5625 340.688 20.6875C340.812 20.75 340.938 20.875 341.062 21.0625C341.25 21.25 341.438 21.375 341.625 21.4375C341.812 22.0625 341.875 22.4062 341.812 22.4688C342.062 22.7812 342.219 23.1875 342.281 23.6875C342.344 24.125 342.5 24.5 342.75 24.8125C342.625 25.4375 342.406 26.0312 342.094 26.5938C341.844 27.1562 341.844 27.7188 342.094 28.2812ZM380.625 22.0938C380.5 21.5938 380.5 21.0625 380.625 20.5C380.75 19.9375 381 19.5312 381.375 19.2812C381.938 18.4688 382.344 18.0625 382.594 18.0625C382.906 18 383.219 17.8438 383.531 17.5938C384.094 17.7188 384.562 18.0312 384.938 18.5312C385.312 18.9688 385.469 19.5312 385.406 20.2188C385.281 20.6562 385.125 21 384.938 21.25C384.75 21.5 384.531 21.6875 384.281 21.8125C383.844 22.125 383.438 22.4375 383.062 22.75C382.75 23.0625 382.219 23.1562 381.469 23.0312C381.344 22.9062 381.219 22.75 381.094 22.5625C380.969 22.375 380.812 22.2188 380.625 22.0938ZM405.844 17.7812C406.344 17.8438 406.719 17.9375 406.969 18.0625C407.219 18.1875 407.438 18.3125 407.625 18.4375C407.812 18.4375 408.062 18.5 408.375 18.625C408.688 18.6875 408.938 18.7812 409.125 18.9062C409.375 19.0312 409.562 19.2188 409.688 19.4688C409.875 19.7188 410.125 19.9688 410.438 20.2188C410.688 20.4688 410.938 20.6562 411.188 20.7812C411.5 20.9062 411.75 21.125 411.938 21.4375C412.062 21.5625 412.156 21.75 412.219 22C412.344 22.1875 412.469 22.3438 412.594 22.4688C412.969 22.7188 413.344 22.9688 413.719 23.2188C414.156 23.4062 414.531 23.6562 414.844 23.9688C415.406 24.0938 415.75 24.25 415.875 24.4375C416.375 24.75 416.625 24.9375 416.625 25C416.688 25 416.719 25.0625 416.719 25.1875C417.219 25.3125 417.625 25.5312 417.938 25.8438C418.312 26.1562 418.719 26.4375 419.156 26.6875C419.469 27.125 419.969 27.5 420.656 27.8125C421.094 28.5625 421.625 29.2188 422.25 29.7812C422.875 30.3438 423.344 31.0312 423.656 31.8438C423.906 32.2188 424.062 32.4688 424.125 32.5938C424.25 32.7188 424.312 32.9062 424.312 33.1562C424.688 33.5938 424.969 34.0938 425.156 34.6562C425.406 35.2188 425.75 35.7188 426.188 36.1562C426.5 36.8438 426.656 37.375 426.656 37.75C426.844 38.125 427 38.5312 427.125 38.9688C427.312 39.3438 427.344 39.7188 427.219 40.0938C427.469 40.5938 427.562 41.1562 427.5 41.7812C427.5 42.4062 427.625 42.9062 427.875 43.2812C427.75 43.9062 427.656 44.3438 427.594 44.5938C427.594 44.7812 427.531 44.9375 427.406 45.0625C427.406 45.5625 427.406 45.9375 427.406 46.1875C427.406 46.4375 427.406 46.6875 427.406 46.9375C427.219 47.25 427.031 47.625 426.844 48.0625C426.719 48.4375 426.594 48.875 426.469 49.375C426.469 49.75 426.406 50.1875 426.281 50.6875C426.219 51.125 426.031 51.5 425.719 51.8125C425.719 52.0625 425.688 52.25 425.625 52.375C425.625 52.5 425.625 52.6562 425.625 52.8438C425.25 53.5312 424.969 54.1875 424.781 54.8125C424.594 55.375 424.344 56 424.031 56.6875L423.562 57.8125C423.438 58.0625 423.25 58.3125 423 58.5625C422.812 58.75 422.656 58.9688 422.531 59.2188C422.094 59.7812 421.844 60.1562 421.781 60.3438C421.781 60.5312 421.719 60.6875 421.594 60.8125C421.406 61.125 421.219 61.375 421.031 61.5625C420.844 61.6875 420.688 61.875 420.562 62.125C419.688 63.125 418.781 63.875 417.844 64.375C416.906 64.875 416.062 65.4688 415.312 66.1562C415 66.2812 414.781 66.4375 414.656 66.625C414.594 66.75 414.5 66.875 414.375 67C413.625 67.5 412.875 67.9062 412.125 68.2188C411.438 68.5312 410.75 68.875 410.062 69.25C409.688 69.25 409.281 69.375 408.844 69.625C408.406 69.8125 407.938 69.875 407.438 69.8125C407.125 70 406.625 70.0938 405.938 70.0938C405.25 70.0312 404.656 70.0312 404.156 70.0938C403.406 69.9688 402.844 69.9062 402.469 69.9062C402.094 69.8438 401.844 69.7188 401.719 69.5312C401.469 69.5938 401.219 69.5938 400.969 69.5312C400.781 69.4062 400.625 69.2812 400.5 69.1562C399.875 68.9062 399.375 68.8438 399 68.9688C398.625 69.0312 398.312 68.9688 398.062 68.7812C397.75 69.0312 397.438 69.0938 397.125 68.9688C396.812 68.8438 396.469 68.7812 396.094 68.7812C395.906 68.5938 395.656 68.4688 395.344 68.4062C395.031 68.3438 394.812 68.1875 394.688 67.9375C393.688 67.8125 393.031 67.5312 392.719 67.0938C392.344 66.9688 392.031 66.9062 391.781 66.9062C391.531 66.8438 391.375 66.6875 391.312 66.4375C390.75 66.3125 390.281 66.0625 389.906 65.6875C389.531 65.3125 389.062 65.0312 388.5 64.8438C388.375 64.6562 388.219 64.5312 388.031 64.4688C387.906 64.3438 387.812 64.1562 387.75 63.9062C387.438 63.7812 387.188 63.5938 387 63.3438C386.875 63.0312 386.719 62.7188 386.531 62.4062C386.219 62.2188 385.938 62 385.688 61.75C385.438 61.5 385.156 61.2812 384.844 61.0938C384.531 60.6562 384.25 60.3125 384 60.0625C383.812 59.8125 383.719 59.5312 383.719 59.2188C383.594 59.2188 383.406 59.125 383.156 58.9375C382.969 58.6875 382.938 58.5 383.062 58.375C382.688 58.125 382.375 57.75 382.125 57.25C381.875 56.6875 381.719 56.1562 381.656 55.6562C381.531 55.4688 381.438 55.25 381.375 55C381.375 54.75 381.281 54.5625 381.094 54.4375C380.844 53.5625 380.594 52.8125 380.344 52.1875C380.094 51.5 379.844 50.7812 379.594 50.0312C379.281 49.5938 378.969 49 378.656 48.25C378.344 47.5 378.406 46.7812 378.844 46.0938C378.719 45.8438 378.688 45.5625 378.75 45.25C378.812 44.9375 378.781 44.6875 378.656 44.5C378.781 44.125 378.812 43.7188 378.75 43.2812C378.688 42.7812 378.656 42.2812 378.656 41.7812C378.656 40.7188 378.906 39.7812 379.406 38.9688C379.531 38.2812 379.688 37.5625 379.875 36.8125C380.125 36.0625 380.469 35.4375 380.906 34.9375C380.969 34.8125 381.062 34.6562 381.188 34.4688C381.375 34.2812 381.531 34.1562 381.656 34.0938C381.594 33.7812 381.656 33.5312 381.844 33.3438C382.031 33.1562 382.188 32.9375 382.312 32.6875C382.375 32 382.594 31.4062 382.969 30.9062C383.344 30.4062 383.719 29.9062 384.094 29.4062C384.156 28.7188 384.344 28.1875 384.656 27.8125C384.969 27.375 385.156 26.8125 385.219 26.125C385.469 26 385.719 25.8125 385.969 25.5625C386.219 25.3125 386.312 25.0312 386.25 24.7188C386.875 24.3438 387.344 23.7812 387.656 23.0312C388.156 22.7812 388.625 22.5 389.062 22.1875C389.5 21.875 389.969 21.5625 390.469 21.25C391.031 20.75 391.375 20.4062 391.5 20.2188C391.688 19.9688 391.938 19.8438 392.25 19.8438C392.375 19.5938 392.562 19.4688 392.812 19.4688C393.125 19.4688 393.312 19.3125 393.375 19C394.062 19 394.469 18.9688 394.594 18.9062C394.719 18.7812 394.844 18.6875 394.969 18.625C395.219 18.6875 395.375 18.7188 395.438 18.7188C395.562 18.6562 395.75 18.5938 396 18.5312C397 18.4062 397.906 18.2812 398.719 18.1562C399.531 17.9688 400.312 18.0312 401.062 18.3438C401.375 18.3438 401.625 18.2812 401.812 18.1562C402.062 18.0312 402.406 18.0312 402.844 18.1562C403.031 18.0312 403.188 17.9062 403.312 17.7812C403.438 17.6562 403.625 17.5938 403.875 17.5938C404.438 17.9062 404.875 18.0625 405.188 18.0625C405.5 18 405.719 17.9062 405.844 17.7812ZM418.312 44.6875C418.375 44.0625 418.219 43.4375 417.844 42.8125C417.469 42.1875 417.312 41.5312 417.375 40.8438C417.125 40.5312 416.875 40.1562 416.625 39.7188C416.438 39.2812 416.344 38.8125 416.344 38.3125C416.094 37.875 415.844 37.5312 415.594 37.2812C415.406 37.0312 415.375 36.6562 415.5 36.1562C415.25 35.7188 415.125 35.1875 415.125 34.5625C415.188 34.0625 415.188 33.8125 415.125 33.8125C415.125 33.75 415.094 33.6562 415.031 33.5312C414.906 33.2188 414.781 32.9375 414.656 32.6875C414.531 32.4375 414.312 32.25 414 32.125C413.25 32.1875 412.812 32.2188 412.688 32.2188C412.625 32.1562 412.5 32.0938 412.312 32.0312C411.875 31.9062 411.5 31.8125 411.188 31.75C410.938 31.6875 410.75 31.5 410.625 31.1875C410.062 30.5625 409.562 30.1562 409.125 29.9688C408.688 29.7812 408.375 29.4375 408.188 28.9375C407.812 28.6875 407.438 28.4688 407.062 28.2812C406.688 28.0938 406.406 27.7812 406.219 27.3438C405.719 27.1562 405.375 26.9062 405.188 26.5938C404.562 26.3438 404 26.2812 403.5 26.4062C402.312 26.9062 401.344 27.2188 400.594 27.3438C399.906 27.4688 399.406 27.8438 399.094 28.4688C398.344 28.8438 397.594 29.1562 396.844 29.4062C396.094 29.5938 395.469 29.9688 394.969 30.5312C394.344 30.9062 393.812 31.1875 393.375 31.375C392.938 31.5625 392.469 31.75 391.969 31.9375C391.031 32.625 390.094 33.1562 389.156 33.5312C388.594 34.0312 388.094 34.5938 387.656 35.2188C387.219 35.8438 386.75 36.4688 386.25 37.0938C386.125 37.4688 386.031 37.875 385.969 38.3125C385.906 38.6875 385.812 39.0312 385.688 39.3438C385.812 39.5312 385.844 39.75 385.781 40C385.781 40.25 385.781 40.4688 385.781 40.6562C385.844 40.9062 385.938 41.125 386.062 41.3125C386.188 41.4375 386.188 41.5625 386.062 41.6875C386.562 43.4375 387.125 45.0312 387.75 46.4688C388.125 46.7188 388.344 47 388.406 47.3125C388.969 47.5625 389.344 48.1562 389.531 49.0938C390.031 49.4062 390.5 49.75 390.938 50.125C391.375 50.5 391.688 51 391.875 51.625C392.375 51.9375 392.781 52.5938 393.094 53.5938C393.281 53.7188 393.406 53.9062 393.469 54.1562C393.594 54.3438 393.719 54.5312 393.844 54.7188C394.594 55.1562 395.219 55.625 395.719 56.125C396.219 56.625 396.719 57.2188 397.219 57.9062C398.344 58.5938 399.531 58.9688 400.781 59.0312C402.094 59.0938 403.375 59.1875 404.625 59.3125C405.188 59.375 405.75 59.3438 406.312 59.2188C406.938 59.0938 407.5 59.0312 408 59.0312C408.5 58.8438 408.875 58.625 409.125 58.375C409.375 58.0625 409.75 57.8438 410.25 57.7188C410.562 57.2188 410.906 56.8438 411.281 56.5938C411.719 56.2812 412.125 56.0312 412.5 55.8438C412.812 55.7188 413.062 55.5938 413.25 55.4688C413.438 55.2812 413.688 55.125 414 55C414.438 54.3125 415 53.7812 415.688 53.4062C416.375 53.0312 416.875 52.5312 417.188 51.9062C417.75 50.9062 418.094 49.9688 418.219 49.0938C418.406 48.1562 418.562 47.25 418.688 46.375C418.5 46.25 418.406 46.0625 418.406 45.8125C418.406 45.5 418.438 45.1875 418.5 44.875L418.312 44.6875ZM392.156 37.75C392.406 38.375 392.25 39.0625 391.688 39.8125C391.625 39.9375 391.438 40.1562 391.125 40.4688C390.812 40.7812 390.562 40.9375 390.375 40.9375C390.062 41.0625 389.719 41.0625 389.344 40.9375C389.031 40.8125 388.781 40.6875 388.594 40.5625C388.469 40.25 388.375 39.9375 388.312 39.625C388.25 39.3125 388.312 39 388.5 38.6875C388.688 38.25 389.188 37.8438 390 37.4688C390.812 37.0938 391.438 37.0938 391.875 37.4688L392.156 37.75ZM412.781 47.4062C413.094 47.8438 413.125 48.1875 412.875 48.4375C412.688 48.6875 412.531 49 412.406 49.375C411.969 50.0625 411.625 50.4375 411.375 50.5C411.125 50.5625 410.875 50.625 410.625 50.6875C410.312 50.5 410 50.3438 409.688 50.2188C409.438 50.0312 409.25 49.75 409.125 49.375C409 48.875 409.062 48.4688 409.312 48.1562C409.625 47.8438 409.938 47.5625 410.25 47.3125C410.688 47.25 411.125 47.1875 411.562 47.125C412.062 47 412.469 47.0938 412.781 47.4062ZM403.688 51.3438C404.5 51.4062 405.219 51.5625 405.844 51.8125C406.531 52.0625 406.969 52.5 407.156 53.125C407.344 54.1875 407.031 54.9375 406.219 55.375C405.406 55.75 404.562 55.9688 403.688 56.0312C402.25 56.0312 401.281 55.6875 400.781 55C400.656 54.5625 400.688 54.25 400.875 54.0625C401.125 53.8125 401.312 53.5312 401.438 53.2188C401.938 52.8438 402.375 52.5625 402.75 52.375C403.125 52.125 403.5 51.875 403.875 51.625L403.688 51.3438ZM423.938 65.5C423.75 65.8125 423.531 66.125 423.281 66.4375C423.031 66.6875 422.688 66.8125 422.25 66.8125C421.938 66.8125 421.688 66.75 421.5 66.625C421.312 66.4375 421.125 66.25 420.938 66.0625C420.75 65.9375 420.562 65.8438 420.375 65.7812C420.188 65.7188 420.156 65.5312 420.281 65.2188C420.344 64.9688 420.469 64.8125 420.656 64.75C420.844 64.625 421.094 64.4688 421.406 64.2812C421.656 64.2188 422.094 64.0938 422.719 63.9062C423.344 63.7188 423.75 63.8438 423.938 64.2812C424.062 64.4688 424.062 64.6562 423.938 64.8438C423.812 64.9688 423.812 65.1875 423.938 65.5ZM446.062 6.25C446.25 6.6875 446.344 7.21875 446.344 7.84375C446.344 8.46875 446.5 9.03125 446.812 9.53125C447.5 10.5312 447.719 11.375 447.469 12.0625C447.219 12.75 447.062 13.4063 447 14.0312C446.938 14.7812 447 15.5625 447.188 16.375C447.375 17.125 447.125 17.7188 446.438 18.1562C446.062 19.5312 445.781 20.9062 445.594 22.2812C445.406 23.6562 445.406 25.0625 445.594 26.5C445.594 27.3125 445.5 28 445.312 28.5625C445.438 29 445.5 29.4062 445.5 29.7812C445.562 30.1562 445.594 30.5 445.594 30.8125C445.656 31.25 445.594 31.6875 445.406 32.125C445.281 32.5625 445.25 33 445.312 33.4375C445.375 33.625 445.438 33.8438 445.5 34.0938C445.625 34.2812 445.562 34.5 445.312 34.75C445.688 37.5 445.562 39.9688 444.938 42.1562C445.062 42.4688 445.094 42.8438 445.031 43.2812C444.969 43.7188 444.844 44.0938 444.656 44.4062C444.469 45.2188 444.375 45.9688 444.375 46.6562C444.438 47.2812 444.469 47.8438 444.469 48.3438C444.531 49.0312 444.5 49.6875 444.375 50.3125C444.25 50.9375 444.219 51.5625 444.281 52.1875C444.281 52.5625 444.312 52.9688 444.375 53.4062C444.5 53.8438 444.406 54.2812 444.094 54.7188C444.344 55.2188 444.438 55.75 444.375 56.3125C444.375 56.875 444.312 57.5 444.188 58.1875C444.125 58.8125 444.125 59.4062 444.188 59.9688C444.312 60.4688 444.375 61.0625 444.375 61.75C444.312 62.0625 444.219 62.375 444.094 62.6875C444.031 62.9375 444 63.25 444 63.625C443.438 64.3125 442.812 64.9375 442.125 65.5C441.5 66 440.594 66.3125 439.406 66.4375C439.219 66.3125 439.031 66.2188 438.844 66.1562C438.656 66.0312 438.469 66.0312 438.281 66.1562C437.469 66.0312 436.875 65.75 436.5 65.3125C436.188 64.8125 435.844 64.3125 435.469 63.8125C435.594 63.3125 435.5 62.9375 435.188 62.6875C434.875 62.4375 434.781 62.125 434.906 61.75C434.531 61.0625 434.219 60.5625 433.969 60.25C433.719 59.9375 433.688 59.625 433.875 59.3125C433.562 58.1875 433.469 57 433.594 55.75C433.719 54.4375 434 53.25 434.438 52.1875C434.75 51.75 435.094 51.4062 435.469 51.1562C435.844 50.9062 436 50.5625 435.938 50.125C436.25 49.8125 436.438 49.4688 436.5 49.0938C436.562 48.6562 436.531 48.25 436.406 47.875C436.406 47.375 436.344 46.9062 436.219 46.4688C436.156 46.0312 436.188 45.6562 436.312 45.3438C436 44.9062 435.938 44.4375 436.125 43.9375C436.375 43.375 436.375 42.9688 436.125 42.7188C436.125 42.0312 436.156 41.7188 436.219 41.7812C436.344 41.7812 436.406 41.75 436.406 41.6875C436.219 41.3125 436.188 40.9375 436.312 40.5625C436.5 40.1875 436.562 39.8125 436.5 39.4375C436.812 38.6875 436.906 38.0938 436.781 37.6562C436.719 37.1562 436.688 36.625 436.688 36.0625C436.75 35.75 436.812 35.4688 436.875 35.2188C436.938 34.9062 436.875 34.625 436.688 34.375C436.875 33.5625 436.906 32.9375 436.781 32.5C436.719 32.0625 436.781 31.6875 436.969 31.375C436.844 31 436.781 30.5312 436.781 29.9688C436.844 29.4062 436.906 28.875 436.969 28.375C436.719 27.1875 436.625 26.0312 436.688 24.9062C436.812 23.7188 436.812 22.5938 436.688 21.5312C436.25 20.7188 435.938 19.9062 435.75 19.0938C435.562 18.2812 435.312 17.4375 435 16.5625L435.188 15.3438C435.125 15.1562 435 14.9688 434.812 14.7812C434.688 14.5313 434.719 14.3125 434.906 14.125C434.781 14 434.688 13.8125 434.625 13.5625C434.625 13.25 434.719 13 434.906 12.8125C434.656 12.4375 434.562 12.0312 434.625 11.5938C434.75 11.0937 434.656 10.6562 434.344 10.2812C434.281 9.53125 434.406 8.9375 434.719 8.5C435.031 8 435.438 7.625 435.938 7.375C436.125 7.0625 436.438 6.8125 436.875 6.625C437.312 6.4375 437.75 6.3125 438.188 6.25C438.5 6 438.938 5.75 439.5 5.5C440.062 5.1875 440.625 4.96875 441.188 4.84375C441.375 4.78125 441.656 4.75 442.031 4.75C442.406 4.6875 442.688 4.65625 442.875 4.65625C443 4.71875 443.156 4.8125 443.344 4.9375C443.594 5.0625 443.781 5.1875 443.906 5.3125C444.281 5.5 444.562 5.65625 444.75 5.78125C445 5.90625 445.281 6.0625 445.594 6.25H446.062ZM432.094 12.5312C432.156 12.9062 432.281 13.25 432.469 13.5625C432.656 13.875 432.75 14.25 432.75 14.6875C432.938 15.9375 432.344 16.7812 430.969 17.2188C430.156 17.0312 429.656 16.625 429.469 16C429.344 15.3125 429.125 14.7188 428.812 14.2188C428.875 14.0312 428.969 13.8438 429.094 13.6562C429.219 13.4688 429.344 13.375 429.469 13.375C429.594 13 429.844 12.5937 430.219 12.1562C430.656 11.7188 431.125 11.625 431.625 11.875L432.094 12.5312ZM432.375 19.5625C432.562 19.625 432.781 19.7188 433.031 19.8438C433.281 19.9688 433.438 20.1562 433.5 20.4062C433.5 20.9062 433.375 21.2812 433.125 21.5312C432.938 21.7188 432.688 21.875 432.375 22C432 22.0625 431.75 22 431.625 21.8125C431.5 21.625 431.312 21.4688 431.062 21.3438C430.938 20.8438 431 20.4062 431.25 20.0312C431.5 19.6562 431.875 19.5 432.375 19.5625ZM445.406 79.5625C445.156 79.6875 445 79.9062 444.938 80.2188C444.875 80.5312 444.625 80.6875 444.188 80.6875C444.188 80.875 444.094 81.0312 443.906 81.1562C443.781 81.2812 443.656 81.4062 443.531 81.5312C443.031 82.2188 442.344 82.6875 441.469 82.9375C440.656 83.25 439.75 83.5625 438.75 83.875C437.875 83.6875 437.25 83.5 436.875 83.3125C436.5 83.125 436.188 82.875 435.938 82.5625C435.812 82.4375 435.625 82.3125 435.375 82.1875C435.188 82.0625 435.031 82.0312 434.906 82.0938C434.406 81.5938 434.031 80.9375 433.781 80.125C433.531 79.375 433.156 78.75 432.656 78.25C432.719 77.9375 432.75 77.5 432.75 76.9375C432.812 76.3125 432.906 75.9062 433.031 75.7188C433.094 74.9062 433.406 74.25 433.969 73.75C434.531 73.1875 435.156 72.6875 435.844 72.25C435.969 71.8125 436.281 71.5938 436.781 71.5938C437.281 71.5938 437.688 71.4375 438 71.125C439 71 440.062 71 441.188 71.125C442.312 71.1875 443.156 71.625 443.719 72.4375C444.344 72.625 444.781 73 445.031 73.5625C445.281 74.0625 445.406 74.6875 445.406 75.4375C445.406 76.125 445.375 76.8438 445.312 77.5938C445.25 78.3438 445.281 79 445.406 79.5625Z" fill="white"/>
</svg>
