<svg width="342" height="40" viewBox="0 0 342 40" fill="none" xmlns="http://www.w3.org/2000/svg">
<path d="M2.68 30.2C2.17333 30.2 1.74667 30.0267 1.4 29.68C1.05333 29.3333 0.88 28.9067 0.88 28.4V3.72C0.88 3.21333 1.05333 2.78666 1.4 2.44C1.74667 2.06667 2.17333 1.88 2.68 1.88C3.18667 1.88 3.61333 2.06667 3.96 2.44C4.33333 2.78666 4.52 3.21333 4.52 3.72V14.36H19.68V3.72C19.68 3.21333 19.8533 2.78666 20.2 2.44C20.5467 2.06667 20.9733 1.88 21.48 1.88C21.9867 1.88 22.4133 2.06667 22.76 2.44C23.1333 2.78666 23.32 3.21333 23.32 3.72V28.4C23.32 28.9067 23.1333 29.3333 22.76 29.68C22.4133 30.0267 21.9867 30.2 21.48 30.2C20.9733 30.2 20.5467 30.0267 20.2 29.68C19.8533 29.3333 19.68 28.9067 19.68 28.4V17.76H4.52V28.4C4.52 28.9067 4.33333 29.3333 3.96 29.68C3.61333 30.0267 3.18667 30.2 2.68 30.2ZM35.5553 30.4C34.382 30.4 33.2886 30.16 32.2753 29.68C31.2886 29.2 30.502 28.5067 29.9153 27.6C29.3286 26.6667 29.0353 25.6 29.0353 24.4C29.0353 22.4267 29.8086 20.8533 31.3553 19.68C32.9286 18.5067 35.222 17.92 38.2353 17.92H43.0753V17.6C43.0753 15.84 42.6353 14.5733 41.7553 13.8C40.902 13.0267 39.5553 12.64 37.7153 12.64C36.702 12.64 35.7953 12.72 34.9953 12.88C34.222 13.04 33.3553 13.28 32.3953 13.6C32.182 13.6533 32.0086 13.68 31.8753 13.68C31.4753 13.68 31.1286 13.5333 30.8353 13.24C30.542 12.9467 30.3953 12.5867 30.3953 12.16C30.3953 11.44 30.742 10.9333 31.4353 10.64C33.702 9.68 36.0086 9.2 38.3553 9.2C40.1953 9.2 41.742 9.57333 42.9953 10.32C44.2753 11.0667 45.2086 12.04 45.7953 13.24C46.4086 14.4133 46.7153 15.6933 46.7153 17.08V28.4C46.7153 28.9067 46.5286 29.3333 46.1553 29.68C45.8086 30.0267 45.382 30.2 44.8753 30.2C44.3686 30.2 43.942 30.0267 43.5953 29.68C43.2486 29.3333 43.0753 28.9067 43.0753 28.4V27.36C41.102 29.3867 38.5953 30.4 35.5553 30.4ZM36.9153 27.2C38.0886 27.2 39.222 26.92 40.3153 26.36C41.4086 25.7733 42.3286 25.0533 43.0753 24.2V20.84H38.7153C34.6886 20.84 32.6753 21.8933 32.6753 24C32.6753 24.96 32.9953 25.7333 33.6353 26.32C34.302 26.9067 35.3953 27.2 36.9153 27.2ZM59.7047 30.2C59.2247 30.2 58.7847 30.0667 58.3847 29.8C57.9847 29.5067 57.6914 29.1467 57.5047 28.72L50.5447 12.08C50.4114 11.76 50.3447 11.48 50.3447 11.24C50.3447 10.7333 50.518 10.3067 50.8647 9.96C51.2114 9.58666 51.638 9.4 52.1447 9.4C52.4914 9.4 52.8114 9.50667 53.1047 9.72C53.4247 9.90667 53.6514 10.1467 53.7847 10.44L59.9047 25.96L66.0247 10.44C66.158 10.1467 66.3714 9.90667 66.6647 9.72C66.9847 9.50667 67.318 9.4 67.6647 9.4C68.1714 9.4 68.598 9.58666 68.9447 9.96C69.2914 10.3067 69.4647 10.7333 69.4647 11.24C69.4647 11.48 69.398 11.76 69.2647 12.08L62.3047 28.72C62.118 29.1467 61.8247 29.5067 61.4247 29.8C61.0247 30.0667 60.5847 30.2 60.1047 30.2H59.7047ZM82.5222 30.4C79.2689 30.4 76.7222 29.48 74.8822 27.64C73.0689 25.7733 72.1622 23.16 72.1622 19.8C72.1622 17.9067 72.5089 16.16 73.2022 14.56C73.8955 12.96 74.9622 11.6667 76.4022 10.68C77.8422 9.69333 79.6155 9.2 81.7222 9.2C83.6955 9.2 85.4022 9.66667 86.8422 10.6C88.2822 11.5067 89.3755 12.7333 90.1222 14.28C90.8689 15.8 91.2422 17.4667 91.2422 19.28C91.2422 19.7867 91.0689 20.2133 90.7222 20.56C90.4022 20.9067 89.9622 21.08 89.4022 21.08H75.8422C76.0555 22.9467 76.7489 24.4 77.9222 25.44C79.0955 26.48 80.7355 27 82.8422 27C83.9622 27 84.9355 26.8933 85.7622 26.68C86.6155 26.4667 87.4422 26.16 88.2422 25.76C88.4555 25.6533 88.6955 25.6 88.9622 25.6C89.3889 25.6 89.7622 25.7467 90.0822 26.04C90.4022 26.3333 90.5622 26.7067 90.5622 27.16C90.5622 27.7467 90.2155 28.24 89.5222 28.64C88.4822 29.2267 87.4555 29.6667 86.4422 29.96C85.4289 30.2533 84.1222 30.4 82.5222 30.4ZM87.6422 18.12C87.5622 16.8133 87.2155 15.72 86.6022 14.84C86.0155 13.96 85.2822 13.32 84.4022 12.92C83.5222 12.4933 82.6289 12.28 81.7222 12.28C80.8155 12.28 79.9222 12.4933 79.0422 12.92C78.1622 13.32 77.4289 13.96 76.8422 14.84C76.2555 15.72 75.9222 16.8133 75.8422 18.12H87.6422ZM111.649 30.4C110.476 30.4 109.382 30.16 108.369 29.68C107.382 29.2 106.596 28.5067 106.009 27.6C105.422 26.6667 105.129 25.6 105.129 24.4C105.129 22.4267 105.902 20.8533 107.449 19.68C109.022 18.5067 111.316 17.92 114.329 17.92H119.169V17.6C119.169 15.84 118.729 14.5733 117.849 13.8C116.996 13.0267 115.649 12.64 113.809 12.64C112.796 12.64 111.889 12.72 111.089 12.88C110.316 13.04 109.449 13.28 108.489 13.6C108.276 13.6533 108.102 13.68 107.969 13.68C107.569 13.68 107.222 13.5333 106.929 13.24C106.636 12.9467 106.489 12.5867 106.489 12.16C106.489 11.44 106.836 10.9333 107.529 10.64C109.796 9.68 112.102 9.2 114.449 9.2C116.289 9.2 117.836 9.57333 119.089 10.32C120.369 11.0667 121.302 12.04 121.889 13.24C122.502 14.4133 122.809 15.6933 122.809 17.08V28.4C122.809 28.9067 122.622 29.3333 122.249 29.68C121.902 30.0267 121.476 30.2 120.969 30.2C120.462 30.2 120.036 30.0267 119.689 29.68C119.342 29.3333 119.169 28.9067 119.169 28.4V27.36C117.196 29.3867 114.689 30.4 111.649 30.4ZM113.009 27.2C114.182 27.2 115.316 26.92 116.409 26.36C117.502 25.7733 118.422 25.0533 119.169 24.2V20.84H114.809C110.782 20.84 108.769 21.8933 108.769 24C108.769 24.96 109.089 25.7333 109.729 26.32C110.396 26.9067 111.489 27.2 113.009 27.2ZM141.101 30.2C140.594 30.2 140.167 30.0267 139.821 29.68C139.474 29.3333 139.301 28.9067 139.301 28.4V2.44C139.301 1.93333 139.474 1.50667 139.821 1.16C140.167 0.786666 140.594 0.599999 141.101 0.599999C141.607 0.599999 142.034 0.786666 142.381 1.16C142.754 1.50667 142.941 1.93333 142.941 2.44V12.88C143.954 11.76 145.047 10.8667 146.221 10.2C147.394 9.53333 148.781 9.2 150.381 9.2C151.847 9.2 153.114 9.54667 154.181 10.24C155.274 10.9333 156.101 11.88 156.661 13.08C157.247 14.28 157.541 15.6 157.541 17.04V28.4C157.541 28.9067 157.354 29.3333 156.981 29.68C156.634 30.0267 156.207 30.2 155.701 30.2C155.194 30.2 154.767 30.0267 154.421 29.68C154.074 29.3333 153.901 28.9067 153.901 28.4V17.44C153.901 14.1867 152.434 12.56 149.501 12.56C148.167 12.56 146.967 12.9067 145.901 13.6C144.861 14.2933 143.874 15.2267 142.941 16.4V28.4C142.941 28.9067 142.754 29.3333 142.381 29.68C142.034 30.0267 141.607 30.2 141.101 30.2ZM168.876 30.4C167.702 30.4 166.609 30.16 165.596 29.68C164.609 29.2 163.822 28.5067 163.236 27.6C162.649 26.6667 162.356 25.6 162.356 24.4C162.356 22.4267 163.129 20.8533 164.676 19.68C166.249 18.5067 168.542 17.92 171.556 17.92H176.396V17.6C176.396 15.84 175.956 14.5733 175.076 13.8C174.222 13.0267 172.876 12.64 171.036 12.64C170.022 12.64 169.116 12.72 168.316 12.88C167.542 13.04 166.676 13.28 165.716 13.6C165.502 13.6533 165.329 13.68 165.196 13.68C164.796 13.68 164.449 13.5333 164.156 13.24C163.862 12.9467 163.716 12.5867 163.716 12.16C163.716 11.44 164.062 10.9333 164.756 10.64C167.022 9.68 169.329 9.2 171.676 9.2C173.516 9.2 175.062 9.57333 176.316 10.32C177.596 11.0667 178.529 12.04 179.116 13.24C179.729 14.4133 180.036 15.6933 180.036 17.08V28.4C180.036 28.9067 179.849 29.3333 179.476 29.68C179.129 30.0267 178.702 30.2 178.196 30.2C177.689 30.2 177.262 30.0267 176.916 29.68C176.569 29.3333 176.396 28.9067 176.396 28.4V27.36C174.422 29.3867 171.916 30.4 168.876 30.4ZM170.236 27.2C171.409 27.2 172.542 26.92 173.636 26.36C174.729 25.7733 175.649 25.0533 176.396 24.2V20.84H172.036C168.009 20.84 165.996 21.8933 165.996 24C165.996 24.96 166.316 25.7333 166.956 26.32C167.622 26.9067 168.716 27.2 170.236 27.2ZM187.937 39.4C187.43 39.4 187.003 39.2133 186.657 38.84C186.31 38.4933 186.137 38.0667 186.137 37.56V11.2C186.137 10.6933 186.31 10.2667 186.657 9.92C187.003 9.57333 187.43 9.4 187.937 9.4C188.443 9.4 188.87 9.57333 189.217 9.92C189.59 10.2667 189.777 10.6933 189.777 11.2V12.24C191.723 10.2133 194.003 9.2 196.617 9.2C198.27 9.2 199.83 9.62667 201.297 10.48C202.79 11.3067 203.99 12.5333 204.897 14.16C205.83 15.76 206.297 17.64 206.297 19.8C206.297 21.96 205.83 23.8533 204.897 25.48C203.99 27.08 202.79 28.3067 201.297 29.16C199.83 29.9867 198.27 30.4 196.617 30.4C194.003 30.4 191.723 29.3867 189.777 27.36V37.56C189.777 38.0933 189.603 38.5333 189.257 38.88C188.91 39.2267 188.47 39.4 187.937 39.4ZM196.097 27C198.07 27 199.657 26.3733 200.857 25.12C202.057 23.8667 202.657 22.0933 202.657 19.8C202.657 17.5067 202.057 15.7333 200.857 14.48C199.657 13.2267 198.07 12.6 196.097 12.6C194.87 12.6 193.71 12.88 192.617 13.44C191.55 13.9733 190.603 14.6933 189.777 15.6V24C190.603 24.9067 191.55 25.64 192.617 26.2C193.71 26.7333 194.87 27 196.097 27ZM213.171 39.4C212.664 39.4 212.238 39.2133 211.891 38.84C211.544 38.4933 211.371 38.0667 211.371 37.56V11.2C211.371 10.6933 211.544 10.2667 211.891 9.92C212.238 9.57333 212.664 9.4 213.171 9.4C213.678 9.4 214.104 9.57333 214.451 9.92C214.824 10.2667 215.011 10.6933 215.011 11.2V12.24C216.958 10.2133 219.238 9.2 221.851 9.2C223.504 9.2 225.064 9.62667 226.531 10.48C228.024 11.3067 229.224 12.5333 230.131 14.16C231.064 15.76 231.531 17.64 231.531 19.8C231.531 21.96 231.064 23.8533 230.131 25.48C229.224 27.08 228.024 28.3067 226.531 29.16C225.064 29.9867 223.504 30.4 221.851 30.4C219.238 30.4 216.958 29.3867 215.011 27.36V37.56C215.011 38.0933 214.838 38.5333 214.491 38.88C214.144 39.2267 213.704 39.4 213.171 39.4ZM221.331 27C223.304 27 224.891 26.3733 226.091 25.12C227.291 23.8667 227.891 22.0933 227.891 19.8C227.891 17.5067 227.291 15.7333 226.091 14.48C224.891 13.2267 223.304 12.6 221.331 12.6C220.104 12.6 218.944 12.88 217.851 13.44C216.784 13.9733 215.838 14.6933 215.011 15.6V24C215.838 24.9067 216.784 25.64 217.851 26.2C218.944 26.7333 220.104 27 221.331 27ZM240.892 39.4C240.412 39.4 239.999 39.2267 239.652 38.88C239.332 38.5333 239.172 38.12 239.172 37.64C239.172 37.4267 239.212 37.2133 239.292 37L241.892 30.32L234.372 12C234.265 11.7333 234.212 11.48 234.212 11.24C234.212 10.7333 234.385 10.3067 234.732 9.96C235.079 9.58666 235.505 9.4 236.012 9.4C236.385 9.4 236.719 9.50667 237.012 9.72C237.332 9.93333 237.559 10.2 237.692 10.52L243.852 25.8L250.132 10.6C250.479 9.8 251.039 9.4 251.812 9.4C252.319 9.4 252.745 9.58666 253.092 9.96C253.439 10.3067 253.612 10.7333 253.612 11.24C253.612 11.48 253.572 11.7067 253.492 11.92L242.572 38.16C242.199 38.9867 241.639 39.4 240.892 39.4ZM276.647 30.4C274.994 30.4 273.42 29.9867 271.927 29.16C270.46 28.3067 269.26 27.08 268.327 25.48C267.42 23.8533 266.967 21.96 266.967 19.8C266.967 17.64 267.42 15.76 268.327 14.16C269.26 12.5333 270.46 11.3067 271.927 10.48C273.42 9.62667 274.994 9.2 276.647 9.2C279.26 9.2 281.54 10.2133 283.487 12.24V2.44C283.487 1.90667 283.66 1.46666 284.007 1.12C284.38 0.773332 284.82 0.599999 285.327 0.599999C285.834 0.599999 286.26 0.786666 286.607 1.16C286.954 1.50667 287.127 1.93333 287.127 2.44V28.4C287.127 28.9067 286.954 29.3333 286.607 29.68C286.26 30.0267 285.834 30.2 285.327 30.2C284.82 30.2 284.38 30.0267 284.007 29.68C283.66 29.3333 283.487 28.9067 283.487 28.4V27.36C281.54 29.3867 279.26 30.4 276.647 30.4ZM277.167 27C278.394 27 279.54 26.7333 280.607 26.2C281.7 25.64 282.66 24.9067 283.487 24V15.6C282.66 14.6933 281.7 13.9733 280.607 13.44C279.54 12.88 278.394 12.6 277.167 12.6C275.194 12.6 273.607 13.2267 272.407 14.48C271.207 15.7333 270.607 17.5067 270.607 19.8C270.607 22.0933 271.207 23.8667 272.407 25.12C273.607 26.3733 275.194 27 277.167 27ZM298.641 30.4C297.468 30.4 296.375 30.16 295.361 29.68C294.375 29.2 293.588 28.5067 293.001 27.6C292.415 26.6667 292.121 25.6 292.121 24.4C292.121 22.4267 292.895 20.8533 294.441 19.68C296.015 18.5067 298.308 17.92 301.321 17.92H306.161V17.6C306.161 15.84 305.721 14.5733 304.841 13.8C303.988 13.0267 302.641 12.64 300.801 12.64C299.788 12.64 298.881 12.72 298.081 12.88C297.308 13.04 296.441 13.28 295.481 13.6C295.268 13.6533 295.095 13.68 294.961 13.68C294.561 13.68 294.215 13.5333 293.921 13.24C293.628 12.9467 293.481 12.5867 293.481 12.16C293.481 11.44 293.828 10.9333 294.521 10.64C296.788 9.68 299.095 9.2 301.441 9.2C303.281 9.2 304.828 9.57333 306.081 10.32C307.361 11.0667 308.295 12.04 308.881 13.24C309.495 14.4133 309.801 15.6933 309.801 17.08V28.4C309.801 28.9067 309.615 29.3333 309.241 29.68C308.895 30.0267 308.468 30.2 307.961 30.2C307.455 30.2 307.028 30.0267 306.681 29.68C306.335 29.3333 306.161 28.9067 306.161 28.4V27.36C304.188 29.3867 301.681 30.4 298.641 30.4ZM300.001 27.2C301.175 27.2 302.308 26.92 303.401 26.36C304.495 25.7733 305.415 25.0533 306.161 24.2V20.84H301.801C297.775 20.84 295.761 21.8933 295.761 24C295.761 24.96 296.081 25.7333 296.721 26.32C297.388 26.9067 298.481 27.2 300.001 27.2ZM320.111 39.4C319.631 39.4 319.217 39.2267 318.871 38.88C318.551 38.5333 318.391 38.12 318.391 37.64C318.391 37.4267 318.431 37.2133 318.511 37L321.111 30.32L313.591 12C313.484 11.7333 313.431 11.48 313.431 11.24C313.431 10.7333 313.604 10.3067 313.951 9.96C314.297 9.58666 314.724 9.4 315.231 9.4C315.604 9.4 315.937 9.50667 316.231 9.72C316.551 9.93333 316.777 10.2 316.911 10.52L323.071 25.8L329.351 10.6C329.697 9.8 330.257 9.4 331.031 9.4C331.537 9.4 331.964 9.58666 332.311 9.96C332.657 10.3067 332.831 10.7333 332.831 11.24C332.831 11.48 332.791 11.7067 332.711 11.92L321.791 38.16C321.417 38.9867 320.857 39.4 320.111 39.4ZM339.515 22.28C339.115 22.28 338.795 22.1733 338.555 21.96C338.315 21.7467 338.182 21.4667 338.155 21.12L337.435 7.92V3.96C337.435 3.37333 337.635 2.88 338.035 2.48C338.435 2.08 338.928 1.88 339.515 1.88C340.102 1.88 340.582 2.08 340.955 2.48C341.355 2.88 341.555 3.37333 341.555 3.96V7.92L340.835 21.12C340.808 21.4667 340.675 21.7467 340.435 21.96C340.222 22.1733 339.915 22.28 339.515 22.28ZM339.515 30.16C338.875 30.16 338.315 29.9333 337.835 29.48C337.382 29 337.155 28.4267 337.155 27.76C337.155 27.12 337.382 26.5733 337.835 26.12C338.315 25.64 338.875 25.4 339.515 25.4C340.182 25.4 340.742 25.64 341.195 26.12C341.675 26.5733 341.915 27.12 341.915 27.76C341.915 28.4267 341.675 29 341.195 29.48C340.742 29.9333 340.182 30.16 339.515 30.16Z" fill="black"/>
</svg>
