<svg width="310" height="37" viewBox="0 0 310 37" fill="none" xmlns="http://www.w3.org/2000/svg">
<path d="M13.216 36.48C9.152 36.48 5.344 35.712 1.792 34.176C1.408 34.016 1.088 33.76 0.832 33.408C0.576 33.024 0.448 32.624 0.448 32.208C0.448 31.664 0.624 31.2 0.976 30.816C1.36 30.4 1.84 30.192 2.416 30.192C2.736 30.192 3.04 30.256 3.328 30.384C6.272 31.696 9.424 32.352 12.784 32.352C18.384 32.352 21.184 30.512 21.184 26.832C21.184 25.872 20.816 25.072 20.08 24.432C19.376 23.792 18.496 23.296 17.44 22.944C16.384 22.56 14.88 22.112 12.928 21.6C10.336 20.928 8.24 20.288 6.64 19.68C5.04 19.04 3.664 18.096 2.512 16.848C1.36 15.6 0.784 13.936 0.784 11.856C0.784 10.032 1.264 8.384 2.224 6.912C3.184 5.408 4.592 4.224 6.448 3.36C8.336 2.464 10.592 2.016 13.216 2.016C16.736 2.016 19.92 2.544 22.768 3.6C23.664 3.92 24.112 4.56 24.112 5.52C24.112 6.032 23.936 6.496 23.584 6.912C23.232 7.328 22.768 7.536 22.192 7.536C22 7.536 21.744 7.472 21.424 7.344C18.928 6.48 16.352 6.048 13.696 6.048C11.168 6.048 9.104 6.528 7.504 7.488C5.936 8.448 5.152 9.792 5.152 11.52C5.152 12.672 5.52 13.616 6.256 14.352C7.024 15.056 7.968 15.616 9.088 16.032C10.24 16.416 11.792 16.832 13.744 17.28C16.272 17.888 18.304 18.496 19.84 19.104C21.408 19.712 22.736 20.656 23.824 21.936C24.944 23.216 25.504 24.944 25.504 27.12C25.504 28.912 24.992 30.528 23.968 31.968C22.944 33.376 21.504 34.48 19.648 35.28C17.792 36.08 15.648 36.48 13.216 36.48ZM33.0123 6.528C32.3403 6.528 31.7643 6.288 31.2843 5.808C30.8043 5.328 30.5643 4.752 30.5643 4.08V3.888C30.5643 3.216 30.8043 2.64 31.2843 2.16C31.7643 1.68 32.3403 1.44 33.0123 1.44H33.3003C33.9723 1.44 34.5483 1.68 35.0283 2.16C35.5083 2.64 35.7483 3.216 35.7483 3.888V4.08C35.7483 4.752 35.5083 5.328 35.0283 5.808C34.5483 6.288 33.9723 6.528 33.3003 6.528H33.0123ZM33.1083 36.24C32.5003 36.24 31.9883 36.032 31.5723 35.616C31.1563 35.2 30.9483 34.688 30.9483 34.08V13.488C30.9483 12.88 31.1563 12.368 31.5723 11.952C31.9883 11.504 32.5003 11.28 33.1083 11.28C33.7483 11.28 34.2763 11.488 34.6923 11.904C35.1083 12.32 35.3163 12.848 35.3163 13.488V34.08C35.3163 34.688 35.0923 35.2 34.6443 35.616C34.2283 36.032 33.7163 36.24 33.1083 36.24ZM51.3494 36.48C46.6774 36.48 44.3414 34.368 44.3414 30.144V15.264H40.9334C40.6774 15.264 40.4534 15.184 40.2614 15.024C40.1014 14.832 40.0214 14.608 40.0214 14.352C40.0214 14.032 40.1654 13.76 40.4534 13.536L46.9814 7.152C47.2694 6.864 47.5414 6.72 47.7974 6.72C48.0534 6.72 48.2614 6.816 48.4214 7.008C48.6134 7.2 48.7094 7.424 48.7094 7.68V11.52H54.1334C54.6774 11.52 55.1254 11.696 55.4774 12.048C55.8294 12.4 56.0054 12.848 56.0054 13.392C56.0054 13.904 55.8294 14.352 55.4774 14.736C55.1254 15.088 54.6774 15.264 54.1334 15.264H48.7094V29.76C48.7094 31.008 48.9974 31.808 49.5734 32.16C50.1814 32.48 50.9334 32.64 51.8294 32.64C52.4694 32.64 53.1094 32.544 53.7494 32.352C53.8774 32.32 54.0054 32.288 54.1334 32.256C54.2934 32.224 54.4854 32.208 54.7094 32.208C55.1574 32.208 55.5574 32.384 55.9094 32.736C56.2614 33.056 56.4374 33.456 56.4374 33.936C56.4374 34.672 56.0694 35.232 55.3334 35.616C54.0854 36.192 52.7574 36.48 51.3494 36.48ZM71.8454 36.48C67.9414 36.48 64.8854 35.376 62.6774 33.168C60.5014 30.928 59.4134 27.792 59.4134 23.76C59.4134 21.488 59.8294 19.392 60.6614 17.472C61.4934 15.552 62.7734 14 64.5014 12.816C66.2294 11.632 68.3574 11.04 70.8854 11.04C73.2534 11.04 75.3014 11.6 77.0294 12.72C78.7574 13.808 80.0694 15.28 80.9654 17.136C81.8614 18.96 82.3094 20.96 82.3094 23.136C82.3094 23.744 82.1014 24.256 81.6854 24.672C81.3014 25.088 80.7734 25.296 80.1014 25.296H63.8294C64.0854 27.536 64.9174 29.28 66.3254 30.528C67.7334 31.776 69.7014 32.4 72.2294 32.4C73.5734 32.4 74.7414 32.272 75.7334 32.016C76.7574 31.76 77.7494 31.392 78.7094 30.912C78.9654 30.784 79.2534 30.72 79.5734 30.72C80.0854 30.72 80.5334 30.896 80.9174 31.248C81.3014 31.6 81.4934 32.048 81.4934 32.592C81.4934 33.296 81.0774 33.888 80.2454 34.368C78.9974 35.072 77.7654 35.6 76.5494 35.952C75.3334 36.304 73.7654 36.48 71.8454 36.48ZM77.9894 21.744C77.8934 20.176 77.4774 18.864 76.7414 17.808C76.0374 16.752 75.1574 15.984 74.1014 15.504C73.0454 14.992 71.9734 14.736 70.8854 14.736C69.7974 14.736 68.7254 14.992 67.6694 15.504C66.6134 15.984 65.7334 16.752 65.0294 17.808C64.3254 18.864 63.9254 20.176 63.8294 21.744H77.9894ZM96.0089 36.48C92.8089 36.48 89.8969 35.76 87.2729 34.32C86.7289 33.936 86.4569 33.408 86.4569 32.736C86.4569 32.224 86.6329 31.776 86.9849 31.392C87.3369 31.008 87.7849 30.816 88.3289 30.816C88.6169 30.816 88.9049 30.88 89.1929 31.008C90.2169 31.456 91.2409 31.808 92.2649 32.064C93.2889 32.32 94.4409 32.448 95.7209 32.448C99.2729 32.448 101.049 31.312 101.049 29.04C101.049 28.304 100.633 27.744 99.8009 27.36C99.0009 26.976 97.6729 26.544 95.8169 26.064C93.9289 25.616 92.3609 25.152 91.1129 24.672C89.8969 24.192 88.8409 23.472 87.9449 22.512C87.0809 21.52 86.6489 20.224 86.6489 18.624C86.6489 16.384 87.4489 14.56 89.0489 13.152C90.6809 11.744 93.0009 11.04 96.0089 11.04C98.4729 11.04 100.793 11.44 102.969 12.24C103.417 12.368 103.753 12.608 103.977 12.96C104.233 13.312 104.361 13.68 104.361 14.064C104.361 14.576 104.169 15.024 103.785 15.408C103.433 15.792 102.985 15.984 102.441 15.984C102.281 15.984 102.073 15.952 101.817 15.888C99.9609 15.312 98.1369 15.024 96.3449 15.024C94.6169 15.024 93.2569 15.344 92.2649 15.984C91.3049 16.592 90.8249 17.392 90.8249 18.384C90.8249 19.344 91.2729 20.048 92.1689 20.496C93.0649 20.944 94.4569 21.376 96.3449 21.792C98.2329 22.272 99.7689 22.752 100.953 23.232C102.137 23.68 103.145 24.4 103.977 25.392C104.841 26.384 105.273 27.712 105.273 29.376C105.273 31.424 104.457 33.12 102.825 34.464C101.225 35.808 98.9529 36.48 96.0089 36.48ZM136.196 36.48C133.06 36.48 130.324 35.264 127.988 32.832V34.08C127.988 34.688 127.764 35.2 127.316 35.616C126.9 36.032 126.388 36.24 125.78 36.24C125.172 36.24 124.66 36.032 124.244 35.616C123.828 35.2 123.62 34.688 123.62 34.08V2.928C123.62 2.32 123.828 1.808 124.244 1.392C124.66 0.943999 125.172 0.719999 125.78 0.719999C126.42 0.719999 126.948 0.927999 127.364 1.344C127.78 1.76 127.988 2.288 127.988 2.928V14.688C130.324 12.256 133.06 11.04 136.196 11.04C138.18 11.04 140.052 11.552 141.812 12.576C143.604 13.568 145.044 15.04 146.132 16.992C147.252 18.912 147.812 21.168 147.812 23.76C147.812 26.352 147.252 28.624 146.132 30.576C145.044 32.496 143.604 33.968 141.812 34.992C140.052 35.984 138.18 36.48 136.196 36.48ZM135.572 32.4C137.94 32.4 139.844 31.648 141.284 30.144C142.724 28.64 143.444 26.512 143.444 23.76C143.444 21.008 142.724 18.88 141.284 17.376C139.844 15.872 137.94 15.12 135.572 15.12C134.1 15.12 132.708 15.456 131.396 16.128C130.116 16.768 128.98 17.632 127.988 18.72V28.8C128.98 29.888 130.116 30.768 131.396 31.44C132.708 32.08 134.1 32.4 135.572 32.4ZM156.061 36.24C155.453 36.24 154.941 36.032 154.525 35.616C154.109 35.2 153.901 34.688 153.901 34.08V2.928C153.901 2.32 154.109 1.808 154.525 1.392C154.941 0.943999 155.453 0.719999 156.061 0.719999C156.701 0.719999 157.229 0.927999 157.645 1.344C158.061 1.76 158.269 2.288 158.269 2.928V34.08C158.269 34.688 158.045 35.2 157.597 35.616C157.181 36.032 156.669 36.24 156.061 36.24ZM176.655 36.48C174.191 36.48 172.031 35.952 170.175 34.896C168.319 33.84 166.879 32.352 165.855 30.432C164.863 28.48 164.367 26.256 164.367 23.76C164.367 21.264 164.863 19.056 165.855 17.136C166.879 15.184 168.319 13.68 170.175 12.624C172.031 11.568 174.191 11.04 176.655 11.04C179.087 11.04 181.231 11.568 183.087 12.624C184.943 13.68 186.383 15.184 187.406 17.136C188.431 19.056 188.943 21.264 188.943 23.76C188.943 26.256 188.431 28.48 187.406 30.432C186.383 32.352 184.943 33.84 183.087 34.896C181.231 35.952 179.087 36.48 176.655 36.48ZM176.655 32.496C177.967 32.496 179.215 32.192 180.399 31.584C181.615 30.976 182.607 30.016 183.375 28.704C184.175 27.392 184.575 25.728 184.575 23.712C184.575 21.728 184.175 20.08 183.375 18.768C182.607 17.456 181.615 16.512 180.399 15.936C179.215 15.328 177.967 15.024 176.655 15.024C175.311 15.024 174.031 15.328 172.815 15.936C171.631 16.512 170.655 17.456 169.887 18.768C169.119 20.08 168.735 21.728 168.735 23.712C168.735 25.728 169.119 27.392 169.887 28.704C170.655 30.016 171.631 30.976 172.815 31.584C174.031 32.192 175.311 32.496 176.655 32.496ZM206.386 36.48C204.082 36.48 201.954 35.968 200.002 34.944C198.05 33.92 196.482 32.448 195.298 30.528C194.146 28.608 193.57 26.352 193.57 23.76C193.57 21.168 194.146 18.912 195.298 16.992C196.482 15.072 198.05 13.6 200.002 12.576C201.954 11.552 204.082 11.04 206.386 11.04C208.082 11.04 209.538 11.264 210.754 11.712C212.002 12.128 213.154 12.672 214.21 13.344C214.85 13.76 215.17 14.32 215.17 15.024C215.17 15.504 214.978 15.952 214.594 16.368C214.242 16.752 213.826 16.944 213.346 16.944C212.994 16.944 212.642 16.848 212.29 16.656C211.234 16.112 210.322 15.728 209.554 15.504C208.818 15.248 207.89 15.12 206.77 15.12C204.018 15.12 201.858 15.92 200.29 17.52C198.722 19.088 197.938 21.168 197.938 23.76C197.938 26.352 198.722 28.448 200.29 30.048C201.858 31.616 204.018 32.4 206.77 32.4C207.89 32.4 208.818 32.288 209.554 32.064C210.322 31.808 211.234 31.408 212.29 30.864C212.642 30.672 212.994 30.576 213.346 30.576C213.826 30.576 214.242 30.784 214.594 31.2C214.978 31.584 215.17 32.016 215.17 32.496C215.17 33.2 214.85 33.76 214.21 34.176C213.154 34.848 212.002 35.408 210.754 35.856C209.538 36.272 208.082 36.48 206.386 36.48ZM222.811 36.24C222.203 36.24 221.691 36.032 221.275 35.616C220.859 35.2 220.651 34.688 220.651 34.08V2.928C220.651 2.32 220.859 1.808 221.275 1.392C221.691 0.943999 222.203 0.719999 222.811 0.719999C223.419 0.719999 223.931 0.943999 224.347 1.392C224.795 1.808 225.019 2.32 225.019 2.928V22.56L236.443 12C236.923 11.584 237.403 11.376 237.883 11.376C238.619 11.376 239.147 11.584 239.467 12C239.819 12.416 239.995 12.912 239.995 13.488C239.995 14.032 239.723 14.576 239.179 15.12L232.267 21.312L240.955 32.832C241.275 33.248 241.435 33.68 241.435 34.128C241.435 34.768 241.227 35.28 240.811 35.664C240.395 36.048 239.867 36.24 239.227 36.24C238.907 36.24 238.587 36.16 238.267 36C237.947 35.84 237.675 35.616 237.451 35.328L229.195 24.096L225.019 27.888V34.08C225.019 34.688 224.795 35.2 224.347 35.616C223.931 36.032 223.419 36.24 222.811 36.24ZM257.33 36.48C253.426 36.48 250.37 35.376 248.162 33.168C245.986 30.928 244.898 27.792 244.898 23.76C244.898 21.488 245.314 19.392 246.146 17.472C246.978 15.552 248.258 14 249.986 12.816C251.714 11.632 253.842 11.04 256.37 11.04C258.738 11.04 260.786 11.6 262.514 12.72C264.242 13.808 265.554 15.28 266.45 17.136C267.346 18.96 267.794 20.96 267.794 23.136C267.794 23.744 267.586 24.256 267.17 24.672C266.786 25.088 266.258 25.296 265.586 25.296H249.314C249.57 27.536 250.402 29.28 251.81 30.528C253.218 31.776 255.186 32.4 257.714 32.4C259.058 32.4 260.226 32.272 261.218 32.016C262.242 31.76 263.234 31.392 264.194 30.912C264.45 30.784 264.738 30.72 265.058 30.72C265.57 30.72 266.018 30.896 266.402 31.248C266.786 31.6 266.978 32.048 266.978 32.592C266.978 33.296 266.562 33.888 265.73 34.368C264.482 35.072 263.25 35.6 262.034 35.952C260.818 36.304 259.25 36.48 257.33 36.48ZM263.474 21.744C263.378 20.176 262.962 18.864 262.226 17.808C261.522 16.752 260.642 15.984 259.586 15.504C258.53 14.992 257.458 14.736 256.37 14.736C255.282 14.736 254.21 14.992 253.154 15.504C252.098 15.984 251.218 16.752 250.514 17.808C249.81 18.864 249.41 20.176 249.314 21.744H263.474ZM283.701 36.48C281.717 36.48 279.829 35.984 278.037 34.992C276.277 33.968 274.837 32.496 273.717 30.576C272.629 28.624 272.085 26.352 272.085 23.76C272.085 21.168 272.629 18.912 273.717 16.992C274.837 15.04 276.277 13.568 278.037 12.576C279.829 11.552 281.717 11.04 283.701 11.04C286.837 11.04 289.573 12.256 291.909 14.688V2.928C291.909 2.288 292.117 1.76 292.533 1.344C292.981 0.927999 293.509 0.719999 294.117 0.719999C294.725 0.719999 295.237 0.943999 295.653 1.392C296.069 1.808 296.277 2.32 296.277 2.928V34.08C296.277 34.688 296.069 35.2 295.653 35.616C295.237 36.032 294.725 36.24 294.117 36.24C293.509 36.24 292.981 36.032 292.533 35.616C292.117 35.2 291.909 34.688 291.909 34.08V32.832C289.573 35.264 286.837 36.48 283.701 36.48ZM284.325 32.4C285.797 32.4 287.173 32.08 288.453 31.44C289.765 30.768 290.917 29.888 291.909 28.8V18.72C290.917 17.632 289.765 16.768 288.453 16.128C287.173 15.456 285.797 15.12 284.325 15.12C281.957 15.12 280.053 15.872 278.613 17.376C277.173 18.88 276.453 21.008 276.453 23.76C276.453 26.512 277.173 28.64 278.613 30.144C280.053 31.648 281.957 32.4 284.325 32.4ZM306.062 17.04C305.327 17.04 304.687 16.784 304.143 16.272C303.631 15.728 303.375 15.088 303.375 14.352V14.064C303.375 13.328 303.631 12.704 304.143 12.192C304.687 11.648 305.327 11.376 306.062 11.376H306.543C307.279 11.376 307.903 11.648 308.415 12.192C308.959 12.704 309.231 13.328 309.231 14.064V14.352C309.231 15.088 308.959 15.728 308.415 16.272C307.903 16.784 307.279 17.04 306.543 17.04H306.062ZM306.062 36.144C305.327 36.144 304.687 35.888 304.143 35.376C303.631 34.832 303.375 34.192 303.375 33.456V33.168C303.375 32.432 303.631 31.808 304.143 31.296C304.687 30.752 305.327 30.48 306.062 30.48H306.543C307.279 30.48 307.903 30.752 308.415 31.296C308.959 31.808 309.231 32.432 309.231 33.168V33.456C309.231 34.192 308.959 34.832 308.415 35.376C307.903 35.888 307.279 36.144 306.543 36.144H306.062Z" fill="black"/>
</svg>
