<svg width="413" height="21" viewBox="0 0 413 21" fill="none" xmlns="http://www.w3.org/2000/svg">
<path d="M5.72 16.1C5.45333 16.1 5.21333 16.0267 5 15.88C4.8 15.72 4.64667 15.4933 4.54 15.2L0.62 3.16C0.58 3.01333 0.56 2.9 0.56 2.82C0.546667 2.56667 0.62 2.36 0.78 2.2C0.953333 2.02667 1.17333 1.94 1.44 1.94C1.65333 1.94 1.84 2.00667 2 2.14C2.16 2.27333 2.27333 2.44667 2.34 2.66L5.7 13.7L9.08 2.7C9.14667 2.47333 9.27333 2.29333 9.46 2.16C9.66 2.01333 9.88 1.94 10.12 1.94C10.36 1.94 10.5733 2.01333 10.76 2.16C10.96 2.29333 11.0933 2.47333 11.16 2.7L14.54 13.7L17.9 2.66C17.9667 2.44667 18.08 2.27333 18.24 2.14C18.4 2.00667 18.5867 1.94 18.8 1.94C19.0667 1.94 19.28 2.02667 19.44 2.2C19.6133 2.36 19.6933 2.56667 19.68 2.82C19.68 2.9 19.66 3.01333 19.62 3.16L15.7 15.2C15.5933 15.4933 15.4333 15.72 15.22 15.88C15.02 16.0267 14.7867 16.1 14.52 16.1C14.2533 16.1 14.0067 16.02 13.78 15.86C13.5667 15.6867 13.42 15.4667 13.34 15.2L10.12 5L6.9 15.2C6.82 15.4667 6.66667 15.6867 6.44 15.86C6.22667 16.02 5.98667 16.1 5.72 16.1ZM23.5941 16.2C23.0074 16.2 22.4607 16.08 21.9541 15.84C21.4607 15.6 21.0674 15.2533 20.7741 14.8C20.4807 14.3333 20.3341 13.8 20.3341 13.2C20.3341 12.2133 20.7207 11.4267 21.4941 10.84C22.2807 10.2533 23.4274 9.96 24.9341 9.96H27.3541V9.8C27.3541 8.92 27.1341 8.28667 26.6941 7.9C26.2674 7.51333 25.5941 7.32 24.6741 7.32C24.1674 7.32 23.7141 7.36 23.3141 7.44C22.9274 7.52 22.4941 7.64 22.0141 7.8C21.9074 7.82667 21.8207 7.84 21.7541 7.84C21.5541 7.84 21.3807 7.76667 21.2341 7.62C21.0874 7.47333 21.0141 7.29333 21.0141 7.08C21.0141 6.72 21.1874 6.46667 21.5341 6.32C22.6674 5.84 23.8207 5.6 24.9941 5.6C25.9141 5.6 26.6874 5.78667 27.3141 6.16C27.9541 6.53333 28.4207 7.02 28.7141 7.62C29.0207 8.20667 29.1741 8.84667 29.1741 9.54V15.2C29.1741 15.4533 29.0807 15.6667 28.8941 15.84C28.7207 16.0133 28.5074 16.1 28.2541 16.1C28.0007 16.1 27.7874 16.0133 27.6141 15.84C27.4407 15.6667 27.3541 15.4533 27.3541 15.2V14.68C26.3674 15.6933 25.1141 16.2 23.5941 16.2ZM24.2741 14.6C24.8607 14.6 25.4274 14.46 25.9741 14.18C26.5207 13.8867 26.9807 13.5267 27.3541 13.1V11.42H25.1741C23.1607 11.42 22.1541 11.9467 22.1541 13C22.1541 13.48 22.3141 13.8667 22.6341 14.16C22.9674 14.4533 23.5141 14.6 24.2741 14.6ZM33.1245 16.1C32.8712 16.1 32.6579 16.0133 32.4845 15.84C32.3112 15.6667 32.2245 15.4533 32.2245 15.2V6.62C32.2245 6.36667 32.3112 6.15333 32.4845 5.98C32.6579 5.79333 32.8712 5.7 33.1245 5.7C33.3779 5.7 33.5912 5.79333 33.7645 5.98C33.9512 6.15333 34.0445 6.36667 34.0445 6.62V7.44C34.5512 6.88 35.0979 6.43333 35.6845 6.1C36.2712 5.76667 36.9645 5.6 37.7645 5.6C38.4979 5.6 39.1312 5.77333 39.6645 6.12C40.2112 6.46667 40.6245 6.94 40.9045 7.54C41.1979 8.14 41.3445 8.8 41.3445 9.52V15.2C41.3445 15.4533 41.2512 15.6667 41.0645 15.84C40.8912 16.0133 40.6779 16.1 40.4245 16.1C40.1712 16.1 39.9579 16.0133 39.7845 15.84C39.6112 15.6667 39.5245 15.4533 39.5245 15.2V9.72C39.5245 8.09333 38.7912 7.28 37.3245 7.28C36.6579 7.28 36.0579 7.45333 35.5245 7.8C35.0045 8.14667 34.5112 8.61333 34.0445 9.2V15.2C34.0445 15.4533 33.9512 15.6667 33.7645 15.84C33.5912 16.0133 33.3779 16.1 33.1245 16.1ZM47.6977 16.2C45.751 16.2 44.7777 15.32 44.7777 13.56V7.36H43.3577C43.251 7.36 43.1577 7.32667 43.0777 7.26C43.011 7.18 42.9777 7.08667 42.9777 6.98C42.9777 6.84667 43.0377 6.73333 43.1577 6.64L45.8777 3.98C45.9977 3.86 46.111 3.8 46.2177 3.8C46.3243 3.8 46.411 3.84 46.4777 3.92C46.5577 4 46.5977 4.09333 46.5977 4.2V5.8H48.8577C49.0843 5.8 49.271 5.87333 49.4177 6.02C49.5643 6.16667 49.6377 6.35333 49.6377 6.58C49.6377 6.79333 49.5643 6.98 49.4177 7.14C49.271 7.28667 49.0843 7.36 48.8577 7.36H46.5977V13.4C46.5977 13.92 46.7177 14.2533 46.9577 14.4C47.211 14.5333 47.5243 14.6 47.8977 14.6C48.1643 14.6 48.431 14.56 48.6977 14.48C48.751 14.4667 48.8043 14.4533 48.8577 14.44C48.9243 14.4267 49.0043 14.42 49.0977 14.42C49.2843 14.42 49.451 14.4933 49.5977 14.64C49.7443 14.7733 49.8177 14.94 49.8177 15.14C49.8177 15.4467 49.6643 15.68 49.3577 15.84C48.8377 16.08 48.2843 16.2 47.6977 16.2ZM60.5297 16.2C58.583 16.2 57.6097 15.32 57.6097 13.56V7.36H56.1897C56.083 7.36 55.9897 7.32667 55.9097 7.26C55.843 7.18 55.8097 7.08667 55.8097 6.98C55.8097 6.84667 55.8697 6.73333 55.9897 6.64L58.7097 3.98C58.8297 3.86 58.943 3.8 59.0497 3.8C59.1564 3.8 59.243 3.84 59.3097 3.92C59.3897 4 59.4297 4.09333 59.4297 4.2V5.8H61.6897C61.9164 5.8 62.103 5.87333 62.2497 6.02C62.3964 6.16667 62.4697 6.35333 62.4697 6.58C62.4697 6.79333 62.3964 6.98 62.2497 7.14C62.103 7.28667 61.9164 7.36 61.6897 7.36H59.4297V13.4C59.4297 13.92 59.5497 14.2533 59.7897 14.4C60.043 14.5333 60.3564 14.6 60.7297 14.6C60.9964 14.6 61.263 14.56 61.5297 14.48C61.583 14.4667 61.6364 14.4533 61.6897 14.44C61.7564 14.4267 61.8364 14.42 61.9297 14.42C62.1164 14.42 62.283 14.4933 62.4297 14.64C62.5764 14.7733 62.6497 14.94 62.6497 15.14C62.6497 15.4467 62.4964 15.68 62.1897 15.84C61.6697 16.08 61.1164 16.2 60.5297 16.2ZM69.0097 16.2C67.983 16.2 67.083 15.98 66.3097 15.54C65.5364 15.1 64.9364 14.48 64.5097 13.68C64.0964 12.8667 63.8897 11.94 63.8897 10.9C63.8897 9.86 64.0964 8.94 64.5097 8.14C64.9364 7.32667 65.5364 6.7 66.3097 6.26C67.083 5.82 67.983 5.6 69.0097 5.6C70.023 5.6 70.9164 5.82 71.6897 6.26C72.463 6.7 73.063 7.32667 73.4897 8.14C73.9164 8.94 74.1297 9.86 74.1297 10.9C74.1297 11.94 73.9164 12.8667 73.4897 13.68C73.063 14.48 72.463 15.1 71.6897 15.54C70.9164 15.98 70.023 16.2 69.0097 16.2ZM69.0097 14.54C69.5564 14.54 70.0764 14.4133 70.5697 14.16C71.0764 13.9067 71.4897 13.5067 71.8097 12.96C72.143 12.4133 72.3097 11.72 72.3097 10.88C72.3097 10.0533 72.143 9.36667 71.8097 8.82C71.4897 8.27333 71.0764 7.88 70.5697 7.64C70.0764 7.38667 69.5564 7.26 69.0097 7.26C68.4497 7.26 67.9164 7.38667 67.4097 7.64C66.9164 7.88 66.5097 8.27333 66.1897 8.82C65.8697 9.36667 65.7097 10.0533 65.7097 10.88C65.7097 11.72 65.8697 12.4133 66.1897 12.96C66.5097 13.5067 66.9164 13.9067 67.4097 14.16C67.9164 14.4133 68.4497 14.54 69.0097 14.54ZM86.593 16.2C85.633 16.2 84.7463 15.9867 83.933 15.56C83.1196 15.1333 82.4663 14.52 81.973 13.72C81.493 12.92 81.253 11.98 81.253 10.9C81.253 9.82 81.493 8.88 81.973 8.08C82.4663 7.28 83.1196 6.66667 83.933 6.24C84.7463 5.81333 85.633 5.6 86.593 5.6C87.2996 5.6 87.9063 5.69333 88.413 5.88C88.933 6.05333 89.413 6.28 89.853 6.56C90.1196 6.73333 90.253 6.96667 90.253 7.26C90.253 7.46 90.173 7.64667 90.013 7.82C89.8663 7.98 89.693 8.06 89.493 8.06C89.3463 8.06 89.1996 8.02 89.053 7.94C88.613 7.71333 88.233 7.55333 87.913 7.46C87.6063 7.35333 87.2196 7.3 86.753 7.3C85.6063 7.3 84.7063 7.63333 84.053 8.3C83.3996 8.95333 83.073 9.82 83.073 10.9C83.073 11.98 83.3996 12.8533 84.053 13.52C84.7063 14.1733 85.6063 14.5 86.753 14.5C87.2196 14.5 87.6063 14.4533 87.913 14.36C88.233 14.2533 88.613 14.0867 89.053 13.86C89.1996 13.78 89.3463 13.74 89.493 13.74C89.693 13.74 89.8663 13.8267 90.013 14C90.173 14.16 90.253 14.34 90.253 14.54C90.253 14.8333 90.1196 15.0667 89.853 15.24C89.413 15.52 88.933 15.7533 88.413 15.94C87.9063 16.1133 87.2996 16.2 86.593 16.2ZM93.437 16.1C93.1837 16.1 92.9704 16.0133 92.797 15.84C92.6237 15.6667 92.537 15.4533 92.537 15.2V2.22C92.537 1.96667 92.6237 1.75333 92.797 1.58C92.9704 1.39333 93.1837 1.3 93.437 1.3C93.6904 1.3 93.9037 1.39333 94.077 1.58C94.2637 1.75333 94.357 1.96667 94.357 2.22V7.44C94.8637 6.88 95.4104 6.43333 95.997 6.1C96.5837 5.76667 97.277 5.6 98.077 5.6C98.8104 5.6 99.4437 5.77333 99.977 6.12C100.524 6.46667 100.937 6.94 101.217 7.54C101.51 8.14 101.657 8.8 101.657 9.52V15.2C101.657 15.4533 101.564 15.6667 101.377 15.84C101.204 16.0133 100.99 16.1 100.737 16.1C100.484 16.1 100.27 16.0133 100.097 15.84C99.9237 15.6667 99.837 15.4533 99.837 15.2V9.72C99.837 8.09333 99.1037 7.28 97.637 7.28C96.9704 7.28 96.3704 7.45333 95.837 7.8C95.317 8.14667 94.8237 8.61333 94.357 9.2V15.2C94.357 15.4533 94.2637 15.6667 94.077 15.84C93.9037 16.0133 93.6904 16.1 93.437 16.1ZM105.585 3.72C105.305 3.72 105.065 3.62 104.865 3.42C104.665 3.22 104.565 2.98 104.565 2.7V2.62C104.565 2.34 104.665 2.1 104.865 1.9C105.065 1.7 105.305 1.6 105.585 1.6H105.705C105.985 1.6 106.225 1.7 106.425 1.9C106.625 2.1 106.725 2.34 106.725 2.62V2.7C106.725 2.98 106.625 3.22 106.425 3.42C106.225 3.62 105.985 3.72 105.705 3.72H105.585ZM105.625 16.1C105.371 16.1 105.158 16.0133 104.985 15.84C104.811 15.6667 104.725 15.4533 104.725 15.2V6.62C104.725 6.36667 104.811 6.15333 104.985 5.98C105.158 5.79333 105.371 5.7 105.625 5.7C105.891 5.7 106.111 5.78667 106.285 5.96C106.458 6.13333 106.545 6.35333 106.545 6.62V15.2C106.545 15.4533 106.451 15.6667 106.265 15.84C106.091 16.0133 105.878 16.1 105.625 16.1ZM110.605 16.1C110.352 16.1 110.138 16.0133 109.965 15.84C109.792 15.6667 109.705 15.4533 109.705 15.2V2.22C109.705 1.96667 109.792 1.75333 109.965 1.58C110.138 1.39333 110.352 1.3 110.605 1.3C110.872 1.3 111.092 1.38667 111.265 1.56C111.438 1.73333 111.525 1.95333 111.525 2.22V15.2C111.525 15.4533 111.432 15.6667 111.245 15.84C111.072 16.0133 110.858 16.1 110.605 16.1ZM115.585 16.1C115.332 16.1 115.119 16.0133 114.945 15.84C114.772 15.6667 114.685 15.4533 114.685 15.2V2.22C114.685 1.96667 114.772 1.75333 114.945 1.58C115.119 1.39333 115.332 1.3 115.585 1.3C115.852 1.3 116.072 1.38667 116.245 1.56C116.419 1.73333 116.505 1.95333 116.505 2.22V15.2C116.505 15.4533 116.412 15.6667 116.225 15.84C116.052 16.0133 115.839 16.1 115.585 16.1ZM119.866 17.9C119.626 17.9 119.426 17.82 119.266 17.66C119.119 17.5 119.046 17.3067 119.046 17.08C119.046 17 119.066 16.9 119.106 16.78L124.406 1.28C124.459 1.12 124.553 0.986666 124.686 0.879999C124.819 0.773332 124.986 0.719999 125.186 0.719999C125.426 0.719999 125.619 0.799999 125.766 0.959999C125.926 1.12 126.006 1.31333 126.006 1.54C126.006 1.62 125.986 1.72 125.946 1.84L120.646 17.34C120.593 17.5 120.499 17.6333 120.366 17.74C120.233 17.8467 120.066 17.9 119.866 17.9ZM129.433 16.1C129.18 16.1 128.966 16.0133 128.793 15.84C128.62 15.6667 128.533 15.4533 128.533 15.2V2.22C128.533 1.96667 128.62 1.75333 128.793 1.58C128.966 1.39333 129.18 1.3 129.433 1.3C129.686 1.3 129.9 1.39333 130.073 1.58C130.26 1.75333 130.353 1.96667 130.353 2.22V7.44C130.86 6.88 131.406 6.43333 131.993 6.1C132.58 5.76667 133.273 5.6 134.073 5.6C134.806 5.6 135.44 5.77333 135.973 6.12C136.52 6.46667 136.933 6.94 137.213 7.54C137.506 8.14 137.653 8.8 137.653 9.52V15.2C137.653 15.4533 137.56 15.6667 137.373 15.84C137.2 16.0133 136.986 16.1 136.733 16.1C136.48 16.1 136.266 16.0133 136.093 15.84C135.92 15.6667 135.833 15.4533 135.833 15.2V9.72C135.833 8.09333 135.1 7.28 133.633 7.28C132.966 7.28 132.366 7.45333 131.833 7.8C131.313 8.14667 130.82 8.61333 130.353 9.2V15.2C130.353 15.4533 130.26 15.6667 130.073 15.84C129.9 16.0133 129.686 16.1 129.433 16.1ZM143.321 16.2C142.734 16.2 142.187 16.08 141.681 15.84C141.187 15.6 140.794 15.2533 140.501 14.8C140.207 14.3333 140.061 13.8 140.061 13.2C140.061 12.2133 140.447 11.4267 141.221 10.84C142.007 10.2533 143.154 9.96 144.661 9.96H147.081V9.8C147.081 8.92 146.861 8.28667 146.421 7.9C145.994 7.51333 145.321 7.32 144.401 7.32C143.894 7.32 143.441 7.36 143.041 7.44C142.654 7.52 142.221 7.64 141.741 7.8C141.634 7.82667 141.547 7.84 141.481 7.84C141.281 7.84 141.107 7.76667 140.961 7.62C140.814 7.47333 140.741 7.29333 140.741 7.08C140.741 6.72 140.914 6.46667 141.261 6.32C142.394 5.84 143.547 5.6 144.721 5.6C145.641 5.6 146.414 5.78667 147.041 6.16C147.681 6.53333 148.147 7.02 148.441 7.62C148.747 8.20667 148.901 8.84667 148.901 9.54V15.2C148.901 15.4533 148.807 15.6667 148.621 15.84C148.447 16.0133 148.234 16.1 147.981 16.1C147.727 16.1 147.514 16.0133 147.341 15.84C147.167 15.6667 147.081 15.4533 147.081 15.2V14.68C146.094 15.6933 144.841 16.2 143.321 16.2ZM144.001 14.6C144.587 14.6 145.154 14.46 145.701 14.18C146.247 13.8867 146.707 13.5267 147.081 13.1V11.42H144.901C142.887 11.42 141.881 11.9467 141.881 13C141.881 13.48 142.041 13.8667 142.361 14.16C142.694 14.4533 143.241 14.6 144.001 14.6ZM155.395 16.1C155.155 16.1 154.935 16.0333 154.735 15.9C154.535 15.7533 154.389 15.5733 154.295 15.36L150.815 7.04C150.749 6.88 150.715 6.74 150.715 6.62C150.715 6.36667 150.802 6.15333 150.975 5.98C151.149 5.79333 151.362 5.7 151.615 5.7C151.789 5.7 151.949 5.75333 152.095 5.86C152.255 5.95333 152.369 6.07333 152.435 6.22L155.495 13.98L158.555 6.22C158.622 6.07333 158.729 5.95333 158.875 5.86C159.035 5.75333 159.202 5.7 159.375 5.7C159.629 5.7 159.842 5.79333 160.015 5.98C160.189 6.15333 160.275 6.36667 160.275 6.62C160.275 6.74 160.242 6.88 160.175 7.04L156.695 15.36C156.602 15.5733 156.455 15.7533 156.255 15.9C156.055 16.0333 155.835 16.1 155.595 16.1H155.395ZM166.804 16.2C165.177 16.2 163.904 15.74 162.984 14.82C162.077 13.8867 161.624 12.58 161.624 10.9C161.624 9.95333 161.797 9.08 162.144 8.28C162.491 7.48 163.024 6.83333 163.744 6.34C164.464 5.84667 165.351 5.6 166.404 5.6C167.391 5.6 168.244 5.83333 168.964 6.3C169.684 6.75333 170.231 7.36667 170.604 8.14C170.977 8.9 171.164 9.73333 171.164 10.64C171.164 10.8933 171.077 11.1067 170.904 11.28C170.744 11.4533 170.524 11.54 170.244 11.54H163.464C163.571 12.4733 163.917 13.2 164.504 13.72C165.091 14.24 165.911 14.5 166.964 14.5C167.524 14.5 168.011 14.4467 168.424 14.34C168.851 14.2333 169.264 14.08 169.664 13.88C169.771 13.8267 169.891 13.8 170.024 13.8C170.237 13.8 170.424 13.8733 170.584 14.02C170.744 14.1667 170.824 14.3533 170.824 14.58C170.824 14.8733 170.651 15.12 170.304 15.32C169.784 15.6133 169.271 15.8333 168.764 15.98C168.257 16.1267 167.604 16.2 166.804 16.2ZM169.364 10.06C169.324 9.40667 169.151 8.86 168.844 8.42C168.551 7.98 168.184 7.66 167.744 7.46C167.304 7.24667 166.857 7.14 166.404 7.14C165.951 7.14 165.504 7.24667 165.064 7.46C164.624 7.66 164.257 7.98 163.964 8.42C163.671 8.86 163.504 9.40667 163.464 10.06H169.364ZM181.368 16.2C180.781 16.2 180.234 16.08 179.728 15.84C179.234 15.6 178.841 15.2533 178.548 14.8C178.254 14.3333 178.108 13.8 178.108 13.2C178.108 12.2133 178.494 11.4267 179.268 10.84C180.054 10.2533 181.201 9.96 182.708 9.96H185.128V9.8C185.128 8.92 184.908 8.28667 184.468 7.9C184.041 7.51333 183.368 7.32 182.448 7.32C181.941 7.32 181.488 7.36 181.088 7.44C180.701 7.52 180.268 7.64 179.788 7.8C179.681 7.82667 179.594 7.84 179.528 7.84C179.328 7.84 179.154 7.76667 179.008 7.62C178.861 7.47333 178.788 7.29333 178.788 7.08C178.788 6.72 178.961 6.46667 179.308 6.32C180.441 5.84 181.594 5.6 182.768 5.6C183.688 5.6 184.461 5.78667 185.088 6.16C185.728 6.53333 186.194 7.02 186.488 7.62C186.794 8.20667 186.948 8.84667 186.948 9.54V15.2C186.948 15.4533 186.854 15.6667 186.668 15.84C186.494 16.0133 186.281 16.1 186.028 16.1C185.774 16.1 185.561 16.0133 185.388 15.84C185.214 15.6667 185.128 15.4533 185.128 15.2V14.68C184.141 15.6933 182.888 16.2 181.368 16.2ZM182.048 14.6C182.634 14.6 183.201 14.46 183.748 14.18C184.294 13.8867 184.754 13.5267 185.128 13.1V11.42H182.948C180.934 11.42 179.928 11.9467 179.928 13C179.928 13.48 180.088 13.8667 180.408 14.16C180.741 14.4533 181.288 14.6 182.048 14.6ZM196.093 16.1C195.84 16.1 195.627 16.0133 195.453 15.84C195.28 15.6667 195.193 15.4533 195.193 15.2V2.22C195.193 1.96667 195.28 1.75333 195.453 1.58C195.627 1.39333 195.84 1.3 196.093 1.3C196.347 1.3 196.56 1.39333 196.733 1.58C196.92 1.75333 197.013 1.96667 197.013 2.22V7.44C197.52 6.88 198.067 6.43333 198.653 6.1C199.24 5.76667 199.933 5.6 200.733 5.6C201.467 5.6 202.1 5.77333 202.633 6.12C203.18 6.46667 203.593 6.94 203.873 7.54C204.167 8.14 204.313 8.8 204.313 9.52V15.2C204.313 15.4533 204.22 15.6667 204.033 15.84C203.86 16.0133 203.647 16.1 203.393 16.1C203.14 16.1 202.927 16.0133 202.753 15.84C202.58 15.6667 202.493 15.4533 202.493 15.2V9.72C202.493 8.09333 201.76 7.28 200.293 7.28C199.627 7.28 199.027 7.45333 198.493 7.8C197.973 8.14667 197.48 8.61333 197.013 9.2V15.2C197.013 15.4533 196.92 15.6667 196.733 15.84C196.56 16.0133 196.347 16.1 196.093 16.1ZM209.981 16.2C209.394 16.2 208.847 16.08 208.341 15.84C207.847 15.6 207.454 15.2533 207.161 14.8C206.867 14.3333 206.721 13.8 206.721 13.2C206.721 12.2133 207.107 11.4267 207.881 10.84C208.667 10.2533 209.814 9.96 211.321 9.96H213.741V9.8C213.741 8.92 213.521 8.28667 213.081 7.9C212.654 7.51333 211.981 7.32 211.061 7.32C210.554 7.32 210.101 7.36 209.701 7.44C209.314 7.52 208.881 7.64 208.401 7.8C208.294 7.82667 208.207 7.84 208.141 7.84C207.941 7.84 207.767 7.76667 207.621 7.62C207.474 7.47333 207.401 7.29333 207.401 7.08C207.401 6.72 207.574 6.46667 207.921 6.32C209.054 5.84 210.207 5.6 211.381 5.6C212.301 5.6 213.074 5.78667 213.701 6.16C214.341 6.53333 214.807 7.02 215.101 7.62C215.407 8.20667 215.561 8.84667 215.561 9.54V15.2C215.561 15.4533 215.467 15.6667 215.281 15.84C215.107 16.0133 214.894 16.1 214.641 16.1C214.387 16.1 214.174 16.0133 214.001 15.84C213.827 15.6667 213.741 15.4533 213.741 15.2V14.68C212.754 15.6933 211.501 16.2 209.981 16.2ZM210.661 14.6C211.247 14.6 211.814 14.46 212.361 14.18C212.907 13.8867 213.367 13.5267 213.741 13.1V11.42H211.561C209.547 11.42 208.541 11.9467 208.541 13C208.541 13.48 208.701 13.8667 209.021 14.16C209.354 14.4533 209.901 14.6 210.661 14.6ZM219.511 20.7C219.258 20.7 219.045 20.6067 218.871 20.42C218.698 20.2467 218.611 20.0333 218.611 19.78V6.6C218.611 6.34667 218.698 6.13333 218.871 5.96C219.045 5.78667 219.258 5.7 219.511 5.7C219.765 5.7 219.978 5.78667 220.151 5.96C220.338 6.13333 220.431 6.34667 220.431 6.6V7.12C221.405 6.10667 222.545 5.6 223.851 5.6C224.678 5.6 225.458 5.81333 226.191 6.24C226.938 6.65333 227.538 7.26667 227.991 8.08C228.458 8.88 228.691 9.82 228.691 10.9C228.691 11.98 228.458 12.9267 227.991 13.74C227.538 14.54 226.938 15.1533 226.191 15.58C225.458 15.9933 224.678 16.2 223.851 16.2C222.545 16.2 221.405 15.6933 220.431 14.68V19.78C220.431 20.0467 220.345 20.2667 220.171 20.44C219.998 20.6133 219.778 20.7 219.511 20.7ZM223.591 14.5C224.578 14.5 225.371 14.1867 225.971 13.56C226.571 12.9333 226.871 12.0467 226.871 10.9C226.871 9.75333 226.571 8.86667 225.971 8.24C225.371 7.61333 224.578 7.3 223.591 7.3C222.978 7.3 222.398 7.44 221.851 7.72C221.318 7.98667 220.845 8.34667 220.431 8.8V13C220.845 13.4533 221.318 13.82 221.851 14.1C222.398 14.3667 222.978 14.5 223.591 14.5ZM232.128 20.7C231.875 20.7 231.662 20.6067 231.488 20.42C231.315 20.2467 231.228 20.0333 231.228 19.78V6.6C231.228 6.34667 231.315 6.13333 231.488 5.96C231.662 5.78667 231.875 5.7 232.128 5.7C232.382 5.7 232.595 5.78667 232.768 5.96C232.955 6.13333 233.048 6.34667 233.048 6.6V7.12C234.022 6.10667 235.162 5.6 236.468 5.6C237.295 5.6 238.075 5.81333 238.808 6.24C239.555 6.65333 240.155 7.26667 240.608 8.08C241.075 8.88 241.308 9.82 241.308 10.9C241.308 11.98 241.075 12.9267 240.608 13.74C240.155 14.54 239.555 15.1533 238.808 15.58C238.075 15.9933 237.295 16.2 236.468 16.2C235.162 16.2 234.022 15.6933 233.048 14.68V19.78C233.048 20.0467 232.962 20.2667 232.788 20.44C232.615 20.6133 232.395 20.7 232.128 20.7ZM236.208 14.5C237.195 14.5 237.988 14.1867 238.588 13.56C239.188 12.9333 239.488 12.0467 239.488 10.9C239.488 9.75333 239.188 8.86667 238.588 8.24C237.988 7.61333 237.195 7.3 236.208 7.3C235.595 7.3 235.015 7.44 234.468 7.72C233.935 7.98667 233.462 8.34667 233.048 8.8V13C233.462 13.4533 233.935 13.82 234.468 14.1C235.015 14.3667 235.595 14.5 236.208 14.5ZM245.989 20.7C245.749 20.7 245.542 20.6133 245.369 20.44C245.209 20.2667 245.129 20.06 245.129 19.82C245.129 19.7133 245.149 19.6067 245.189 19.5L246.489 16.16L242.729 7C242.676 6.86667 242.649 6.74 242.649 6.62C242.649 6.36667 242.736 6.15333 242.909 5.98C243.082 5.79333 243.296 5.7 243.549 5.7C243.736 5.7 243.902 5.75333 244.049 5.86C244.209 5.96667 244.322 6.1 244.389 6.26L247.469 13.9L250.609 6.3C250.782 5.9 251.062 5.7 251.449 5.7C251.702 5.7 251.916 5.79333 252.089 5.98C252.262 6.15333 252.349 6.36667 252.349 6.62C252.349 6.74 252.329 6.85333 252.289 6.96L246.829 20.08C246.642 20.4933 246.362 20.7 245.989 20.7ZM263.166 16.2C261.22 16.2 260.246 15.32 260.246 13.56V7.36H258.826C258.72 7.36 258.626 7.32667 258.546 7.26C258.48 7.18 258.446 7.08667 258.446 6.98C258.446 6.84667 258.506 6.73333 258.626 6.64L261.346 3.98C261.466 3.86 261.58 3.8 261.686 3.8C261.793 3.8 261.88 3.84 261.946 3.92C262.026 4 262.066 4.09333 262.066 4.2V5.8H264.326C264.553 5.8 264.74 5.87333 264.886 6.02C265.033 6.16667 265.106 6.35333 265.106 6.58C265.106 6.79333 265.033 6.98 264.886 7.14C264.74 7.28667 264.553 7.36 264.326 7.36H262.066V13.4C262.066 13.92 262.186 14.2533 262.426 14.4C262.68 14.5333 262.993 14.6 263.366 14.6C263.633 14.6 263.9 14.56 264.166 14.48C264.22 14.4667 264.273 14.4533 264.326 14.44C264.393 14.4267 264.473 14.42 264.566 14.42C264.753 14.42 264.92 14.4933 265.066 14.64C265.213 14.7733 265.286 14.94 265.286 15.14C265.286 15.4467 265.133 15.68 264.826 15.84C264.306 16.08 263.753 16.2 263.166 16.2ZM268.143 3.72C267.863 3.72 267.623 3.62 267.423 3.42C267.223 3.22 267.123 2.98 267.123 2.7V2.62C267.123 2.34 267.223 2.1 267.423 1.9C267.623 1.7 267.863 1.6 268.143 1.6H268.263C268.543 1.6 268.783 1.7 268.983 1.9C269.183 2.1 269.283 2.34 269.283 2.62V2.7C269.283 2.98 269.183 3.22 268.983 3.42C268.783 3.62 268.543 3.72 268.263 3.72H268.143ZM268.183 16.1C267.93 16.1 267.716 16.0133 267.543 15.84C267.37 15.6667 267.283 15.4533 267.283 15.2V6.62C267.283 6.36667 267.37 6.15333 267.543 5.98C267.716 5.79333 267.93 5.7 268.183 5.7C268.45 5.7 268.67 5.78667 268.843 5.96C269.016 6.13333 269.103 6.35333 269.103 6.62V15.2C269.103 15.4533 269.01 15.6667 268.823 15.84C268.65 16.0133 268.436 16.1 268.183 16.1ZM273.164 16.1C272.91 16.1 272.697 16.0133 272.524 15.84C272.35 15.6667 272.264 15.4533 272.264 15.2V6.62C272.264 6.36667 272.35 6.15333 272.524 5.98C272.697 5.79333 272.91 5.7 273.164 5.7C273.417 5.7 273.63 5.79333 273.804 5.98C273.99 6.15333 274.084 6.36667 274.084 6.62V7.44C274.457 6.90667 274.904 6.46667 275.424 6.12C275.957 5.77333 276.644 5.6 277.484 5.6C278.23 5.6 278.87 5.8 279.404 6.2C279.937 6.6 280.317 7.08667 280.544 7.66C281.37 6.28667 282.597 5.6 284.224 5.6C284.97 5.6 285.59 5.78667 286.084 6.16C286.59 6.53333 286.964 7.01333 287.204 7.6C287.444 8.18667 287.564 8.8 287.564 9.44V15.2C287.564 15.4533 287.47 15.6667 287.284 15.84C287.11 16.0133 286.897 16.1 286.644 16.1C286.39 16.1 286.177 16.0133 286.004 15.84C285.83 15.6667 285.744 15.4533 285.744 15.2V9.8C285.744 8.93333 285.59 8.3 285.284 7.9C284.977 7.48667 284.45 7.28 283.704 7.28C283.024 7.28 282.457 7.46 282.004 7.82C281.564 8.16667 281.17 8.62667 280.824 9.2V15.2C280.824 15.4533 280.73 15.6667 280.544 15.84C280.37 16.0133 280.157 16.1 279.904 16.1C279.65 16.1 279.437 16.0133 279.264 15.84C279.09 15.6667 279.004 15.4533 279.004 15.2V9.8C279.004 8.93333 278.85 8.3 278.544 7.9C278.237 7.48667 277.71 7.28 276.964 7.28C276.284 7.28 275.717 7.46 275.264 7.82C274.824 8.16667 274.43 8.62667 274.084 9.2V15.2C274.084 15.4533 273.99 15.6667 273.804 15.84C273.63 16.0133 273.417 16.1 273.164 16.1ZM295.183 16.2C293.556 16.2 292.283 15.74 291.363 14.82C290.456 13.8867 290.003 12.58 290.003 10.9C290.003 9.95333 290.176 9.08 290.523 8.28C290.87 7.48 291.403 6.83333 292.123 6.34C292.843 5.84667 293.73 5.6 294.783 5.6C295.77 5.6 296.623 5.83333 297.343 6.3C298.063 6.75333 298.61 7.36667 298.983 8.14C299.356 8.9 299.543 9.73333 299.543 10.64C299.543 10.8933 299.456 11.1067 299.283 11.28C299.123 11.4533 298.903 11.54 298.623 11.54H291.843C291.95 12.4733 292.296 13.2 292.883 13.72C293.47 14.24 294.29 14.5 295.343 14.5C295.903 14.5 296.39 14.4467 296.803 14.34C297.23 14.2333 297.643 14.08 298.043 13.88C298.15 13.8267 298.27 13.8 298.403 13.8C298.616 13.8 298.803 13.8733 298.963 14.02C299.123 14.1667 299.203 14.3533 299.203 14.58C299.203 14.8733 299.03 15.12 298.683 15.32C298.163 15.6133 297.65 15.8333 297.143 15.98C296.636 16.1267 295.983 16.2 295.183 16.2ZM297.743 10.06C297.703 9.40667 297.53 8.86 297.223 8.42C296.93 7.98 296.563 7.66 296.123 7.46C295.683 7.24667 295.236 7.14 294.783 7.14C294.33 7.14 293.883 7.24667 293.443 7.46C293.003 7.66 292.636 7.98 292.343 8.42C292.05 8.86 291.883 9.40667 291.843 10.06H297.743ZM304.459 12.28C304.206 12.28 303.992 12.2067 303.819 12.06C303.659 11.9 303.579 11.7133 303.579 11.5C303.579 10.9 303.686 10.3733 303.899 9.92C304.112 9.46667 304.359 9.09333 304.639 8.8C304.932 8.49333 305.319 8.14667 305.799 7.76C306.306 7.36 306.679 7.01333 306.919 6.72C307.159 6.42667 307.279 6.09333 307.279 5.72C307.279 4.26667 306.326 3.54 304.419 3.54C303.952 3.54 303.492 3.6 303.039 3.72C302.599 3.82667 302.206 3.98667 301.859 4.2C301.699 4.30667 301.532 4.36 301.359 4.36C301.146 4.36 300.959 4.28 300.799 4.12C300.639 3.96 300.559 3.77333 300.559 3.56C300.559 3.25333 300.726 3 301.059 2.8C301.606 2.45333 302.159 2.20667 302.719 2.06C303.279 1.91333 303.899 1.84 304.579 1.84C305.939 1.84 307.026 2.18 307.839 2.86C308.666 3.54 309.079 4.46 309.079 5.62C309.079 6.14 308.986 6.6 308.799 7C308.612 7.38667 308.386 7.72 308.119 8C307.852 8.26667 307.499 8.57333 307.059 8.92C306.486 9.37333 306.052 9.78667 305.759 10.16C305.479 10.52 305.339 10.9667 305.339 11.5C305.339 11.7133 305.252 11.9 305.079 12.06C304.906 12.2067 304.699 12.28 304.459 12.28ZM304.419 16.08C304.099 16.08 303.819 15.9667 303.579 15.74C303.352 15.5 303.239 15.2133 303.239 14.88C303.239 14.56 303.352 14.2867 303.579 14.06C303.819 13.82 304.099 13.7 304.419 13.7C304.752 13.7 305.032 13.82 305.259 14.06C305.499 14.2867 305.619 14.56 305.619 14.88C305.619 15.2133 305.499 15.5 305.259 15.74C305.032 15.9667 304.752 16.08 304.419 16.08ZM323.276 16.2C321.942 16.2 320.742 15.9133 319.676 15.34C318.622 14.7533 317.789 13.92 317.176 12.84C316.576 11.7467 316.276 10.4733 316.276 9.02C316.276 7.56667 316.576 6.3 317.176 5.22C317.789 4.12667 318.622 3.29333 319.676 2.72C320.742 2.13333 321.942 1.84 323.276 1.84C324.182 1.84 324.989 1.94667 325.696 2.16C326.416 2.37333 327.129 2.68 327.836 3.08C328.129 3.24 328.276 3.49333 328.276 3.84C328.276 4.04 328.202 4.22 328.056 4.38C327.909 4.52667 327.716 4.6 327.476 4.6C327.342 4.6 327.222 4.57333 327.116 4.52C326.529 4.21333 325.956 3.98 325.396 3.82C324.836 3.66 324.189 3.58 323.456 3.58C322.309 3.58 321.329 3.82 320.516 4.3C319.716 4.76667 319.109 5.41333 318.696 6.24C318.296 7.05333 318.096 7.98 318.096 9.02C318.096 10.06 318.296 10.9933 318.696 11.82C319.109 12.6333 319.716 13.28 320.516 13.76C321.329 14.2267 322.309 14.46 323.456 14.46C324.189 14.46 324.836 14.38 325.396 14.22C325.956 14.06 326.529 13.8267 327.116 13.52C327.222 13.4667 327.342 13.44 327.476 13.44C327.716 13.44 327.909 13.5133 328.056 13.66C328.202 13.8067 328.276 13.9867 328.276 14.2C328.276 14.5467 328.129 14.8 327.836 14.96C327.129 15.36 326.416 15.6667 325.696 15.88C324.989 16.0933 324.182 16.2 323.276 16.2ZM331.562 16.1C331.309 16.1 331.095 16.0133 330.922 15.84C330.749 15.6667 330.662 15.4533 330.662 15.2V2.22C330.662 1.96667 330.749 1.75333 330.922 1.58C331.095 1.39333 331.309 1.3 331.562 1.3C331.829 1.3 332.049 1.38667 332.222 1.56C332.395 1.73333 332.482 1.95333 332.482 2.22V15.2C332.482 15.4533 332.389 15.6667 332.202 15.84C332.029 16.0133 331.815 16.1 331.562 16.1ZM336.503 3.72C336.223 3.72 335.983 3.62 335.783 3.42C335.583 3.22 335.483 2.98 335.483 2.7V2.62C335.483 2.34 335.583 2.1 335.783 1.9C335.983 1.7 336.223 1.6 336.503 1.6H336.623C336.903 1.6 337.143 1.7 337.343 1.9C337.543 2.1 337.643 2.34 337.643 2.62V2.7C337.643 2.98 337.543 3.22 337.343 3.42C337.143 3.62 336.903 3.72 336.623 3.72H336.503ZM336.543 16.1C336.289 16.1 336.076 16.0133 335.903 15.84C335.729 15.6667 335.643 15.4533 335.643 15.2V6.62C335.643 6.36667 335.729 6.15333 335.903 5.98C336.076 5.79333 336.289 5.7 336.543 5.7C336.809 5.7 337.029 5.78667 337.203 5.96C337.376 6.13333 337.463 6.35333 337.463 6.62V15.2C337.463 15.4533 337.369 15.6667 337.183 15.84C337.009 16.0133 336.796 16.1 336.543 16.1ZM345.343 16.2C344.383 16.2 343.496 15.9867 342.683 15.56C341.87 15.1333 341.216 14.52 340.723 13.72C340.243 12.92 340.003 11.98 340.003 10.9C340.003 9.82 340.243 8.88 340.723 8.08C341.216 7.28 341.87 6.66667 342.683 6.24C343.496 5.81333 344.383 5.6 345.343 5.6C346.05 5.6 346.656 5.69333 347.163 5.88C347.683 6.05333 348.163 6.28 348.603 6.56C348.87 6.73333 349.003 6.96667 349.003 7.26C349.003 7.46 348.923 7.64667 348.763 7.82C348.616 7.98 348.443 8.06 348.243 8.06C348.096 8.06 347.95 8.02 347.803 7.94C347.363 7.71333 346.983 7.55333 346.663 7.46C346.356 7.35333 345.97 7.3 345.503 7.3C344.356 7.3 343.456 7.63333 342.803 8.3C342.15 8.95333 341.823 9.82 341.823 10.9C341.823 11.98 342.15 12.8533 342.803 13.52C343.456 14.1733 344.356 14.5 345.503 14.5C345.97 14.5 346.356 14.4533 346.663 14.36C346.983 14.2533 347.363 14.0867 347.803 13.86C347.95 13.78 348.096 13.74 348.243 13.74C348.443 13.74 348.616 13.8267 348.763 14C348.923 14.16 349.003 14.34 349.003 14.54C349.003 14.8333 348.87 15.0667 348.603 15.24C348.163 15.52 347.683 15.7533 347.163 15.94C346.656 16.1133 346.05 16.2 345.343 16.2ZM352.187 16.1C351.934 16.1 351.72 16.0133 351.547 15.84C351.374 15.6667 351.287 15.4533 351.287 15.2V2.22C351.287 1.96667 351.374 1.75333 351.547 1.58C351.72 1.39333 351.934 1.3 352.187 1.3C352.44 1.3 352.654 1.39333 352.827 1.58C353.014 1.75333 353.107 1.96667 353.107 2.22V10.4L357.867 6C358.067 5.82667 358.267 5.74 358.467 5.74C358.774 5.74 358.994 5.82667 359.127 6C359.274 6.17333 359.347 6.38 359.347 6.62C359.347 6.84667 359.234 7.07333 359.007 7.3L356.127 9.88L359.747 14.68C359.88 14.8533 359.947 15.0333 359.947 15.22C359.947 15.4867 359.86 15.7 359.687 15.86C359.514 16.02 359.294 16.1 359.027 16.1C358.894 16.1 358.76 16.0667 358.627 16C358.494 15.9333 358.38 15.84 358.287 15.72L354.847 11.04L353.107 12.62V15.2C353.107 15.4533 353.014 15.6667 352.827 15.84C352.654 16.0133 352.44 16.1 352.187 16.1ZM368.281 16.1C368.027 16.1 367.814 16.0133 367.641 15.84C367.467 15.6667 367.381 15.4533 367.381 15.2V2.22C367.381 1.96667 367.467 1.75333 367.641 1.58C367.814 1.39333 368.027 1.3 368.281 1.3C368.534 1.3 368.747 1.39333 368.921 1.58C369.107 1.75333 369.201 1.96667 369.201 2.22V7.44C369.707 6.88 370.254 6.43333 370.841 6.1C371.427 5.76667 372.121 5.6 372.921 5.6C373.654 5.6 374.287 5.77333 374.821 6.12C375.367 6.46667 375.781 6.94 376.061 7.54C376.354 8.14 376.501 8.8 376.501 9.52V15.2C376.501 15.4533 376.407 15.6667 376.221 15.84C376.047 16.0133 375.834 16.1 375.581 16.1C375.327 16.1 375.114 16.0133 374.941 15.84C374.767 15.6667 374.681 15.4533 374.681 15.2V9.72C374.681 8.09333 373.947 7.28 372.481 7.28C371.814 7.28 371.214 7.45333 370.681 7.8C370.161 8.14667 369.667 8.61333 369.201 9.2V15.2C369.201 15.4533 369.107 15.6667 368.921 15.84C368.747 16.0133 368.534 16.1 368.281 16.1ZM384.128 16.2C382.502 16.2 381.228 15.74 380.308 14.82C379.402 13.8867 378.948 12.58 378.948 10.9C378.948 9.95333 379.122 9.08 379.468 8.28C379.815 7.48 380.348 6.83333 381.068 6.34C381.788 5.84667 382.675 5.6 383.728 5.6C384.715 5.6 385.568 5.83333 386.288 6.3C387.008 6.75333 387.555 7.36667 387.928 8.14C388.302 8.9 388.488 9.73333 388.488 10.64C388.488 10.8933 388.402 11.1067 388.228 11.28C388.068 11.4533 387.848 11.54 387.568 11.54H380.788C380.895 12.4733 381.242 13.2 381.828 13.72C382.415 14.24 383.235 14.5 384.288 14.5C384.848 14.5 385.335 14.4467 385.748 14.34C386.175 14.2333 386.588 14.08 386.988 13.88C387.095 13.8267 387.215 13.8 387.348 13.8C387.562 13.8 387.748 13.8733 387.908 14.02C388.068 14.1667 388.148 14.3533 388.148 14.58C388.148 14.8733 387.975 15.12 387.628 15.32C387.108 15.6133 386.595 15.8333 386.088 15.98C385.582 16.1267 384.928 16.2 384.128 16.2ZM386.688 10.06C386.648 9.40667 386.475 8.86 386.168 8.42C385.875 7.98 385.508 7.66 385.068 7.46C384.628 7.24667 384.182 7.14 383.728 7.14C383.275 7.14 382.828 7.24667 382.388 7.46C381.948 7.66 381.582 7.98 381.288 8.42C380.995 8.86 380.828 9.40667 380.788 10.06H386.688ZM391.796 16.1C391.543 16.1 391.33 16.0133 391.156 15.84C390.983 15.6667 390.896 15.4533 390.896 15.2V6.62C390.896 6.36667 390.983 6.15333 391.156 5.98C391.33 5.79333 391.543 5.7 391.796 5.7C392.05 5.7 392.263 5.79333 392.436 5.98C392.623 6.15333 392.716 6.36667 392.716 6.62V7.48C393.65 6.22667 394.696 5.6 395.856 5.6H395.956C396.21 5.6 396.416 5.68667 396.576 5.86C396.75 6.03333 396.836 6.24667 396.836 6.5C396.836 6.75333 396.75 6.96 396.576 7.12C396.403 7.28 396.183 7.36 395.916 7.36H395.816C395.176 7.36 394.59 7.52 394.056 7.84C393.523 8.14667 393.076 8.57333 392.716 9.12V15.2C392.716 15.4533 392.623 15.6667 392.436 15.84C392.263 16.0133 392.05 16.1 391.796 16.1ZM402.82 16.2C401.193 16.2 399.92 15.74 399 14.82C398.093 13.8867 397.64 12.58 397.64 10.9C397.64 9.95333 397.813 9.08 398.16 8.28C398.506 7.48 399.04 6.83333 399.76 6.34C400.48 5.84667 401.366 5.6 402.42 5.6C403.406 5.6 404.26 5.83333 404.98 6.3C405.7 6.75333 406.246 7.36667 406.62 8.14C406.993 8.9 407.18 9.73333 407.18 10.64C407.18 10.8933 407.093 11.1067 406.92 11.28C406.76 11.4533 406.54 11.54 406.26 11.54H399.48C399.586 12.4733 399.933 13.2 400.52 13.72C401.106 14.24 401.926 14.5 402.98 14.5C403.54 14.5 404.026 14.4467 404.44 14.34C404.866 14.2333 405.28 14.08 405.68 13.88C405.786 13.8267 405.906 13.8 406.04 13.8C406.253 13.8 406.44 13.8733 406.6 14.02C406.76 14.1667 406.84 14.3533 406.84 14.58C406.84 14.8733 406.666 15.12 406.32 15.32C405.8 15.6133 405.286 15.8333 404.78 15.98C404.273 16.1267 403.62 16.2 402.82 16.2ZM405.38 10.06C405.34 9.40667 405.166 8.86 404.86 8.42C404.566 7.98 404.2 7.66 403.76 7.46C403.32 7.24667 402.873 7.14 402.42 7.14C401.966 7.14 401.52 7.24667 401.08 7.46C400.64 7.66 400.273 7.98 399.98 8.42C399.686 8.86 399.52 9.40667 399.48 10.06H405.38ZM410.828 12.14C410.628 12.14 410.468 12.0867 410.348 11.98C410.228 11.8733 410.161 11.7333 410.148 11.56L409.788 4.96V2.98C409.788 2.68667 409.888 2.44 410.088 2.24C410.288 2.04 410.534 1.94 410.828 1.94C411.121 1.94 411.361 2.04 411.548 2.24C411.748 2.44 411.848 2.68667 411.848 2.98V4.96L411.488 11.56C411.474 11.7333 411.408 11.8733 411.288 11.98C411.181 12.0867 411.028 12.14 410.828 12.14ZM410.828 16.08C410.508 16.08 410.228 15.9667 409.988 15.74C409.761 15.5 409.648 15.2133 409.648 14.88C409.648 14.56 409.761 14.2867 409.988 14.06C410.228 13.82 410.508 13.7 410.828 13.7C411.161 13.7 411.441 13.82 411.668 14.06C411.908 14.2867 412.028 14.56 412.028 14.88C412.028 15.2133 411.908 15.5 411.668 15.74C411.441 15.9667 411.161 16.08 410.828 16.08Z" fill="black"/>
</svg>
